<svg width="374" height="152" viewBox="0 0 374 152" fill="none" xmlns="http://www.w3.org/2000/svg">
		<path d="M40.9788 32.8191C43.6117 34.6451 46.4145 36.5137 50.1091 36.5137C60.6833 36.5137 69.1766 25.5573 69.1766 16.1298C69.1766 7.46659 64.5902 2.79528 57.4558 1.69115C56.7763 5.3008 54.1434 11.7982 51.1708 17.9134C49.1748 22.0326 45.3104 28.2752 40.9788 32.8191ZM38.4308 32.5218C37.1568 31.2054 35.8404 30.2286 33.8444 30.2286C31.806 30.2286 28.7909 32.5643 28.7909 35.4945C28.7909 36.9383 29.6403 37.6603 31.254 37.7452H31.3814C33.5472 37.7452 36.0102 35.5369 38.4308 32.5218ZM53.1667 0.37469C64.2504 0.37469 71.8095 6.7022 71.8095 18.1257C71.8095 29.3793 62.5518 38.8493 50.4064 38.8493C44.546 38.8493 41.9131 36.3438 39.7897 34.0081C36.9445 36.6835 33.8869 38.5096 30.7868 38.5096C28.4937 38.5096 26.3703 36.726 26.3703 34.6027C26.3703 30.9081 30.2773 29.2519 32.9951 29.2094C35.2883 29.2094 37.2418 30.2711 39.1952 31.5876C42.5076 27.2135 45.3529 21.8203 47.2638 18.0407C49.5146 13.5818 52.8694 6.15013 53.9311 1.43635H53.8462C45.8625 1.43635 40.6391 6.7022 40.6391 9.75978C40.6391 10.4817 40.8514 10.694 40.8514 10.8214C40.8514 10.9064 40.7665 10.9913 40.6391 10.9913C40.4267 10.9913 40.0021 10.6091 39.45 10.3118C38.7705 9.92965 38.176 9.54745 38.176 8.95292C38.176 5.00354 45.1405 0.37469 53.1667 0.37469ZM87.8469 18.8476C91.0743 18.8476 93.1127 21.0559 93.1127 24.4532C93.1127 32.2246 84.9167 38.6795 78.5042 38.6795C75.3193 38.6795 73.0685 36.3863 73.0685 33.2013C73.0685 25.897 81.4344 18.8476 87.8469 18.8476ZM86.6153 19.7819C81.9865 19.7819 76.6782 27.0012 76.6782 32.7342C76.6782 35.4945 77.9947 37.5753 79.8207 37.5753C84.492 37.5753 89.6729 30.2286 89.6729 24.4957C89.6729 21.7778 88.5263 19.7819 86.6153 19.7819ZM120.485 33.8383C116.154 37.3205 111.695 39.3589 109.147 39.3589C107.745 39.3589 106.429 38.5096 106.429 36.9808C106.429 31.7999 113.946 27.256 113.946 23.9436C113.946 21.8203 112.459 21.4805 111.695 21.4805C109.062 21.4805 104.093 26.1943 100.569 30.5259C100.569 30.5259 98.2329 34.6451 96.7891 37.3205C89.315 51.3345 86.0875 58.5113 77.8065 73.3321C75.3435 77.7486 70.1201 78.2582 69.7804 78.2582C69.568 78.2582 69.3982 78.2582 69.3982 78.0884C69.3982 77.6637 70.0776 77.961 71.6064 76.7719C73.0503 75.6678 78.7408 67.4293 95.3027 36.9808C99.4644 29.3368 100.908 26.1094 100.908 24.3258C100.908 22.5847 100.526 21.9052 100.059 21.5655C99.8466 21.3956 99.7192 21.3531 99.7192 21.2682C99.7192 21.0983 100.144 20.9285 100.484 20.6737C101.503 19.9093 101.418 19.5695 102.182 19.5695C102.947 19.5695 103.626 20.5038 103.626 22.5422C103.626 23.9011 102.947 26.0245 102.267 27.2984C108.425 21.1833 112.459 18.8901 115.262 18.8901C116.111 18.8901 117.683 19.3997 117.683 21.8627C117.683 26.2792 109.402 32.8191 109.402 35.7917C109.402 37.2356 110.166 37.6603 111.27 37.6603C113.818 37.6603 118.277 34.8575 120.146 33.4136C122.694 31.4602 124.222 29.5916 125.921 27.4683C126.133 27.2135 126.176 27.2135 126.261 27.2135C126.346 27.2135 126.431 27.2984 126.431 27.3834C126.431 27.4683 126.473 27.4683 126.346 27.6382C124.222 30.5259 121.929 32.7342 120.485 33.8383ZM135.499 18.8476C138.726 18.8476 140.765 21.0559 140.765 24.4532C140.765 32.2246 132.569 38.6795 126.156 38.6795C122.971 38.6795 120.721 36.3863 120.721 33.2013C120.721 25.897 129.086 18.8476 135.499 18.8476ZM134.267 19.7819C129.639 19.7819 124.33 27.0012 124.33 32.7342C124.33 35.4945 125.647 37.5753 127.473 37.5753C132.144 37.5753 137.325 30.2286 137.325 24.4957C137.325 21.7778 136.178 19.7819 134.267 19.7819ZM149.197 38.3397C145.503 38.3397 142.53 36.4712 142.53 33.9232C142.53 30.2711 145.842 28.4026 149.367 26.5765C152.467 24.9628 153.274 22.8819 153.274 21.7778C153.274 20.7586 152.595 19.8243 151.236 19.8243C150.047 19.8243 148.858 20.4189 147.838 21.0983C147.584 21.2682 147.499 21.3531 147.414 21.3531C147.329 21.3531 147.244 21.2682 147.244 21.1833C147.244 21.0983 147.244 21.0134 147.499 20.8435C148.518 20.0791 150.726 18.6353 153.104 18.6353C154.548 18.6353 156.417 19.4846 156.417 21.3531C156.417 24.5381 153.104 25.7697 149.664 28.0204C147.966 29.1245 145.97 30.993 145.97 32.989C145.97 35.0273 147.753 37.0657 151.236 37.0657C154.039 37.0657 156.926 35.6219 159.814 33.4136C162.362 31.4602 163.891 29.5916 165.589 27.4683C165.759 27.2135 165.844 27.2135 165.929 27.2135C166.014 27.2135 166.099 27.2984 166.099 27.3834C166.099 27.4683 166.099 27.4683 166.014 27.6382C163.891 30.5259 161.598 32.7342 160.154 33.8383C156.926 36.4712 153.869 38.3397 149.197 38.3397ZM186.909 33.8383C183.682 36.5561 179.223 38.4671 176.675 38.4671C174.976 38.4671 173.999 37.4055 173.999 36.089C173.999 35.2397 174.169 34.3479 174.594 33.2438C172.98 34.7725 169.201 38.7219 164.742 38.7219C162.916 38.7219 160.58 37.7877 160.58 34.9424C160.58 30.8656 167.29 23.8587 167.29 21.0134C167.29 20.249 167.205 19.6545 166.44 19.6545C165.251 19.6545 164.317 20.4189 163.298 21.0983C163.043 21.2682 162.958 21.3531 162.873 21.3531C162.788 21.3531 162.703 21.2682 162.703 21.1833C162.703 21.0983 162.703 21.0134 162.958 20.8435C164.317 19.9093 166.355 18.4654 168.054 18.4654C169.753 18.4654 170.517 19.2298 170.517 20.8435C170.517 23.4765 163.977 31.078 163.977 34.3479C163.977 36.0465 164.784 36.8959 166.695 36.8959C169.201 36.8959 172.641 34.3054 175.273 31.7574C176.845 28.445 179.647 23.3066 180.667 21.6079C181.431 20.3339 182.195 19.1024 182.79 19.1024C183.257 19.1024 184.786 19.5695 184.786 20.4613C184.786 21.7778 181.346 25.0477 179.647 28.1053C178.586 30.0163 177.057 32.3944 177.057 34.8999C177.057 36.0041 177.736 36.9383 179.095 36.9383C180.921 36.9383 184.191 35.3671 186.57 33.4136C189.118 31.4602 190.646 29.5916 192.345 27.4683C192.515 27.2135 192.6 27.2135 192.685 27.2135C192.77 27.2135 192.855 27.2984 192.855 27.3834C192.855 27.4683 192.855 27.4683 192.77 27.6382C190.646 30.5259 188.353 32.7342 186.909 33.8383ZM192.022 27.2984C199.453 25.5149 200.43 22.9244 200.43 21.1833C200.43 20.6312 200.09 19.9942 199.326 19.9942C196.778 19.9942 193.975 23.4765 192.022 27.2984ZM192.574 38.6795C189.601 38.6795 186.841 37.0657 186.841 33.626C186.841 25.8121 196.905 18.8476 201.28 18.8476C202.384 18.8476 203.488 19.5695 203.488 20.9709C203.488 22.1175 200.855 26.619 191.64 28.1902C191.045 29.3793 190.281 30.9506 190.281 33.5835C190.281 36.3013 192.107 37.5753 194.4 37.5753C197.245 37.5753 201.704 35.6219 204.592 33.4136C207.14 31.4602 208.669 29.5916 210.367 27.4683C210.537 27.2135 210.622 27.2135 210.707 27.2135C210.792 27.2135 210.877 27.2984 210.877 27.3834C210.877 27.4683 210.877 27.4683 210.792 27.6382C208.669 30.5259 206.375 32.7342 204.932 33.8383C201.704 36.4712 197.245 38.6795 192.574 38.6795ZM204.9 74.3513C200.399 74.3513 195.642 70.7417 195.642 65.0936C195.642 52.4386 213.818 46.0686 223.798 42.9261C224.52 42.7138 225.666 42.3316 225.963 42.3316C226.218 42.3316 226.346 42.459 226.346 42.6288C226.346 43.096 225.496 43.2658 224.732 43.5206C215.602 46.4508 198.742 50.9098 198.742 63.8621C198.742 68.9156 202.522 72.6527 207.406 72.6527C213.224 72.6527 217.767 66.9621 221.887 59.8278C226.983 50.9523 230.805 44.0302 238.873 30.5259H238.831C235.264 34.3054 229.785 38 225.411 38C222.948 38 221.802 36.1315 221.802 33.5835C221.802 27.4258 229.828 18.2955 235.858 18.2955C239.171 18.2955 241.379 20.9285 242.738 23.9011L242.993 23.3915C243.587 22.2025 243.799 22.5422 244.394 22.3723C244.479 22.3723 244.819 22.2025 244.988 22.2025C245.073 22.2025 245.243 22.3723 245.243 22.4573C245.243 22.6271 245.158 22.797 244.988 22.9669C244.649 23.3915 244.139 24.4957 243.545 25.5149C243.63 25.6847 243.799 26.1943 243.799 26.3642C243.799 26.534 243.714 26.7039 243.545 26.7039C243.46 26.7039 243.29 26.2792 243.205 26.1094C243.205 26.1943 225.242 59.5305 225.242 59.5305C221.887 65.7306 213.393 74.3513 204.9 74.3513ZM242.398 24.4107C241.124 22.1175 239.001 19.8243 235.943 19.8243C231.739 19.8243 225.326 26.9587 225.326 33.6684C225.326 34.9424 226.346 36.4712 227.705 36.4712C232.546 36.4712 239.425 29.0396 239.51 28.9546C240.529 27.9354 241.549 26.0245 242.398 24.4107ZM270.472 33.8383C266.14 37.3205 261.681 39.3589 259.133 39.3589C257.732 39.3589 256.415 38.5096 256.415 36.9808C256.415 31.7999 263.932 27.256 263.932 23.9436C263.932 21.8203 262.446 21.4805 261.681 21.4805C259.048 21.4805 254.08 26.1943 250.555 30.5259C250.555 30.5259 248.219 34.6451 246.775 37.3205C239.301 51.3345 236.074 58.5113 227.793 73.3321C225.33 77.7486 220.106 78.2582 219.767 78.2582C219.554 78.2582 219.385 78.2582 219.385 78.0884C219.385 77.6637 220.064 77.961 221.593 76.7719C223.037 75.6678 228.727 67.4293 245.289 36.9808C249.451 29.3368 250.895 26.1094 250.895 24.3258C250.895 22.5847 250.512 21.9052 250.045 21.5655C249.833 21.3956 249.706 21.3531 249.706 21.2682C249.706 21.0983 250.13 20.9285 250.47 20.6737C251.489 19.9093 251.404 19.5695 252.169 19.5695C252.933 19.5695 253.612 20.5038 253.612 22.5422C253.612 23.9011 252.933 26.0245 252.254 27.2984C258.411 21.1833 262.446 18.8901 265.248 18.8901C266.098 18.8901 267.669 19.3997 267.669 21.8627C267.669 26.2792 259.388 32.8191 259.388 35.7917C259.388 37.2356 260.152 37.6603 261.256 37.6603C263.804 37.6603 268.263 34.8575 270.132 33.4136C272.68 31.4602 274.209 29.5916 275.907 27.4683C276.12 27.2135 276.162 27.2135 276.247 27.2135C276.332 27.2135 276.417 27.2984 276.417 27.3834C276.417 27.4683 276.459 27.4683 276.332 27.6382C274.209 30.5259 271.916 32.7342 270.472 33.8383ZM280.559 41.6097C276.865 42.8412 273.127 43.9028 269.9 45.0494C261.109 48.1495 252.446 53.9249 252.446 60.762C252.446 63.6498 253.678 65.943 257.5 65.943C262.936 65.943 269.263 61.6114 274.444 52.3961C274.444 52.3961 277.841 46.4508 280.559 41.6097ZM296.357 33.8383C293.129 36.5561 289.01 38.5945 283.702 40.5055C280.602 45.6015 276.44 52.1838 276.44 52.1838C270.877 61.1018 263.063 67.4717 255.674 67.4717C251.045 67.4717 249.261 63.947 249.261 61.3141C249.261 51.8016 262.044 46.8755 269.688 44.2426C273.849 42.8412 277.544 41.7371 281.111 40.5905C282.045 38.9343 284.551 34.4328 284.551 34.4328C280.644 37.5753 277.119 38.3822 274.571 38.3822C273 38.3822 271.216 37.4055 271.216 35.6219C271.216 30.6108 277.841 25.0902 277.841 21.0983C277.841 20.3339 277.417 19.9942 276.652 19.9942C275.463 19.9942 274.614 20.4189 273.595 21.0983C273.34 21.2682 273.255 21.3531 273.17 21.3531C273.085 21.3531 273 21.2682 273 21.1833C273 21.0983 273 21.0134 273.255 20.8435C274.614 19.9093 276.228 18.975 277.926 18.975C279.625 18.975 280.899 19.8243 280.899 21.6929C280.899 24.4957 274.486 31.5876 274.486 34.815C274.486 36.2589 275.251 36.9808 276.61 36.9808C279.03 36.9808 283.107 34.9424 285.23 33.1588L289.817 24.3258C291.261 21.6079 291.515 20.249 292.874 20.0791C293.724 19.9942 294.828 19.9093 295.253 19.9093C295.422 19.9093 295.507 20.0791 295.507 20.1641C295.507 20.5887 293.002 24.4957 291.685 26.7888C291.685 26.7888 287.099 34.9424 284.339 39.5288C288.288 38.1274 292.025 36.3863 296.017 33.4136C298.565 31.4602 300.094 29.5916 301.792 27.4683C301.962 27.2135 302.047 27.2135 302.132 27.2135C302.217 27.2135 302.302 27.2984 302.302 27.3834C302.302 27.4683 302.302 27.4683 302.217 27.6382C300.094 30.5259 297.801 32.7342 296.357 33.8383ZM306.289 40.1658C295.842 43.4782 286.33 45.6015 279.068 52.5235C275.416 56.0058 272.91 59.9976 272.91 64.1594C272.91 67.0471 274.949 68.7457 276.732 68.7457C290.152 68.7457 302.424 50.3153 306.289 40.1658ZM320.218 33.8383C318.477 35.4095 313.253 37.8726 309.177 39.2315C306.883 50.2303 290.237 69.7649 275.968 69.7649C272.401 69.7649 269.938 68.0663 269.938 64.8388C269.938 59.9976 273.42 55.4113 277.836 51.6317C287.094 43.6905 294.95 42.6288 306.629 39.2315C307.053 38 307.563 36.2589 307.563 35.1123C307.563 34.0081 307.393 33.0739 307.053 32.3095C306.629 32.4794 305.312 33.0739 304.293 33.0739C303.741 33.0739 302.976 32.904 302.976 32.4369C302.976 31.6725 305.609 30.9081 306.501 30.9081C306.926 30.9081 307.393 31.0355 307.563 31.1204C310.026 30.1012 313.338 26.7039 313.338 23.5189C313.338 21.6504 312.064 20.6312 310.79 20.6312C307.478 20.6312 304.25 23.8162 301.363 27.6382C301.193 27.893 301.108 27.893 301.023 27.893C300.938 27.893 300.853 27.808 300.853 27.7231C300.853 27.6382 300.853 27.6382 300.938 27.4683C306.459 20.249 309.474 18.8051 312.616 18.8051C315.164 18.8051 316.608 20.5038 316.608 22.8395C316.608 26.2368 312.489 29.6766 308.157 31.7574C309.177 33.2862 309.431 35.5369 309.431 36.8959C309.431 37.3205 309.346 38.1274 309.304 38.4671C313.211 37.2781 317.967 35.0273 319.878 33.4136C322.341 31.3752 323.955 29.5916 325.654 27.4683C325.823 27.2135 325.908 27.2135 325.993 27.2135C326.078 27.2135 326.163 27.2984 326.163 27.3834C326.163 27.4683 326.163 27.4683 326.078 27.6382C323.955 30.5259 321.577 32.6492 320.218 33.8383ZM332.45 19.6545C332.45 19.8243 331.133 20.0791 329.902 21.7353C328.33 23.8587 324.381 29.4642 324.381 33.541C324.381 35.8767 325.315 37.2356 327.354 37.2356C331.43 37.2356 334.658 31.715 334.658 28.9122C334.658 28.0204 334.658 27.5108 334.063 26.8313C333.554 26.6614 331.473 26.2792 331.473 26.0245C331.473 25.5149 332.577 24.8779 333.087 24.4532C333.681 23.9436 333.554 23.8587 333.808 23.8587C334.191 23.8587 334.87 24.5806 335.167 24.7929C335.847 25.2601 336.611 25.4299 337.418 25.4299C340.433 25.4299 344.468 22.16 346.379 20.8435C346.633 20.6737 346.718 20.5887 346.803 20.5887C346.888 20.5887 346.973 20.6737 346.973 20.7586C346.973 20.8435 346.973 20.9285 346.718 21.0983C345.02 22.2449 339.329 26.619 337.418 26.7464C337.418 32.6917 331.091 38.5945 325.485 38.5945C322.3 38.5945 321.069 36.7685 321.069 33.626C321.069 29.5492 325.655 23.0093 327.184 20.8435C327.438 20.4613 327.736 20.3339 328.033 20.2915C330.411 19.8668 331.218 19.3147 332.152 19.3147C332.407 19.3147 332.45 19.4846 332.45 19.6545ZM344.672 36.3863C346.115 36.3863 348.833 34.815 351.594 31.5451C352.528 30.441 352.91 29.5067 352.91 28.8272C352.91 28.4875 352.74 28.1478 352.443 27.9354C351.381 27.3834 350.022 26.534 350.022 24.8779C350.022 20.4189 355.458 18.4654 358.728 18.4654C360.554 18.4654 361.828 18.6353 363.187 18.6353C363.951 18.6353 364.503 18.5928 365.777 18.5928C366.245 18.5928 366.457 18.6353 366.457 18.8051C366.457 18.975 366.117 19.1024 365.82 19.3572C365.693 19.4846 365.438 19.7394 364.928 20.4189C363.697 22.1175 361.913 24.9203 360.342 28.1053C359.025 30.7807 358.176 33.4136 358.176 34.7301C358.176 35.9191 358.686 36.4712 359.79 36.4712C362.21 36.4712 366.032 34.6027 367.476 33.4136C370.024 31.4602 371.553 29.5916 373.252 27.4683C373.421 27.2135 373.506 27.2135 373.591 27.2135C373.676 27.2135 373.761 27.2984 373.761 27.3834C373.761 27.4683 373.761 27.4683 373.676 27.6382C371.553 30.5259 369.26 32.7342 367.816 33.8383C366.075 35.3246 360.639 38.2123 357.284 38.2123C355.755 38.2123 354.651 37.5329 354.651 36.0041C354.651 33.4561 356.18 30.3136 358.049 27.0012C359.705 24.071 362.338 20.2065 362.338 19.6545C362.338 19.2298 361.573 19.1873 360.384 19.1873H359.153C355.713 19.1873 353.335 21.7778 353.335 24.1984C353.335 25.8546 353.802 26.7888 354.949 27.1286C355.458 27.2984 356.435 27.256 356.435 27.5532C356.435 27.808 356.095 27.893 355.288 28.53C354.609 29.082 352.995 30.9081 351.211 32.8616C346.965 37.363 344.332 38.1699 343.058 38.1699C341.232 38.1699 339.915 36.6411 339.915 35.1123C339.915 34.7725 340.17 34.5602 340.467 34.3479C342.039 33.2013 343.1 32.1396 343.185 32.1396C343.355 32.1396 343.44 32.2246 343.44 32.3944C343.44 32.5643 343.143 32.6917 342.803 33.2013C342.633 33.4561 342.506 33.7534 342.506 34.3054C342.506 35.3246 343.567 36.3863 344.672 36.3863ZM127.304 101.838C124.076 104.556 119.617 106.467 117.069 106.467C115.37 106.467 114.394 105.405 114.394 104.089C114.394 103.24 114.564 102.348 114.988 101.244C113.375 102.773 109.595 106.722 105.136 106.722C103.31 106.722 100.974 105.788 100.974 102.942C100.974 98.8656 107.684 91.8587 107.684 89.0134C107.684 88.249 107.599 87.6545 106.835 87.6545C105.646 87.6545 104.711 88.4189 103.692 89.0983C103.437 89.2682 103.352 89.3531 103.268 89.3531C103.183 89.3531 103.098 89.2682 103.098 89.1833C103.098 89.0983 103.098 89.0134 103.352 88.8435C104.711 87.9093 106.75 86.4654 108.448 86.4654C110.147 86.4654 110.911 87.2298 110.911 88.8435C110.911 91.4765 104.372 99.078 104.372 102.348C104.372 104.047 105.179 104.896 107.09 104.896C109.595 104.896 113.035 102.305 115.668 99.7574C117.239 96.445 120.042 91.3066 121.061 89.6079C121.825 88.3339 122.59 87.1024 123.184 87.1024C123.651 87.1024 125.18 87.5695 125.18 88.4613C125.18 89.7778 121.74 93.0477 120.042 96.1053C118.98 98.0163 117.451 100.394 117.451 102.9C117.451 104.004 118.131 104.938 119.49 104.938C121.316 104.938 124.586 103.367 126.964 101.414C129.512 99.4602 131.041 97.5916 132.739 95.4683C132.909 95.2135 132.994 95.2135 133.079 95.2135C133.164 95.2135 133.249 95.2984 133.249 95.3834C133.249 95.4683 133.249 95.4683 133.164 95.6382C131.041 98.5259 128.747 100.734 127.304 101.838ZM169.061 101.838C164.73 105.321 160.271 107.359 157.723 107.359C156.321 107.359 155.005 106.51 155.005 104.981C155.005 99.7999 162.522 95.256 162.522 91.9436C162.522 89.8203 161.035 89.4805 160.271 89.4805C157.638 89.4805 152.669 94.1943 149.145 98.5259C149.145 98.5259 146.809 102.645 145.365 105.321C137.891 119.334 134.664 126.511 126.383 141.332C123.92 145.749 118.696 146.258 118.356 146.258C118.144 146.258 117.974 146.258 117.974 146.088C117.974 145.664 118.654 145.961 120.182 144.772C121.626 143.668 127.317 135.429 143.879 104.981C148.04 97.3368 149.484 94.1094 149.484 92.3258C149.484 90.5847 149.102 89.9052 148.635 89.5655C148.423 89.3956 148.295 89.3531 148.295 89.2682C148.295 89.0983 148.72 88.9285 149.06 88.6737C150.079 87.9093 149.994 87.5695 150.758 87.5695C151.523 87.5695 152.202 88.5038 152.202 90.5422C152.202 91.9011 151.523 94.0245 150.843 95.2984C157.001 89.1833 161.035 86.8901 163.838 86.8901C164.687 86.8901 166.259 87.3997 166.259 89.8627C166.259 94.2792 157.978 100.819 157.978 103.792C157.978 105.236 158.742 105.66 159.846 105.66C162.394 105.66 166.853 102.857 168.722 101.414C171.27 99.4602 172.798 97.5916 174.497 95.4683C174.709 95.2135 174.752 95.2135 174.837 95.2135C174.922 95.2135 175.007 95.2984 175.007 95.3834C175.007 95.4683 175.049 95.4683 174.922 95.6382C172.798 98.5259 170.505 100.734 169.061 101.838ZM184.075 86.8476C187.302 86.8476 189.341 89.0559 189.341 92.4532C189.341 100.225 181.145 106.679 174.732 106.679C171.547 106.679 169.297 104.386 169.297 101.201C169.297 93.897 177.663 86.8476 184.075 86.8476ZM182.843 87.7819C178.215 87.7819 172.906 95.0012 172.906 100.734C172.906 103.494 174.223 105.575 176.049 105.575C180.72 105.575 185.901 98.2286 185.901 92.4957C185.901 89.7778 184.754 87.7819 182.843 87.7819ZM174.926 142.351C170.425 142.351 165.669 138.742 165.669 133.094C165.669 120.439 183.844 114.069 193.824 110.926C194.546 110.714 195.693 110.332 195.99 110.332C196.245 110.332 196.372 110.459 196.372 110.629C196.372 111.096 195.523 111.266 194.758 111.521C185.628 114.451 168.769 118.91 168.769 131.862C168.769 136.916 172.548 140.653 177.432 140.653C183.25 140.653 187.794 134.962 191.913 127.828C197.009 118.952 200.831 112.03 208.9 98.5259H208.857C205.29 102.305 199.812 106 195.438 106C192.975 106 191.828 104.131 191.828 101.583C191.828 95.4258 199.854 86.2955 205.884 86.2955C209.197 86.2955 211.405 88.9285 212.764 91.9011L213.019 91.3915C213.613 90.2025 213.826 90.5422 214.42 90.3723C214.505 90.3723 214.845 90.2025 215.015 90.2025C215.1 90.2025 215.27 90.3723 215.27 90.4573C215.27 90.6271 215.185 90.797 215.015 90.9669C214.675 91.3915 214.165 92.4957 213.571 93.5149C213.656 93.6847 213.826 94.1943 213.826 94.3642C213.826 94.534 213.741 94.7039 213.571 94.7039C213.486 94.7039 213.316 94.2792 213.231 94.1094C213.231 94.1943 195.268 127.531 195.268 127.531C191.913 133.731 183.42 142.351 174.926 142.351ZM212.424 92.4107C211.15 90.1175 209.027 87.8243 205.969 87.8243C201.765 87.8243 195.353 94.9587 195.353 101.668C195.353 102.942 196.372 104.471 197.731 104.471C202.572 104.471 209.452 97.0396 209.537 96.9546C210.556 95.9354 211.575 94.0245 212.424 92.4107ZM226.144 88.5463C226.144 90.3723 222.705 96.2752 222.705 96.2752C223.766 96.3601 224.531 96.4026 225.337 96.4026C227.588 96.4026 230.051 95.9354 232.514 94.8313C233.661 92.9628 236.039 89.3956 236.676 88.5463C237.398 87.5695 238.502 87.3572 239.479 87.1873C240.201 87.0599 240.965 86.8051 241.39 86.8051C241.56 86.8051 241.602 86.8901 241.602 86.975C241.602 87.2298 240.456 87.5271 238.035 90.7545C234.765 95.1286 231.877 100.394 231.877 103.112C231.877 104.514 232.472 105.448 234.17 105.448C236.039 105.448 239.054 103.622 241.942 101.414C244.49 99.4602 246.019 97.5916 247.717 95.4683C247.887 95.2135 247.972 95.2135 248.057 95.2135C248.142 95.2135 248.227 95.2984 248.227 95.3834C248.227 95.4683 248.227 95.4683 248.142 95.6382C246.019 98.5259 243.725 100.734 242.282 101.838C239.054 104.471 235.699 106.977 231.962 106.977C229.584 106.977 228.522 105.788 228.522 103.877C228.522 101.838 229.839 99.2903 231.835 96.1478C229.244 97.167 226.909 97.5492 221.94 97.804C221.176 99.4177 218.161 104.556 217.311 105.958C217.014 106.425 215.995 106.467 214.891 106.637C214.169 106.764 213.702 107.232 213.447 107.232C213.277 107.232 213.192 107.189 213.192 107.019C213.192 106.849 213.871 106.212 215.061 104.259C215.867 102.985 217.396 100.437 218.628 98.1437C218.458 96.9546 218.118 96.445 218.118 96.0628C218.118 95.8505 218.373 95.5957 218.415 95.5957C218.713 95.5957 219.307 95.808 219.902 95.8505C221.813 92.4532 222.874 90.2874 222.874 89.0134C222.874 87.9093 222.535 87.6545 222.025 87.6545C221.176 87.6545 219.902 88.4189 218.883 89.0983C218.628 89.2682 218.543 89.3531 218.458 89.3531C218.373 89.3531 218.288 89.2682 218.288 89.1833C218.288 89.0983 218.288 89.0134 218.543 88.8435C218.883 88.5887 221.77 86.4654 223.639 86.4654C225.337 86.4654 226.144 87.3572 226.144 88.5463ZM268.761 87.3147C269.228 87.3147 270.587 87.5695 270.587 88.4613C270.587 90.0751 267.274 92.7929 265.873 95.8505C264.981 97.8464 263.58 101.244 263.58 102.857C263.58 104.259 264.684 104.853 265.533 104.853C267.487 104.853 270.969 103.367 273.347 101.414C275.895 99.4602 277.424 97.5916 279.123 95.4683C279.292 95.2135 279.377 95.2135 279.462 95.2135C279.547 95.2135 279.632 95.2984 279.632 95.3834C279.632 95.4683 279.632 95.4683 279.547 95.6382C277.424 98.5259 275.131 100.734 273.687 101.838C270.459 104.556 265.916 106.552 263.368 106.552C261.711 106.552 260.522 105.66 260.522 104.131C260.522 101.753 262.476 98.1437 263.622 95.7656C262.943 96.1053 261.839 96.2752 261.202 96.2752C260.395 96.2752 259.376 96.0204 259.376 96.0204C258.441 101.414 252.708 106.382 247.57 106.382C244.385 106.34 243.111 104.768 243.111 101.626C243.111 97.5492 247.697 91.0093 249.226 88.8435C249.481 88.4613 249.778 88.3339 250.076 88.2915C252.454 87.8668 253.26 87.3147 254.195 87.3147C254.45 87.3147 254.492 87.4846 254.492 87.6545C254.492 87.8243 253.176 88.0791 251.944 89.7353C250.373 91.8587 246.423 97.4642 246.423 101.541C246.423 103.877 247.315 105.236 249.396 105.236C253.473 105.236 256.7 99.715 256.7 96.9122C256.7 96.1902 256.7 95.5108 256.106 94.8313C255.596 94.4916 254.195 93.5573 254.195 93.3025C254.195 92.7929 254.832 92.708 255.384 92.3683C256.361 91.7737 256.743 91.3915 256.998 91.3915C257.21 91.3915 257.295 92.071 257.507 92.3683C258.059 93.1751 259.376 95.3834 261.881 95.3834C262.603 95.3834 263.537 95.2135 264.005 94.9587C265.024 92.8354 267.402 87.3147 268.761 87.3147ZM278.773 95.2984C286.205 93.5149 287.181 90.9244 287.181 89.1833C287.181 88.6312 286.842 87.9942 286.077 87.9942C283.529 87.9942 280.726 91.4765 278.773 95.2984ZM279.325 106.679C276.352 106.679 273.592 105.066 273.592 101.626C273.592 93.8121 283.657 86.8476 288.031 86.8476C289.135 86.8476 290.239 87.5695 290.239 88.9709C290.239 90.1175 287.606 94.619 278.391 96.1902C277.796 97.3793 277.032 98.9506 277.032 101.583C277.032 104.301 278.858 105.575 281.151 105.575C283.996 105.575 288.455 103.622 291.343 101.414C293.891 99.4602 295.42 97.5916 297.118 95.4683C297.288 95.2135 297.373 95.2135 297.458 95.2135C297.543 95.2135 297.628 95.2984 297.628 95.3834C297.628 95.4683 297.628 95.4683 297.543 95.6382C295.42 98.5259 293.127 100.734 291.683 101.838C288.455 104.471 283.996 106.679 279.325 106.679Z" fill="black"/>
		<path d="M-172.09 57.96V60.56C-173.737 60.9067 -175.557 61.9033 -177.55 63.55C-179.543 65.11 -181.147 67.8833 -182.36 71.87L-206.93 150.65C-207.103 150.65 -207.277 150.65 -207.45 150.65C-207.623 150.65 -207.797 150.65 -207.97 150.65C-208.143 150.65 -208.317 150.65 -208.49 150.65C-208.663 150.65 -208.837 150.65 -209.01 150.65L-236.57 68.88C-237.697 65.5 -238.953 63.29 -240.34 62.25C-241.727 61.21 -243.027 60.6467 -244.24 60.56V57.96C-242.68 58.0467 -240.73 58.1333 -238.39 58.22C-236.05 58.3067 -233.797 58.35 -231.63 58.35C-228.25 58.35 -225.087 58.3067 -222.14 58.22C-219.193 58.1333 -216.81 58.0467 -214.99 57.96V60.56C-217.59 60.6467 -219.67 60.9067 -221.23 61.34C-222.703 61.7733 -223.57 62.7267 -223.83 64.2C-224.003 65.6733 -223.57 68.1 -222.53 71.48L-203.16 131.41L-204.98 132.97L-187.82 79.02C-186.26 74.2533 -185.567 70.57 -185.74 67.97C-185.827 65.2833 -186.78 63.42 -188.6 62.38C-190.42 61.2533 -193.15 60.6467 -196.79 60.56V57.96C-194.277 58.0467 -191.72 58.1333 -189.12 58.22C-186.52 58.3067 -184.093 58.35 -181.84 58.35C-179.587 58.35 -177.723 58.3067 -176.25 58.22C-174.777 58.1333 -173.39 58.0467 -172.09 57.96ZM-262.96 57.96V60.56C-265.213 60.7333 -266.86 61.1667 -267.9 61.86C-268.853 62.5533 -269.33 63.68 -269.33 65.24C-269.243 66.7133 -268.767 68.7933 -267.9 71.48L-247.75 132.97L-251 136.22L-232.8 78.11L-230.85 81.23L-252.3 150.65C-252.473 150.65 -252.647 150.65 -252.82 150.65C-252.993 150.65 -253.167 150.65 -253.34 150.65C-253.513 150.65 -253.687 150.65 -253.86 150.65C-254.033 150.65 -254.207 150.65 -254.38 150.65L-281.94 68.88C-283.067 65.5 -284.497 63.29 -286.23 62.25C-287.963 61.21 -289.523 60.6467 -290.91 60.56V57.96C-289.177 58.0467 -287.053 58.1333 -284.54 58.22C-281.94 58.3067 -279.427 58.35 -277 58.35C-274.14 58.35 -271.497 58.3067 -269.07 58.22C-266.557 58.1333 -264.52 58.0467 -262.96 57.96ZM-101.984 57.96C-102.331 60.9933 -102.591 63.94 -102.764 66.8C-102.851 69.66 -102.894 71.8267 -102.894 73.3C-102.894 74.86 -102.851 76.3767 -102.764 77.85C-102.678 79.2367 -102.591 80.4067 -102.504 81.36H-105.494C-106.014 76.2467 -106.751 72.2167 -107.704 69.27C-108.658 66.2367 -110.304 64.1133 -112.644 62.9C-114.898 61.6 -118.321 60.95 -122.914 60.95H-133.704C-136.651 60.95 -138.904 61.21 -140.464 61.73C-141.938 62.1633 -142.934 63.16 -143.454 64.72C-143.974 66.1933 -144.234 68.5333 -144.234 71.74V136.22C-144.234 139.34 -143.974 141.68 -143.454 143.24C-142.934 144.8 -141.938 145.84 -140.464 146.36C-138.904 146.793 -136.651 147.01 -133.704 147.01H-124.214C-118.754 147.01 -114.638 146.273 -111.864 144.8C-109.004 143.327 -106.968 140.943 -105.754 137.65C-104.454 134.27 -103.501 129.72 -102.894 124H-99.9044C-100.164 126.34 -100.294 129.46 -100.294 133.36C-100.294 135.007 -100.251 137.39 -100.164 140.51C-99.9911 143.543 -99.7311 146.707 -99.3844 150C-103.804 149.827 -108.788 149.74 -114.334 149.74C-119.881 149.653 -124.821 149.61 -129.154 149.61C-131.061 149.61 -133.531 149.61 -136.564 149.61C-139.511 149.61 -142.718 149.653 -146.184 149.74C-149.651 149.74 -153.161 149.783 -156.714 149.87C-160.268 149.87 -163.648 149.913 -166.854 150V147.4C-163.908 147.227 -161.698 146.88 -160.224 146.36C-158.664 145.84 -157.624 144.8 -157.104 143.24C-156.584 141.68 -156.324 139.34 -156.324 136.22V71.74C-156.324 68.5333 -156.584 66.1933 -157.104 64.72C-157.624 63.16 -158.664 62.12 -160.224 61.6C-161.698 60.9933 -163.908 60.6467 -166.854 60.56V57.96C-163.648 58.0467 -160.268 58.1333 -156.714 58.22C-153.161 58.22 -149.651 58.2633 -146.184 58.35C-142.718 58.35 -139.511 58.35 -136.564 58.35C-133.531 58.35 -131.061 58.35 -129.154 58.35C-125.168 58.35 -120.661 58.35 -115.634 58.35C-110.521 58.2633 -105.971 58.1333 -101.984 57.96ZM-124.344 102.42C-124.344 102.42 -124.344 102.853 -124.344 103.72C-124.344 104.587 -124.344 105.02 -124.344 105.02H-148.134C-148.134 105.02 -148.134 104.587 -148.134 103.72C-148.134 102.853 -148.134 102.42 -148.134 102.42H-124.344ZM-120.574 85.26C-120.921 90.2 -121.094 93.97 -121.094 96.57C-121.008 99.17 -120.964 101.553 -120.964 103.72C-120.964 105.887 -120.921 108.27 -120.834 110.87C-120.748 113.47 -120.531 117.24 -120.184 122.18H-123.174C-123.521 119.407 -123.954 116.72 -124.474 114.12C-124.908 111.433 -125.948 109.267 -127.594 107.62C-129.154 105.887 -131.841 105.02 -135.654 105.02V102.42C-132.794 102.42 -130.628 101.857 -129.154 100.73C-127.594 99.5167 -126.468 98 -125.774 96.18C-125.081 94.36 -124.604 92.4967 -124.344 90.59C-124.084 88.5967 -123.824 86.82 -123.564 85.26H-120.574ZM-52.1457 57.96C-36.6324 57.96 -25.1057 61.86 -17.5657 69.66C-10.0257 77.3733 -6.2557 88.4667 -6.2557 102.94C-6.2557 112.387 -8.11903 120.663 -11.8457 127.77C-15.4857 134.79 -20.8157 140.25 -27.8357 144.15C-34.8557 148.05 -43.349 150 -53.3157 150C-54.6157 150 -56.349 149.957 -58.5157 149.87C-60.6824 149.783 -62.9357 149.74 -65.2757 149.74C-67.529 149.653 -69.609 149.61 -71.5157 149.61C-74.549 149.61 -77.539 149.653 -80.4857 149.74C-83.4324 149.74 -85.8157 149.827 -87.6357 150V147.4C-84.689 147.227 -82.479 146.88 -81.0057 146.36C-79.4457 145.84 -78.4057 144.8 -77.8857 143.24C-77.3657 141.68 -77.1057 139.34 -77.1057 136.22V71.74C-77.1057 68.5333 -77.3657 66.1933 -77.8857 64.72C-78.4057 63.16 -79.4457 62.12 -81.0057 61.6C-82.479 60.9933 -84.689 60.6467 -87.6357 60.56V57.96C-85.8157 58.0467 -83.4324 58.1767 -80.4857 58.35C-77.539 58.4367 -74.6357 58.4367 -71.7757 58.35C-68.7424 58.2633 -65.319 58.1767 -61.5057 58.09C-57.6924 58.0033 -54.5724 57.96 -52.1457 57.96ZM-55.3957 60.3C-59.3824 60.3 -61.9824 61.0367 -63.1957 62.51C-64.409 63.9833 -65.0157 66.9733 -65.0157 71.48V136.48C-65.0157 140.987 -64.409 143.977 -63.1957 145.45C-61.8957 146.923 -59.2524 147.66 -55.2657 147.66C-45.819 147.66 -38.4957 145.97 -33.2957 142.59C-28.0957 139.123 -24.4557 134.097 -22.3757 127.51C-20.2957 120.923 -19.2557 112.907 -19.2557 103.46C-19.2557 93.7533 -20.4257 85.7367 -22.7657 79.41C-25.019 72.9967 -28.789 68.23 -34.0757 65.11C-39.2757 61.9033 -46.3824 60.3 -55.3957 60.3ZM40.657 57.96C56.1704 57.96 67.697 61.86 75.237 69.66C82.777 77.3733 86.547 88.4667 86.547 102.94C86.547 112.387 84.6837 120.663 80.957 127.77C77.317 134.79 71.987 140.25 64.967 144.15C57.947 148.05 49.4537 150 39.487 150C38.187 150 36.4537 149.957 34.287 149.87C32.1204 149.783 29.867 149.74 27.527 149.74C25.2737 149.653 23.1937 149.61 21.287 149.61C18.2537 149.61 15.2637 149.653 12.317 149.74C9.37036 149.74 6.98703 149.827 5.16703 150V147.4C8.1137 147.227 10.3237 146.88 11.797 146.36C13.357 145.84 14.397 144.8 14.917 143.24C15.437 141.68 15.697 139.34 15.697 136.22V71.74C15.697 68.5333 15.437 66.1933 14.917 64.72C14.397 63.16 13.357 62.12 11.797 61.6C10.3237 60.9933 8.1137 60.6467 5.16703 60.56V57.96C6.98703 58.0467 9.37036 58.1767 12.317 58.35C15.2637 58.4367 18.167 58.4367 21.027 58.35C24.0604 58.2633 27.4837 58.1767 31.297 58.09C35.1104 58.0033 38.2304 57.96 40.657 57.96ZM37.407 60.3C33.4204 60.3 30.8204 61.0367 29.607 62.51C28.3937 63.9833 27.787 66.9733 27.787 71.48V136.48C27.787 140.987 28.3937 143.977 29.607 145.45C30.907 146.923 33.5504 147.66 37.537 147.66C46.9837 147.66 54.307 145.97 59.507 142.59C64.707 139.123 68.347 134.097 70.427 127.51C72.507 120.923 73.547 112.907 73.547 103.46C73.547 93.7533 72.377 85.7367 70.037 79.41C67.7837 72.9967 64.0137 68.23 58.727 65.11C53.527 61.9033 46.4204 60.3 37.407 60.3ZM131.12 57.96V60.56C128.173 60.6467 125.92 60.9933 124.36 61.6C122.886 62.12 121.89 63.16 121.37 64.72C120.85 66.1933 120.59 68.5333 120.59 71.74V136.22C120.59 139.34 120.85 141.68 121.37 143.24C121.89 144.8 122.886 145.84 124.36 146.36C125.92 146.88 128.173 147.227 131.12 147.4V150C129.126 149.827 126.613 149.74 123.58 149.74C120.633 149.653 117.643 149.61 114.61 149.61C111.23 149.61 108.066 149.653 105.12 149.74C102.173 149.74 99.7898 149.827 97.9698 150V147.4C100.916 147.227 103.126 146.88 104.6 146.36C106.16 145.84 107.2 144.8 107.72 143.24C108.24 141.68 108.5 139.34 108.5 136.22V71.74C108.5 68.5333 108.24 66.1933 107.72 64.72C107.2 63.16 106.16 62.12 104.6 61.6C103.126 60.9933 100.916 60.6467 97.9698 60.56V57.96C99.7898 58.0467 102.173 58.1333 105.12 58.22C108.066 58.3067 111.23 58.35 114.61 58.35C117.643 58.35 120.633 58.3067 123.58 58.22C126.613 58.1333 129.126 58.0467 131.12 57.96ZM223.663 57.96V60.56C220.716 60.6467 218.463 61.08 216.903 61.86C215.429 62.64 214.433 63.8967 213.913 65.63C213.393 67.3633 213.133 69.8333 213.133 73.04V150.65C212.613 150.65 212.093 150.65 211.573 150.65C211.139 150.65 210.663 150.65 210.143 150.65L155.543 66.28V134.92C155.543 138.04 155.803 140.51 156.323 142.33C156.929 144.063 158.056 145.32 159.703 146.1C161.436 146.793 163.993 147.227 167.373 147.4V150C165.813 149.827 163.776 149.74 161.263 149.74C158.749 149.653 156.366 149.61 154.113 149.61C151.946 149.61 149.736 149.653 147.483 149.74C145.316 149.74 143.496 149.827 142.023 150V147.4C144.969 147.227 147.179 146.793 148.653 146.1C150.213 145.32 151.253 144.063 151.773 142.33C152.293 140.51 152.553 138.04 152.553 134.92V71.74C152.553 68.5333 152.293 66.1933 151.773 64.72C151.253 63.16 150.213 62.12 148.653 61.6C147.179 60.9933 144.969 60.6467 142.023 60.56V57.96C143.496 58.0467 145.316 58.1333 147.483 58.22C149.736 58.3067 151.946 58.35 154.113 58.35C156.019 58.35 157.839 58.3067 159.573 58.22C161.306 58.1333 162.866 58.0467 164.253 57.96L210.143 128.68V73.04C210.143 69.8333 209.839 67.3633 209.233 65.63C208.713 63.8967 207.586 62.64 205.853 61.86C204.206 61.08 201.693 60.6467 198.313 60.56V57.96C199.873 58.0467 201.909 58.1333 204.423 58.22C207.023 58.3067 209.406 58.35 211.573 58.35C213.826 58.35 216.036 58.3067 218.203 58.22C220.456 58.1333 222.276 58.0467 223.663 57.96ZM276.341 56.14C281.974 56.14 286.524 57.0067 289.991 58.74C293.458 60.3867 296.708 62.3367 299.741 64.59C300.868 65.4567 301.734 65.89 302.341 65.89C303.988 65.89 305.071 63.2467 305.591 57.96H308.581C308.408 61.1667 308.278 65.0667 308.191 69.66C308.104 74.2533 308.061 80.32 308.061 87.86H305.071C304.464 84.22 303.728 80.71 302.861 77.33C301.994 73.95 300.564 71.0467 298.571 68.62C296.058 65.4133 292.764 62.9433 288.691 61.21C284.618 59.39 280.414 58.48 276.081 58.48C271.748 58.48 267.804 59.5633 264.251 61.73C260.784 63.81 257.794 66.8433 255.281 70.83C252.768 74.8167 250.818 79.6267 249.431 85.26C248.131 90.8067 247.481 97.09 247.481 104.11C247.481 119.71 249.994 131.15 255.021 138.43C260.048 145.623 267.848 149.22 278.421 149.22C281.541 149.22 284.228 148.787 286.481 147.92C288.821 146.967 290.641 146.057 291.941 145.19C293.588 144.063 294.628 143.023 295.061 142.07C295.494 141.03 295.711 139.687 295.711 138.04V125.56C295.711 122.007 295.364 119.363 294.671 117.63C293.978 115.897 292.678 114.727 290.771 114.12C288.951 113.513 286.221 113.167 282.581 113.08V110.48C284.141 110.567 285.961 110.653 288.041 110.74C290.121 110.74 292.288 110.783 294.541 110.87C296.881 110.87 299.004 110.87 300.911 110.87C303.771 110.87 306.328 110.827 308.581 110.74C310.921 110.653 312.871 110.567 314.431 110.48V113.08C312.524 113.167 311.094 113.47 310.141 113.99C309.188 114.51 308.538 115.55 308.191 117.11C307.931 118.67 307.801 121.053 307.801 124.26V150H305.201C305.114 148.527 304.768 146.923 304.161 145.19C303.641 143.457 302.818 142.59 301.691 142.59C301.171 142.59 300.651 142.72 300.131 142.98C299.611 143.24 298.701 143.847 297.401 144.8C294.541 146.967 291.508 148.7 288.301 150C285.094 151.213 281.368 151.82 277.121 151.82C268.194 151.82 260.524 150 254.111 146.36C247.784 142.633 242.931 137.303 239.551 130.37C236.171 123.437 234.481 115.16 234.481 105.54C234.481 95.4 236.301 86.6467 239.941 79.28C243.581 71.9133 248.521 66.2367 254.761 62.25C261.088 58.1767 268.281 56.14 276.341 56.14Z" fill="black" fill-opacity="0.1"/>
			</svg>