<svg width="362" height="486" viewBox="0 0 362 486" fill="none" xmlns="http://www.w3.org/2000/svg">
				
				<path d="M-172.09 33.96V36.56C-173.737 36.9067 -175.557 37.9033 -177.55 39.55C-179.543 41.11 -181.147 43.8833 -182.36 47.87L-206.93 126.65C-207.103 126.65 -207.277 126.65 -207.45 126.65C-207.623 126.65 -207.797 126.65 -207.97 126.65C-208.143 126.65 -208.317 126.65 -208.49 126.65C-208.663 126.65 -208.837 126.65 -209.01 126.65L-236.57 44.88C-237.697 41.5 -238.953 39.29 -240.34 38.25C-241.727 37.21 -243.027 36.6467 -244.24 36.56V33.96C-242.68 34.0467 -240.73 34.1333 -238.39 34.22C-236.05 34.3067 -233.797 34.35 -231.63 34.35C-228.25 34.35 -225.087 34.3067 -222.14 34.22C-219.193 34.1333 -216.81 34.0467 -214.99 33.96V36.56C-217.59 36.6467 -219.67 36.9067 -221.23 37.34C-222.703 37.7733 -223.57 38.7267 -223.83 40.2C-224.003 41.6733 -223.57 44.1 -222.53 47.48L-203.16 107.41L-204.98 108.97L-187.82 55.02C-186.26 50.2533 -185.567 46.57 -185.74 43.97C-185.827 41.2833 -186.78 39.42 -188.6 38.38C-190.42 37.2533 -193.15 36.6467 -196.79 36.56V33.96C-194.277 34.0467 -191.72 34.1333 -189.12 34.22C-186.52 34.3067 -184.093 34.35 -181.84 34.35C-179.587 34.35 -177.723 34.3067 -176.25 34.22C-174.777 34.1333 -173.39 34.0467 -172.09 33.96ZM-262.96 33.96V36.56C-265.213 36.7333 -266.86 37.1667 -267.9 37.86C-268.853 38.5533 -269.33 39.68 -269.33 41.24C-269.243 42.7133 -268.767 44.7933 -267.9 47.48L-247.75 108.97L-251 112.22L-232.8 54.11L-230.85 57.23L-252.3 126.65C-252.473 126.65 -252.647 126.65 -252.82 126.65C-252.993 126.65 -253.167 126.65 -253.34 126.65C-253.513 126.65 -253.687 126.65 -253.86 126.65C-254.033 126.65 -254.207 126.65 -254.38 126.65L-281.94 44.88C-283.067 41.5 -284.497 39.29 -286.23 38.25C-287.963 37.21 -289.523 36.6467 -290.91 36.56V33.96C-289.177 34.0467 -287.053 34.1333 -284.54 34.22C-281.94 34.3067 -279.427 34.35 -277 34.35C-274.14 34.35 -271.497 34.3067 -269.07 34.22C-266.557 34.1333 -264.52 34.0467 -262.96 33.96ZM-101.984 33.96C-102.331 36.9933 -102.591 39.94 -102.764 42.8C-102.851 45.66 -102.894 47.8267 -102.894 49.3C-102.894 50.86 -102.851 52.3767 -102.764 53.85C-102.678 55.2367 -102.591 56.4067 -102.504 57.36H-105.494C-106.014 52.2467 -106.751 48.2167 -107.704 45.27C-108.658 42.2367 -110.304 40.1133 -112.644 38.9C-114.898 37.6 -118.321 36.95 -122.914 36.95H-133.704C-136.651 36.95 -138.904 37.21 -140.464 37.73C-141.938 38.1633 -142.934 39.16 -143.454 40.72C-143.974 42.1933 -144.234 44.5333 -144.234 47.74V112.22C-144.234 115.34 -143.974 117.68 -143.454 119.24C-142.934 120.8 -141.938 121.84 -140.464 122.36C-138.904 122.793 -136.651 123.01 -133.704 123.01H-124.214C-118.754 123.01 -114.638 122.273 -111.864 120.8C-109.004 119.327 -106.968 116.943 -105.754 113.65C-104.454 110.27 -103.501 105.72 -102.894 100H-99.9044C-100.164 102.34 -100.294 105.46 -100.294 109.36C-100.294 111.007 -100.251 113.39 -100.164 116.51C-99.9911 119.543 -99.7311 122.707 -99.3844 126C-103.804 125.827 -108.788 125.74 -114.334 125.74C-119.881 125.653 -124.821 125.61 -129.154 125.61C-131.061 125.61 -133.531 125.61 -136.564 125.61C-139.511 125.61 -142.718 125.653 -146.184 125.74C-149.651 125.74 -153.161 125.783 -156.714 125.87C-160.268 125.87 -163.648 125.913 -166.854 126V123.4C-163.908 123.227 -161.698 122.88 -160.224 122.36C-158.664 121.84 -157.624 120.8 -157.104 119.24C-156.584 117.68 -156.324 115.34 -156.324 112.22V47.74C-156.324 44.5333 -156.584 42.1933 -157.104 40.72C-157.624 39.16 -158.664 38.12 -160.224 37.6C-161.698 36.9933 -163.908 36.6467 -166.854 36.56V33.96C-163.648 34.0467 -160.268 34.1333 -156.714 34.22C-153.161 34.22 -149.651 34.2633 -146.184 34.35C-142.718 34.35 -139.511 34.35 -136.564 34.35C-133.531 34.35 -131.061 34.35 -129.154 34.35C-125.168 34.35 -120.661 34.35 -115.634 34.35C-110.521 34.2633 -105.971 34.1333 -101.984 33.96ZM-124.344 78.42C-124.344 78.42 -124.344 78.8533 -124.344 79.72C-124.344 80.5867 -124.344 81.02 -124.344 81.02H-148.134C-148.134 81.02 -148.134 80.5867 -148.134 79.72C-148.134 78.8533 -148.134 78.42 -148.134 78.42H-124.344ZM-120.574 61.26C-120.921 66.2 -121.094 69.97 -121.094 72.57C-121.008 75.17 -120.964 77.5533 -120.964 79.72C-120.964 81.8867 -120.921 84.27 -120.834 86.87C-120.748 89.47 -120.531 93.24 -120.184 98.18H-123.174C-123.521 95.4067 -123.954 92.72 -124.474 90.12C-124.908 87.4333 -125.948 85.2667 -127.594 83.62C-129.154 81.8867 -131.841 81.02 -135.654 81.02V78.42C-132.794 78.42 -130.628 77.8567 -129.154 76.73C-127.594 75.5167 -126.468 74 -125.774 72.18C-125.081 70.36 -124.604 68.4967 -124.344 66.59C-124.084 64.5967 -123.824 62.82 -123.564 61.26H-120.574ZM-52.1457 33.96C-36.6324 33.96 -25.1057 37.86 -17.5657 45.66C-10.0257 53.3733 -6.2557 64.4667 -6.2557 78.94C-6.2557 88.3867 -8.11903 96.6633 -11.8457 103.77C-15.4857 110.79 -20.8157 116.25 -27.8357 120.15C-34.8557 124.05 -43.349 126 -53.3157 126C-54.6157 126 -56.349 125.957 -58.5157 125.87C-60.6824 125.783 -62.9357 125.74 -65.2757 125.74C-67.529 125.653 -69.609 125.61 -71.5157 125.61C-74.549 125.61 -77.539 125.653 -80.4857 125.74C-83.4324 125.74 -85.8157 125.827 -87.6357 126V123.4C-84.689 123.227 -82.479 122.88 -81.0057 122.36C-79.4457 121.84 -78.4057 120.8 -77.8857 119.24C-77.3657 117.68 -77.1057 115.34 -77.1057 112.22V47.74C-77.1057 44.5333 -77.3657 42.1933 -77.8857 40.72C-78.4057 39.16 -79.4457 38.12 -81.0057 37.6C-82.479 36.9933 -84.689 36.6467 -87.6357 36.56V33.96C-85.8157 34.0467 -83.4324 34.1767 -80.4857 34.35C-77.539 34.4367 -74.6357 34.4367 -71.7757 34.35C-68.7424 34.2633 -65.319 34.1767 -61.5057 34.09C-57.6924 34.0033 -54.5724 33.96 -52.1457 33.96ZM-55.3957 36.3C-59.3824 36.3 -61.9824 37.0367 -63.1957 38.51C-64.409 39.9833 -65.0157 42.9733 -65.0157 47.48V112.48C-65.0157 116.987 -64.409 119.977 -63.1957 121.45C-61.8957 122.923 -59.2524 123.66 -55.2657 123.66C-45.819 123.66 -38.4957 121.97 -33.2957 118.59C-28.0957 115.123 -24.4557 110.097 -22.3757 103.51C-20.2957 96.9233 -19.2557 88.9067 -19.2557 79.46C-19.2557 69.7533 -20.4257 61.7367 -22.7657 55.41C-25.019 48.9967 -28.789 44.23 -34.0757 41.11C-39.2757 37.9033 -46.3824 36.3 -55.3957 36.3ZM40.657 33.96C56.1704 33.96 67.697 37.86 75.237 45.66C82.777 53.3733 86.547 64.4667 86.547 78.94C86.547 88.3867 84.6837 96.6633 80.957 103.77C77.317 110.79 71.987 116.25 64.967 120.15C57.947 124.05 49.4537 126 39.487 126C38.187 126 36.4537 125.957 34.287 125.87C32.1204 125.783 29.867 125.74 27.527 125.74C25.2737 125.653 23.1937 125.61 21.287 125.61C18.2537 125.61 15.2637 125.653 12.317 125.74C9.37036 125.74 6.98703 125.827 5.16703 126V123.4C8.1137 123.227 10.3237 122.88 11.797 122.36C13.357 121.84 14.397 120.8 14.917 119.24C15.437 117.68 15.697 115.34 15.697 112.22V47.74C15.697 44.5333 15.437 42.1933 14.917 40.72C14.397 39.16 13.357 38.12 11.797 37.6C10.3237 36.9933 8.1137 36.6467 5.16703 36.56V33.96C6.98703 34.0467 9.37036 34.1767 12.317 34.35C15.2637 34.4367 18.167 34.4367 21.027 34.35C24.0604 34.2633 27.4837 34.1767 31.297 34.09C35.1104 34.0033 38.2304 33.96 40.657 33.96ZM37.407 36.3C33.4204 36.3 30.8204 37.0367 29.607 38.51C28.3937 39.9833 27.787 42.9733 27.787 47.48V112.48C27.787 116.987 28.3937 119.977 29.607 121.45C30.907 122.923 33.5504 123.66 37.537 123.66C46.9837 123.66 54.307 121.97 59.507 118.59C64.707 115.123 68.347 110.097 70.427 103.51C72.507 96.9233 73.547 88.9067 73.547 79.46C73.547 69.7533 72.377 61.7367 70.037 55.41C67.7837 48.9967 64.0137 44.23 58.727 41.11C53.527 37.9033 46.4204 36.3 37.407 36.3ZM131.12 33.96V36.56C128.173 36.6467 125.92 36.9933 124.36 37.6C122.886 38.12 121.89 39.16 121.37 40.72C120.85 42.1933 120.59 44.5333 120.59 47.74V112.22C120.59 115.34 120.85 117.68 121.37 119.24C121.89 120.8 122.886 121.84 124.36 122.36C125.92 122.88 128.173 123.227 131.12 123.4V126C129.126 125.827 126.613 125.74 123.58 125.74C120.633 125.653 117.643 125.61 114.61 125.61C111.23 125.61 108.066 125.653 105.12 125.74C102.173 125.74 99.7898 125.827 97.9698 126V123.4C100.916 123.227 103.126 122.88 104.6 122.36C106.16 121.84 107.2 120.8 107.72 119.24C108.24 117.68 108.5 115.34 108.5 112.22V47.74C108.5 44.5333 108.24 42.1933 107.72 40.72C107.2 39.16 106.16 38.12 104.6 37.6C103.126 36.9933 100.916 36.6467 97.9698 36.56V33.96C99.7898 34.0467 102.173 34.1333 105.12 34.22C108.066 34.3067 111.23 34.35 114.61 34.35C117.643 34.35 120.633 34.3067 123.58 34.22C126.613 34.1333 129.126 34.0467 131.12 33.96ZM223.663 33.96V36.56C220.716 36.6467 218.463 37.08 216.903 37.86C215.429 38.64 214.433 39.8967 213.913 41.63C213.393 43.3633 213.133 45.8333 213.133 49.04V126.65C212.613 126.65 212.093 126.65 211.573 126.65C211.139 126.65 210.663 126.65 210.143 126.65L155.543 42.28V110.92C155.543 114.04 155.803 116.51 156.323 118.33C156.929 120.063 158.056 121.32 159.703 122.1C161.436 122.793 163.993 123.227 167.373 123.4V126C165.813 125.827 163.776 125.74 161.263 125.74C158.749 125.653 156.366 125.61 154.113 125.61C151.946 125.61 149.736 125.653 147.483 125.74C145.316 125.74 143.496 125.827 142.023 126V123.4C144.969 123.227 147.179 122.793 148.653 122.1C150.213 121.32 151.253 120.063 151.773 118.33C152.293 116.51 152.553 114.04 152.553 110.92V47.74C152.553 44.5333 152.293 42.1933 151.773 40.72C151.253 39.16 150.213 38.12 148.653 37.6C147.179 36.9933 144.969 36.6467 142.023 36.56V33.96C143.496 34.0467 145.316 34.1333 147.483 34.22C149.736 34.3067 151.946 34.35 154.113 34.35C156.019 34.35 157.839 34.3067 159.573 34.22C161.306 34.1333 162.866 34.0467 164.253 33.96L210.143 104.68V49.04C210.143 45.8333 209.839 43.3633 209.233 41.63C208.713 39.8967 207.586 38.64 205.853 37.86C204.206 37.08 201.693 36.6467 198.313 36.56V33.96C199.873 34.0467 201.909 34.1333 204.423 34.22C207.023 34.3067 209.406 34.35 211.573 34.35C213.826 34.35 216.036 34.3067 218.203 34.22C220.456 34.1333 222.276 34.0467 223.663 33.96ZM276.341 32.14C281.974 32.14 286.524 33.0067 289.991 34.74C293.458 36.3867 296.708 38.3367 299.741 40.59C300.868 41.4567 301.734 41.89 302.341 41.89C303.988 41.89 305.071 39.2467 305.591 33.96H308.581C308.408 37.1667 308.278 41.0667 308.191 45.66C308.104 50.2533 308.061 56.32 308.061 63.86H305.071C304.464 60.22 303.728 56.71 302.861 53.33C301.994 49.95 300.564 47.0467 298.571 44.62C296.058 41.4133 292.764 38.9433 288.691 37.21C284.618 35.39 280.414 34.48 276.081 34.48C271.748 34.48 267.804 35.5633 264.251 37.73C260.784 39.81 257.794 42.8433 255.281 46.83C252.768 50.8167 250.818 55.6267 249.431 61.26C248.131 66.8067 247.481 73.09 247.481 80.11C247.481 95.71 249.994 107.15 255.021 114.43C260.048 121.623 267.848 125.22 278.421 125.22C281.541 125.22 284.228 124.787 286.481 123.92C288.821 122.967 290.641 122.057 291.941 121.19C293.588 120.063 294.628 119.023 295.061 118.07C295.494 117.03 295.711 115.687 295.711 114.04V101.56C295.711 98.0067 295.364 95.3633 294.671 93.63C293.978 91.8967 292.678 90.7267 290.771 90.12C288.951 89.5133 286.221 89.1667 282.581 89.08V86.48C284.141 86.5667 285.961 86.6533 288.041 86.74C290.121 86.74 292.288 86.7833 294.541 86.87C296.881 86.87 299.004 86.87 300.911 86.87C303.771 86.87 306.328 86.8267 308.581 86.74C310.921 86.6533 312.871 86.5667 314.431 86.48V89.08C312.524 89.1667 311.094 89.47 310.141 89.99C309.188 90.51 308.538 91.55 308.191 93.11C307.931 94.67 307.801 97.0533 307.801 100.26V126H305.201C305.114 124.527 304.768 122.923 304.161 121.19C303.641 119.457 302.818 118.59 301.691 118.59C301.171 118.59 300.651 118.72 300.131 118.98C299.611 119.24 298.701 119.847 297.401 120.8C294.541 122.967 291.508 124.7 288.301 126C285.094 127.213 281.368 127.82 277.121 127.82C268.194 127.82 260.524 126 254.111 122.36C247.784 118.633 242.931 113.303 239.551 106.37C236.171 99.4367 234.481 91.16 234.481 81.54C234.481 71.4 236.301 62.6467 239.941 55.28C243.581 47.9133 248.521 42.2367 254.761 38.25C261.088 34.1767 268.281 32.14 276.341 32.14Z" fill="black" fill-opacity="0.1"/>
				</svg>