<svg width="393" height="131" viewBox="0 0 393 131" fill="none" xmlns="http://www.w3.org/2000/svg">
<path d="M77.3674 31.6074V33.3134C76.2869 33.5409 75.0927 34.1948 73.7848 35.2753C72.4768 36.2989 71.4248 38.1186 70.6286 40.7345L54.5069 92.4265C54.3932 92.4265 54.2794 92.4265 54.1657 92.4265C54.052 92.4265 53.9382 92.4265 53.8245 92.4265C53.7108 92.4265 53.597 92.4265 53.4833 92.4265C53.3696 92.4265 53.2558 92.4265 53.1421 92.4265L35.0584 38.7726C34.3192 36.5548 33.4946 35.1047 32.5847 34.4223C31.6748 33.7399 30.8218 33.3703 30.0257 33.3134V31.6074C31.0493 31.6643 32.3288 31.7211 33.8642 31.778C35.3996 31.8349 36.8782 31.8633 38.2998 31.8633C40.5176 31.8633 42.5933 31.8349 44.5268 31.778C46.4602 31.7211 48.0241 31.6643 49.2183 31.6074V33.3134C47.5123 33.3703 46.1475 33.5409 45.1239 33.8252C44.1571 34.1095 43.5885 34.7351 43.4178 35.7018C43.3041 36.6685 43.5885 38.2608 44.2709 40.4786L56.9806 79.8021L55.7864 80.8257L67.046 45.426C68.0696 42.2984 68.5246 39.8815 68.4108 38.1755C68.354 36.4126 67.7284 35.19 66.5342 34.5076C65.34 33.7683 63.5487 33.3703 61.1603 33.3134V31.6074C62.8095 31.6643 64.487 31.7211 66.193 31.778C67.899 31.8349 69.4913 31.8633 70.9698 31.8633C72.4484 31.8633 73.671 31.8349 74.6378 31.778C75.6045 31.7211 76.5144 31.6643 77.3674 31.6074ZM17.7425 31.6074V33.3134C16.2639 33.4271 15.1835 33.7115 14.501 34.1664C13.8755 34.6213 13.5627 35.3606 13.5627 36.3842C13.6196 37.3509 13.9324 38.7157 14.501 40.4786L27.7226 80.8257L25.5901 82.9582L37.5321 44.8289L38.8116 46.8761L24.7371 92.4265C24.6234 92.4265 24.5096 92.4265 24.3959 92.4265C24.2822 92.4265 24.1684 92.4265 24.0547 92.4265C23.9409 92.4265 23.8272 92.4265 23.7135 92.4265C23.5997 92.4265 23.486 92.4265 23.3723 92.4265L5.28862 38.7726C4.54935 36.5548 3.61105 35.1047 2.47371 34.4223C1.33637 33.7399 0.312768 33.3703 -0.597102 33.3134V31.6074C0.540235 31.6643 1.93347 31.7211 3.58261 31.778C5.28862 31.8349 6.93776 31.8633 8.53003 31.8633C10.4066 31.8633 12.1411 31.8349 13.7333 31.778C15.3825 31.7211 16.7189 31.6643 17.7425 31.6074ZM123.368 31.6074C123.14 33.5977 122.969 35.5312 122.856 37.4078C122.799 39.2844 122.77 40.7061 122.77 41.6728C122.77 42.6964 122.799 43.6916 122.856 44.6583C122.913 45.5682 122.969 46.3359 123.026 46.9614H121.064C120.723 43.6063 120.24 40.962 119.614 39.0285C118.989 37.0382 117.908 35.6449 116.373 34.8488C114.894 33.9958 112.648 33.5693 109.634 33.5693H102.554C100.621 33.5693 99.1423 33.7399 98.1187 34.0811C97.1519 34.3654 96.498 35.0194 96.1568 36.043C95.8156 37.0097 95.645 38.5451 95.645 40.6492V82.9582C95.645 85.0054 95.8156 86.5408 96.1568 87.5644C96.498 88.588 97.1519 89.2704 98.1187 89.6116C99.1423 89.8959 100.621 90.0381 102.554 90.0381H108.781C112.364 90.0381 115.065 89.5547 116.885 88.588C118.761 87.6213 120.098 86.0574 120.894 83.8965C121.747 81.6787 122.372 78.6932 122.77 74.9399H124.732C124.562 76.4753 124.476 78.5226 124.476 81.0816C124.476 82.162 124.505 83.7259 124.562 85.7731C124.675 87.7634 124.846 89.8391 125.074 92C122.173 91.8863 118.904 91.8294 115.264 91.8294C111.625 91.7725 108.383 91.7441 105.54 91.7441C104.289 91.7441 102.668 91.7441 100.678 91.7441C98.7442 91.7441 96.6401 91.7725 94.3655 91.8294C92.0908 91.8294 89.7877 91.8578 87.4561 91.9147C85.1246 91.9147 82.9068 91.9431 80.8027 92V90.294C82.7362 90.1803 84.1863 89.9528 85.153 89.6116C86.1766 89.2704 86.859 88.588 87.2002 87.5644C87.5414 86.5408 87.712 85.0054 87.712 82.9582V40.6492C87.712 38.5451 87.5414 37.0097 87.2002 36.043C86.859 35.0194 86.1766 34.337 85.153 33.9958C84.1863 33.5977 82.7362 33.3703 80.8027 33.3134V31.6074C82.9068 31.6643 85.1246 31.7211 87.4561 31.778C89.7877 31.778 92.0908 31.8064 94.3655 31.8633C96.6401 31.8633 98.7442 31.8633 100.678 31.8633C102.668 31.8633 104.289 31.8633 105.54 31.8633C108.156 31.8633 111.113 31.8633 114.411 31.8633C117.766 31.8064 120.752 31.7211 123.368 31.6074ZM108.696 60.7801C108.696 60.7801 108.696 61.0644 108.696 61.6331C108.696 62.2018 108.696 62.4861 108.696 62.4861H93.0859C93.0859 62.4861 93.0859 62.2018 93.0859 61.6331C93.0859 61.0644 93.0859 60.7801 93.0859 60.7801H108.696ZM111.17 49.5205C110.942 52.7619 110.828 55.2356 110.828 56.9416C110.885 58.6476 110.914 60.2114 110.914 61.6331C110.914 63.0548 110.942 64.6186 110.999 66.3246C111.056 68.0306 111.198 70.5043 111.426 73.7457H109.464C109.236 71.926 108.952 70.1631 108.611 68.4571C108.326 66.6942 107.644 65.2726 106.563 64.1921C105.54 63.0548 103.777 62.4861 101.275 62.4861V60.7801C103.151 60.7801 104.573 60.4105 105.54 59.6712C106.563 58.8751 107.303 57.8799 107.758 56.6857C108.213 55.4915 108.525 54.2688 108.696 53.0178C108.867 51.7098 109.037 50.5441 109.208 49.5205H111.17ZM156.07 31.6074C166.249 31.6074 173.812 34.1664 178.759 39.2844C183.707 44.3456 186.181 51.6245 186.181 61.1213C186.181 67.3198 184.958 72.7506 182.513 77.4136C180.124 82.0199 176.627 85.6025 172.021 88.1615C167.414 90.7205 161.842 92 155.302 92C154.449 92 153.312 91.9716 151.89 91.9147C150.468 91.8578 148.99 91.8294 147.454 91.8294C145.976 91.7725 144.611 91.7441 143.36 91.7441C141.369 91.7441 139.408 91.7725 137.474 91.8294C135.541 91.8294 133.977 91.8863 132.783 92V90.294C134.716 90.1803 136.166 89.9528 137.133 89.6116C138.156 89.2704 138.839 88.588 139.18 87.5644C139.521 86.5408 139.692 85.0054 139.692 82.9582V40.6492C139.692 38.5451 139.521 37.0097 139.18 36.043C138.839 35.0194 138.156 34.337 137.133 33.9958C136.166 33.5977 134.716 33.3703 132.783 33.3134V31.6074C133.977 31.6643 135.541 31.7496 137.474 31.8633C139.408 31.9202 141.313 31.9202 143.189 31.8633C145.18 31.8064 147.426 31.7496 149.928 31.6927C152.43 31.6358 154.477 31.6074 156.07 31.6074ZM153.937 33.1428C151.321 33.1428 149.615 33.6262 148.819 34.5929C148.023 35.5596 147.625 37.5215 147.625 40.4786V83.1288C147.625 86.0858 148.023 88.0478 148.819 89.0145C149.672 89.9812 151.406 90.4646 154.022 90.4646C160.221 90.4646 165.026 89.3557 168.438 87.1379C171.85 84.8632 174.239 81.5649 175.603 77.243C176.968 72.9212 177.651 67.661 177.651 61.4625C177.651 55.0934 176.883 49.8332 175.347 45.6819C173.869 41.4738 171.395 38.3461 167.926 36.2989C164.514 34.1948 159.851 33.1428 153.937 33.1428ZM216.963 31.6074C227.142 31.6074 234.705 34.1664 239.653 39.2844C244.6 44.3456 247.074 51.6245 247.074 61.1213C247.074 67.3198 245.851 72.7506 243.406 77.4136C241.017 82.0199 237.52 85.6025 232.914 88.1615C228.308 90.7205 222.735 92 216.195 92C215.342 92 214.205 91.9716 212.783 91.9147C211.361 91.8578 209.883 91.8294 208.347 91.8294C206.869 91.7725 205.504 91.7441 204.253 91.7441C202.263 91.7441 200.301 91.7725 198.367 91.8294C196.434 91.8294 194.87 91.8863 193.676 92V90.294C195.609 90.1803 197.059 89.9528 198.026 89.6116C199.05 89.2704 199.732 88.588 200.073 87.5644C200.414 86.5408 200.585 85.0054 200.585 82.9582V40.6492C200.585 38.5451 200.414 37.0097 200.073 36.043C199.732 35.0194 199.05 34.337 198.026 33.9958C197.059 33.5977 195.609 33.3703 193.676 33.3134V31.6074C194.87 31.6643 196.434 31.7496 198.367 31.8633C200.301 31.9202 202.206 31.9202 204.082 31.8633C206.073 31.8064 208.319 31.7496 210.821 31.6927C213.323 31.6358 215.37 31.6074 216.963 31.6074ZM214.83 33.1428C212.214 33.1428 210.508 33.6262 209.712 34.5929C208.916 35.5596 208.518 37.5215 208.518 40.4786V83.1288C208.518 86.0858 208.916 88.0478 209.712 89.0145C210.565 89.9812 212.3 90.4646 214.915 90.4646C221.114 90.4646 225.919 89.3557 229.331 87.1379C232.743 84.8632 235.132 81.5649 236.496 77.243C237.861 72.9212 238.544 67.661 238.544 61.4625C238.544 55.0934 237.776 49.8332 236.241 45.6819C234.762 41.4738 232.288 38.3461 228.819 36.2989C225.407 34.1948 220.744 33.1428 214.83 33.1428ZM276.32 31.6074V33.3134C274.387 33.3703 272.908 33.5977 271.885 33.9958C270.918 34.337 270.264 35.0194 269.923 36.043C269.582 37.0097 269.411 38.5451 269.411 40.6492V82.9582C269.411 85.0054 269.582 86.5408 269.923 87.5644C270.264 88.588 270.918 89.2704 271.885 89.6116C272.908 89.9528 274.387 90.1803 276.32 90.294V92C275.012 91.8863 273.363 91.8294 271.373 91.8294C269.439 91.7725 267.478 91.7441 265.487 91.7441C263.269 91.7441 261.194 91.7725 259.26 91.8294C257.327 91.8294 255.763 91.8863 254.569 92V90.294C256.502 90.1803 257.952 89.9528 258.919 89.6116C259.943 89.2704 260.625 88.588 260.966 87.5644C261.307 86.5408 261.478 85.0054 261.478 82.9582V40.6492C261.478 38.5451 261.307 37.0097 260.966 36.043C260.625 35.0194 259.943 34.337 258.919 33.9958C257.952 33.5977 256.502 33.3703 254.569 33.3134V31.6074C255.763 31.6643 257.327 31.7211 259.26 31.778C261.194 31.8349 263.269 31.8633 265.487 31.8633C267.478 31.8633 269.439 31.8349 271.373 31.778C273.363 31.7211 275.012 31.6643 276.32 31.6074ZM337.043 31.6074V33.3134C335.109 33.3703 333.631 33.6546 332.607 34.1664C331.64 34.6782 330.986 35.5028 330.645 36.6401C330.304 37.7774 330.133 39.3982 330.133 41.5022V92.4265C329.792 92.4265 329.451 92.4265 329.11 92.4265C328.826 92.4265 328.513 92.4265 328.172 92.4265L292.345 37.0666V82.1052C292.345 84.1524 292.516 85.7731 292.857 86.9673C293.255 88.1046 293.995 88.9292 295.075 89.441C296.212 89.8959 297.89 90.1803 300.108 90.294V92C299.084 91.8863 297.748 91.8294 296.099 91.8294C294.45 91.7725 292.886 91.7441 291.407 91.7441C289.985 91.7441 288.535 91.7725 287.057 91.8294C285.635 91.8294 284.441 91.8863 283.474 92V90.294C285.408 90.1803 286.858 89.8959 287.825 89.441C288.848 88.9292 289.531 88.1046 289.872 86.9673C290.213 85.7731 290.384 84.1524 290.384 82.1052V40.6492C290.384 38.5451 290.213 37.0097 289.872 36.043C289.531 35.0194 288.848 34.337 287.825 33.9958C286.858 33.5977 285.408 33.3703 283.474 33.3134V31.6074C284.441 31.6643 285.635 31.7211 287.057 31.778C288.535 31.8349 289.985 31.8633 291.407 31.8633C292.658 31.8633 293.852 31.8349 294.99 31.778C296.127 31.7211 297.151 31.6643 298.061 31.6074L328.172 78.0108V41.5022C328.172 39.3982 327.973 37.7774 327.574 36.6401C327.233 35.5028 326.494 34.6782 325.357 34.1664C324.276 33.6546 322.627 33.3703 320.409 33.3134V31.6074C321.433 31.6643 322.769 31.7211 324.418 31.778C326.124 31.8349 327.688 31.8633 329.11 31.8633C330.588 31.8633 332.039 31.8349 333.46 31.778C334.939 31.7211 336.133 31.6643 337.043 31.6074ZM371.608 30.4132C375.304 30.4132 378.29 30.9819 380.565 32.1192C382.839 33.1997 384.972 34.4792 386.962 35.9577C387.701 36.5264 388.27 36.8107 388.668 36.8107C389.749 36.8107 390.459 35.0763 390.801 31.6074H392.763C392.649 33.7115 392.564 36.2705 392.507 39.2844C392.45 42.2984 392.421 46.279 392.421 51.2265H390.459C390.061 48.838 389.578 46.5349 389.009 44.3171C388.441 42.0993 387.502 40.1943 386.194 38.602C384.545 36.4979 382.384 34.8772 379.712 33.7399C377.039 32.5457 374.281 31.9486 371.437 31.9486C368.594 31.9486 366.007 32.6594 363.675 34.0811C361.4 35.4459 359.439 37.4362 357.789 40.0521C356.14 42.668 354.861 45.8241 353.951 49.5205C353.098 53.1599 352.671 57.2828 352.671 61.889C352.671 72.125 354.321 79.6315 357.619 84.4083C360.917 89.1282 366.035 91.4882 372.973 91.4882C375.02 91.4882 376.783 91.2039 378.261 90.6352C379.797 90.0097 380.991 89.4126 381.844 88.8439C382.925 88.1046 383.607 87.4222 383.891 86.7967C384.176 86.1143 384.318 85.2328 384.318 84.1524V75.9635C384.318 73.632 384.09 71.8976 383.635 70.7602C383.18 69.6229 382.327 68.8552 381.076 68.4571C379.882 68.059 378.091 67.8316 375.702 67.7747V66.0687C376.726 66.1256 377.92 66.1824 379.285 66.2393C380.65 66.2393 382.072 66.2677 383.55 66.3246C385.086 66.3246 386.479 66.3246 387.73 66.3246C389.606 66.3246 391.284 66.2962 392.763 66.2393C394.298 66.1824 395.577 66.1256 396.601 66.0687V67.7747C395.35 67.8316 394.412 68.0306 393.786 68.3718C393.161 68.713 392.734 69.3954 392.507 70.419C392.336 71.4426 392.251 73.0065 392.251 75.1105V92H390.545C390.488 91.0333 390.26 89.9812 389.862 88.8439C389.521 87.7066 388.981 87.1379 388.242 87.1379C387.9 87.1379 387.559 87.2232 387.218 87.3938C386.877 87.5644 386.28 87.9625 385.427 88.588C383.55 90.0097 381.56 91.147 379.456 92C377.352 92.7961 374.906 93.1942 372.12 93.1942C366.263 93.1942 361.23 92 357.022 89.6116C352.87 87.1663 349.686 83.669 347.468 79.1197C345.25 74.5703 344.141 69.1395 344.141 62.8273C344.141 56.1739 345.336 50.4303 347.724 45.5966C350.112 40.763 353.354 37.0382 357.448 34.4223C361.6 31.7496 366.319 30.4132 371.608 30.4132Z" fill="#E6E6E6"/>
<path d="M89.2599 65.3619C84.1024 65.3619 82.519 62.8284 82.519 59.4806C82.519 55.3184 85.0073 49.9799 86.1383 46.813C83.3333 50.4323 78.2663 57.0828 75.6876 59.3901C70.6205 63.9142 66.8203 65.3619 63.4272 65.3619C59.9436 65.3619 58.3601 62.376 58.3601 58.5757C58.3601 54.2778 60.9841 48.0345 61.7985 45.9987C51.7549 59.933 46.1902 65.3619 41.8923 65.3619C39.6302 65.3619 38.8159 63.5523 38.8159 61.8331C38.8159 61.4712 38.8159 61.0188 38.9969 60.8378C40.6256 59.571 42.5257 57.6709 42.6162 57.6709C42.7971 57.6709 42.8876 57.7614 42.8876 57.9424C42.8876 58.0328 42.2542 58.4853 42.2542 59.2996C42.2542 61.0188 42.7067 62.0141 44.7425 62.0141C48.9047 62.0141 55.7814 53.1468 62.839 41.2936L69.6705 28.2641C69.9419 27.6307 70.3038 27.2688 70.6205 26.9973C71.5254 26.0925 72.6112 25.7306 72.9278 25.5496C74.0136 25.0972 74.6018 24.8257 75.1447 24.8257C75.3709 24.8257 75.5971 25.0067 75.7328 25.0972V25.1877V25.2781C75.7328 25.5496 75.5971 26.002 75.1899 26.6354L70.3491 34.4169C67.0917 41.2031 62.8843 49.9347 62.8843 57.0828C62.8843 60.1592 63.8343 63.0094 66.5488 63.0094C68.449 63.0094 72.5207 61.0188 75.6876 57.8066C78.8997 54.5493 81.8404 51.2919 87.6313 42.1984C90.3005 36.679 93.1959 32.0643 95.0508 28.8975C95.3223 28.3546 97.0867 25.4591 99.2583 25.4591C99.9369 25.4591 100.977 26.0925 101.023 26.3639C101.023 26.9973 97.2676 31.0238 94.4175 36.5885C91.3863 42.696 86.7264 50.749 86.7264 57.8971C86.7264 61.0188 87.8122 63.688 91.341 63.688C93.2412 63.688 96.5438 62.0141 99.0773 60.1139C101.792 58.0328 103.42 56.0422 105.23 53.7802C105.411 53.5087 105.502 53.5087 105.592 53.5087C105.683 53.5087 105.773 53.5992 105.773 53.6897C105.773 53.7802 105.773 53.7802 105.683 53.9611C103.42 57.0375 100.977 59.3901 99.4392 60.5664C98.082 61.6521 93.5126 65.3619 89.2599 65.3619ZM127.648 45.0938C128.146 45.0938 129.594 45.3653 129.594 46.3153C129.594 48.0345 126.065 50.93 124.572 54.1873C123.622 56.3137 122.129 59.933 122.129 61.6521C122.129 63.1451 123.305 63.7785 124.21 63.7785C126.291 63.7785 130.001 62.195 132.534 60.1139C135.249 58.0328 136.877 56.0422 138.687 53.7802C138.868 53.5087 138.959 53.5087 139.049 53.5087C139.14 53.5087 139.23 53.5992 139.23 53.6897C139.23 53.7802 139.23 53.7802 139.14 53.9611C136.877 57.0375 134.434 59.3901 132.896 60.5664C129.458 63.4618 124.617 65.5881 121.903 65.5881C120.138 65.5881 118.871 64.6381 118.871 63.0094C118.871 60.4759 120.953 56.6304 122.174 54.0968C121.45 54.4588 120.274 54.6397 119.595 54.6397C118.736 54.6397 117.65 54.3683 117.65 54.3683C116.655 60.1139 110.547 65.4072 105.073 65.4072C101.68 65.3619 100.322 63.688 100.322 60.3401C100.322 55.997 105.209 49.0298 106.837 46.7225C107.109 46.3153 107.425 46.1796 107.742 46.1344C110.276 45.682 111.135 45.0938 112.13 45.0938C112.402 45.0938 112.447 45.2748 112.447 45.4558C112.447 45.6367 111.045 45.9082 109.733 47.6726C108.059 49.9347 103.851 55.9065 103.851 60.2497C103.851 62.7379 104.801 64.1857 107.018 64.1857C111.361 64.1857 114.8 58.3043 114.8 55.3184C114.8 54.5493 114.8 53.8254 114.166 53.1015C113.623 52.7396 112.13 51.7443 112.13 51.4729C112.13 50.93 112.809 50.8395 113.397 50.4775C114.438 49.8442 114.845 49.437 115.116 49.437C115.343 49.437 115.433 50.1609 115.659 50.4775C116.247 51.3371 117.65 53.6897 120.319 53.6897C121.088 53.6897 122.084 53.5087 122.581 53.2373C123.667 50.9752 126.201 45.0938 127.648 45.0938ZM160.705 46.632C159.801 46.632 158.489 46.7225 157.403 47.4464C157.131 47.6273 157.041 47.7178 156.95 47.7178C156.86 47.7178 156.769 47.6273 156.769 47.5369C156.769 47.4464 156.769 47.3559 157.041 47.1749C157.403 46.9035 160.479 44.6414 162.47 44.6414C164.732 44.6414 165.863 46.4963 165.863 48.306C165.863 50.9752 165.32 53.2825 162.741 57.309C165.501 54.9112 169.935 50.1156 172.559 46.9035C172.785 46.632 173.328 45.682 173.509 45.4558C173.961 44.9129 175.861 44.0985 176.766 44.0985C176.947 44.0985 177.038 44.189 177.038 44.2795C177.038 44.4605 176.54 45.1843 175.997 46.1796C172.197 52.6944 171.02 56.7661 168.668 61.8331C170.975 59.752 178.938 50.3871 184.186 46.632C186.629 44.8676 188.393 43.8271 189.524 43.8271C190.655 43.8271 191.47 44.8676 191.47 45.7272C191.47 46.3606 191.47 46.2701 190.203 47.2202C189.796 47.5369 189.253 47.8988 189.027 47.8988C188.936 47.8988 188.891 47.8988 188.891 47.8083C188.891 46.4511 188.076 45.8629 187.217 45.8629C186.312 45.8629 184.729 46.6773 183.145 48.7131C180.838 51.6538 178.621 56.5399 178.621 59.6615C178.621 63.3261 180.204 64.3214 182.602 64.3214C185.407 64.3214 189.343 62.6475 192.646 60.1139C195.36 58.0328 196.989 56.0422 198.799 53.7802C198.98 53.5087 199.07 53.5087 199.161 53.5087C199.251 53.5087 199.342 53.5992 199.342 53.6897C199.342 53.7802 199.342 53.7802 199.251 53.9611C196.989 57.0375 194.546 59.3448 193.008 60.5664C188.665 64.0047 184.231 66.131 180.793 66.131C178.169 66.131 175.409 65.0905 175.409 60.883C175.409 58.259 176.495 55.4088 178.123 52.9206C175.454 55.4088 171.292 59.7068 168.939 62.7832L167.356 65C166.994 65.4524 165.999 65.6334 165.094 65.9953C164.37 66.312 163.872 66.6287 163.646 66.6287C163.465 66.6287 163.375 66.4477 163.375 66.3572C163.375 66.0858 164.008 64.9095 171.971 48.9846L161.384 59.7973C158.896 62.2403 154.1 66.2668 153.014 66.2668C152.743 66.2668 152.607 66.0858 152.155 65.6786C151.702 65.2714 151.024 64.9095 151.024 64.3666C151.024 63.7785 154.191 63.0546 155.774 62.1498C157.72 61.0188 163.465 55.1826 163.465 50.1156C163.465 48.7131 162.244 46.632 160.705 46.632ZM198.491 53.5992C206.408 51.6991 207.449 48.9393 207.449 47.0844C207.449 46.4963 207.087 45.8177 206.272 45.8177C203.558 45.8177 200.572 49.5275 198.491 53.5992ZM199.079 65.7239C195.912 65.7239 192.971 64.0047 192.971 60.3401C192.971 52.0158 203.694 44.5962 208.353 44.5962C209.53 44.5962 210.706 45.3653 210.706 46.8582C210.706 48.0798 207.901 52.8753 198.084 54.5493C197.45 55.816 196.636 57.4899 196.636 60.2949C196.636 63.1903 198.581 64.5476 201.024 64.5476C204.055 64.5476 208.806 62.4665 211.882 60.1139C214.597 58.0328 216.225 56.0422 218.035 53.7802C218.216 53.5087 218.306 53.5087 218.397 53.5087C218.487 53.5087 218.578 53.5992 218.578 53.6897C218.578 53.7802 218.578 53.7802 218.487 53.9611C216.225 57.0375 213.782 59.3901 212.244 60.5664C208.806 63.3713 204.055 65.7239 199.079 65.7239ZM223.343 46.4058C223.343 48.3512 219.679 54.6397 219.679 54.6397C220.81 54.7302 221.624 54.7755 222.484 54.7755C224.882 54.7755 227.506 54.2778 230.13 53.1015C231.351 51.1109 233.885 47.3107 234.563 46.4058C235.332 45.3653 236.509 45.1391 237.549 44.9581C238.318 44.8224 239.133 44.5509 239.585 44.5509C239.766 44.5509 239.811 44.6414 239.811 44.7319C239.811 45.0033 238.59 45.32 236.011 48.7584C232.527 53.4182 229.451 59.0282 229.451 61.9236C229.451 63.4166 230.084 64.4119 231.894 64.4119C233.885 64.4119 237.097 62.4665 240.173 60.1139C242.888 58.0328 244.516 56.0422 246.326 53.7802C246.507 53.5087 246.597 53.5087 246.688 53.5087C246.778 53.5087 246.869 53.5992 246.869 53.6897C246.869 53.7802 246.869 53.7802 246.778 53.9611C244.516 57.0375 242.073 59.3901 240.535 60.5664C237.097 63.3713 233.523 66.0405 229.542 66.0405C227.008 66.0405 225.877 64.7738 225.877 62.7379C225.877 60.5664 227.279 57.8519 229.406 54.504C226.646 55.5898 224.158 55.997 218.865 56.2684C218.05 57.9876 214.838 63.4618 213.933 64.9548C213.617 65.4524 212.531 65.4977 211.355 65.6786C210.585 65.8143 210.088 66.312 209.816 66.312C209.635 66.312 209.545 66.2668 209.545 66.0858C209.545 65.9048 210.269 65.2262 211.535 63.1451C212.395 61.7879 214.024 59.0734 215.336 56.6304C215.155 55.3636 214.793 54.8207 214.793 54.4135C214.793 54.1873 215.064 53.9159 215.11 53.9159C215.426 53.9159 216.06 54.1421 216.693 54.1873C218.729 50.568 219.86 48.2607 219.86 46.9035C219.86 45.7272 219.498 45.4558 218.955 45.4558C218.05 45.4558 216.693 46.2701 215.607 46.994C215.336 47.1749 215.245 47.2654 215.155 47.2654C215.064 47.2654 214.974 47.1749 214.974 47.0844C214.974 46.994 214.974 46.9035 215.245 46.7225C215.607 46.4511 218.684 44.189 220.674 44.189C222.484 44.189 223.343 45.1391 223.343 46.4058ZM269.016 60.5664C265.578 63.4618 260.827 65.4977 258.113 65.4977C256.303 65.4977 255.263 64.3666 255.263 62.9641C255.263 62.0593 255.444 61.1092 255.896 59.933C254.177 61.5617 250.15 65.7691 245.4 65.7691C243.455 65.7691 240.966 64.7738 240.966 61.7426C240.966 57.3995 248.114 49.9347 248.114 46.9035C248.114 46.0891 248.024 45.4558 247.21 45.4558C245.943 45.4558 244.948 46.2701 243.862 46.994C243.59 47.1749 243.5 47.2654 243.409 47.2654C243.319 47.2654 243.228 47.1749 243.228 47.0844C243.228 46.994 243.228 46.9035 243.5 46.7225C244.948 45.7272 247.119 44.189 248.929 44.189C250.738 44.189 251.553 45.0033 251.553 46.7225C251.553 49.5275 244.586 57.6257 244.586 61.1092C244.586 62.9189 245.445 63.8237 247.481 63.8237C250.15 63.8237 253.815 61.064 256.62 58.3495C258.294 54.8207 261.28 49.3465 262.365 47.5369C263.18 46.1796 263.994 44.8676 264.628 44.8676C265.125 44.8676 266.754 45.3653 266.754 46.3153C266.754 47.7178 263.089 51.2014 261.28 54.4588C260.149 56.4946 258.52 59.0282 258.52 61.6974C258.52 62.8737 259.244 63.869 260.692 63.869C262.637 63.869 266.121 62.195 268.654 60.1139C271.368 58.0328 272.997 56.0422 274.807 53.7802C274.988 53.5087 275.078 53.5087 275.169 53.5087C275.259 53.5087 275.35 53.5992 275.35 53.6897C275.35 53.7802 275.35 53.7802 275.259 53.9611C272.997 57.0375 270.554 59.3901 269.016 60.5664ZM297.943 60.6116C297.943 62.195 298.395 63.688 300.657 63.688C303.372 63.688 306.493 62.0141 308.936 60.1139C311.651 58.0328 313.28 56.0422 315.089 53.7802C315.27 53.5087 315.361 53.5087 315.451 53.5087C315.542 53.5087 315.632 53.5992 315.632 53.6897C315.632 53.7802 315.632 53.7802 315.542 53.9611C313.28 57.0375 310.837 59.3901 309.298 60.5664C306.855 62.4665 302.603 65.2262 298.169 65.2262C295.636 65.2262 294.143 63.6428 294.143 61.5164C294.143 59.3448 295.228 57.0375 296.812 54.0064C295.59 55.4541 294.097 57.0828 292.061 59.2996C288.487 63.1903 285.547 65 283.375 65C281.837 65 280.615 64.2309 280.615 62.1046C280.615 59.933 281.385 56.6756 283.737 52.1515C282.561 53.7349 280.48 56.9923 278.082 59.5258C273.558 64.3214 270.3 65.181 269.124 65.181C267.676 65.181 266.138 64.7286 266.138 62.9189C266.138 60.9283 267.314 60.6116 268.4 59.7068C269.803 58.5305 270.436 57.7614 270.708 57.7614C270.753 57.7614 270.843 57.8066 270.843 57.8971C270.843 57.9876 270.708 58.2138 270.481 58.44C269.396 59.3901 268.853 60.3854 268.853 61.4712C268.853 62.6475 269.622 63.4618 270.798 63.4618C272.336 63.4618 275.367 61.4259 278.489 58.1233C281.656 54.7755 283.194 51.9253 284.597 49.7537C285.637 48.125 285.954 46.6773 286.949 45.7725C287.266 45.4558 288.352 44.9581 289.302 44.6414C289.845 44.4605 290.026 44.189 290.252 44.189C290.388 44.189 290.433 44.2795 290.433 44.4605C290.433 44.9129 289.076 46.813 287.854 49.3013C285.818 53.4635 284.416 58.3495 284.416 61.2902C284.416 62.6927 285.32 62.9189 285.773 62.9189C287.13 62.9189 289.211 61.5617 291.654 58.9377C293.192 57.309 296.45 53.554 298.486 50.4323C299.526 48.8036 300.522 46.6773 301.472 45.7272C301.788 45.4105 302.422 45.0938 303.372 44.7319C304.05 44.4605 305.091 44.2342 305.317 44.2342C305.498 44.2342 305.589 44.4152 305.589 44.6414C305.589 45.0938 303.462 46.813 302.195 49.3013C300.069 53.4635 297.943 57.6709 297.943 60.6116ZM329.8 60.5664C325.818 63.4618 321.747 65.9953 316.589 65.9953C313.151 65.9953 309.577 64.6381 309.577 60.0687C309.577 52.242 320.118 44.5962 325.004 44.5962C326.452 44.5962 327.357 45.682 327.357 47.2202C327.357 48.306 327.266 48.5774 325.638 49.4822C325.095 49.7537 324.642 49.9347 324.371 49.9347C324.28 49.9347 324.19 49.9347 324.19 49.8442C324.19 49.7537 324.371 49.4822 324.371 48.8489C324.371 47.1297 323.104 46.4058 322.29 46.4058C318.489 46.4058 313.287 54.6397 313.287 59.933C313.287 63.0546 314.87 64.819 318.218 64.819C321.837 64.819 325.999 62.6475 329.438 60.1139C332.152 58.0328 333.781 56.0422 335.591 53.7802C335.772 53.5087 335.862 53.5087 335.953 53.5087C336.043 53.5087 336.134 53.5992 336.134 53.6897C336.134 53.7802 336.134 53.7802 336.043 53.9611C333.781 57.0375 331.338 59.3901 329.8 60.5664ZM331.865 63.2808C333.403 63.2808 336.299 61.6069 339.24 58.1233C340.235 56.9471 340.642 55.9517 340.642 55.2279C340.642 54.866 340.461 54.504 340.144 54.2778C339.013 53.6897 337.566 52.7849 337.566 51.0204C337.566 46.2701 343.357 44.189 346.84 44.189C348.786 44.189 350.143 44.37 351.59 44.37C352.405 44.37 352.993 44.3247 354.35 44.3247C354.848 44.3247 355.074 44.37 355.074 44.5509C355.074 44.7319 354.712 44.8676 354.395 45.1391C354.26 45.2748 353.988 45.5462 353.445 46.2701C352.133 48.0798 350.233 51.0657 348.559 54.4588C347.157 57.309 346.252 60.1139 346.252 61.5164C346.252 62.7832 346.795 63.3713 347.971 63.3713C350.55 63.3713 354.622 61.3807 356.16 60.1139C358.874 58.0328 360.503 56.0422 362.313 53.7802C362.494 53.5087 362.584 53.5087 362.675 53.5087C362.765 53.5087 362.856 53.5992 362.856 53.6897C362.856 53.7802 362.856 53.7802 362.765 53.9611C360.503 57.0375 358.06 59.3901 356.522 60.5664C354.667 62.1498 348.876 65.2262 345.302 65.2262C343.673 65.2262 342.497 64.5023 342.497 62.8737C342.497 60.1592 344.126 56.8113 346.116 53.2825C347.881 50.1609 350.686 46.0439 350.686 45.4558C350.686 45.0033 349.871 44.9581 348.605 44.9581H347.293C343.628 44.9581 341.095 47.7178 341.095 50.2966C341.095 52.061 341.592 53.0563 342.814 53.4182C343.357 53.5992 344.397 53.554 344.397 53.8706C344.397 54.1421 344.035 54.2326 343.176 54.9112C342.452 55.4993 340.733 57.4447 338.832 59.5258C334.308 64.3214 331.503 65.181 330.146 65.181C328.201 65.181 326.798 63.5523 326.798 61.9236C326.798 61.5617 327.07 61.3355 327.386 61.1092C329.06 59.8877 330.191 58.7567 330.282 58.7567C330.463 58.7567 330.553 58.8472 330.553 59.0282C330.553 59.2091 330.237 59.3448 329.875 59.8877C329.694 60.1592 329.558 60.4759 329.558 61.064C329.558 62.1498 330.689 63.2808 331.865 63.2808Z" fill="black"/>
</svg>
