<svg width="362" height="486" viewBox="0 0 362 486" fill="none" xmlns="http://www.w3.org/2000/svg">
				<path d="M90.4417 38.3397C85.6005 38.3397 84.1142 35.9616 84.1142 32.8191C84.1142 28.9122 86.4499 23.9011 87.5115 20.9285C84.8786 24.3258 80.1223 30.5684 77.7018 32.7342C72.9455 36.9808 69.3783 38.3397 66.1933 38.3397C62.9234 38.3397 61.4371 35.5369 61.4371 31.9698C61.4371 27.9354 63.9001 22.0751 64.6645 20.1641C55.237 33.2438 50.0136 38.3397 45.9793 38.3397C43.856 38.3397 43.0916 36.6411 43.0916 35.0273C43.0916 34.6876 43.0916 34.2629 43.2614 34.0931C44.7902 32.904 46.5738 31.1204 46.6588 31.1204C46.8286 31.1204 46.9136 31.2054 46.9136 31.3752C46.9136 31.4602 46.319 31.8848 46.319 32.6492C46.319 34.2629 46.7437 35.1972 48.6547 35.1972C52.5616 35.1972 59.0165 26.8738 65.6413 15.7476L72.0537 3.51721C72.3085 2.92268 72.6482 2.58295 72.9455 2.32815C73.7948 1.47882 74.814 1.13909 75.1113 0.969221C76.1305 0.544556 76.6826 0.289756 77.1922 0.289756C77.4045 0.289756 77.6168 0.459622 77.7442 0.544556V0.629488V0.714423C77.7442 0.969221 77.6168 1.39389 77.2346 1.98842L72.6907 9.29265C69.6331 15.6626 65.6837 23.8587 65.6837 30.5684C65.6837 33.4561 66.5755 36.1315 69.1235 36.1315C70.9071 36.1315 74.7291 34.2629 77.7018 31.2478C80.7169 28.1902 83.4772 25.1327 88.9129 16.5969C91.4184 11.416 94.1363 7.08439 95.8774 4.11174C96.1322 3.60214 97.7884 0.884289 99.8268 0.884289C100.464 0.884289 101.441 1.47882 101.483 1.73362C101.483 2.32815 97.9583 6.10767 95.2829 11.331C92.4376 17.064 88.0636 24.6231 88.0636 31.3328C88.0636 34.2629 89.0828 36.7685 92.3952 36.7685C94.1788 36.7685 97.2788 35.1972 99.6569 33.4136C102.205 31.4602 103.734 29.5916 105.432 27.4683C105.602 27.2135 105.687 27.2135 105.772 27.2135C105.857 27.2135 105.942 27.2984 105.942 27.3834C105.942 27.4683 105.942 27.4683 105.857 27.6382C103.734 30.5259 101.441 32.7342 99.9967 33.8383C98.7227 34.8575 94.4336 38.3397 90.4417 38.3397ZM105.072 27.2984C112.504 25.5149 113.481 22.9244 113.481 21.1833C113.481 20.6312 113.141 19.9942 112.377 19.9942C109.829 19.9942 107.026 23.4765 105.072 27.2984ZM105.624 38.6795C102.652 38.6795 99.8915 37.0657 99.8915 33.626C99.8915 25.8121 109.956 18.8476 114.33 18.8476C115.434 18.8476 116.538 19.5695 116.538 20.9709C116.538 22.1175 113.905 26.619 104.69 28.1902C104.096 29.3793 103.331 30.9506 103.331 33.5835C103.331 36.3013 105.157 37.5753 107.451 37.5753C110.296 37.5753 114.755 35.6219 117.642 33.4136C120.19 31.4602 121.719 29.5916 123.418 27.4683C123.588 27.2135 123.673 27.2135 123.758 27.2135C123.843 27.2135 123.928 27.2984 123.928 27.3834C123.928 27.4683 123.928 27.4683 123.843 27.6382C121.719 30.5259 119.426 32.7342 117.982 33.8383C114.755 36.4712 110.296 38.6795 105.624 38.6795ZM137.234 33.8383C133.497 36.5561 129.675 38.9343 124.834 38.9343C121.606 38.9343 118.251 37.6603 118.251 33.3712C118.251 26.0245 128.146 18.8476 132.732 18.8476C134.091 18.8476 134.941 19.8668 134.941 21.3107C134.941 22.3299 134.856 22.5847 133.327 23.434C132.817 23.6888 132.393 23.8587 132.138 23.8587C132.053 23.8587 131.968 23.8587 131.968 23.7737C131.968 23.6888 132.138 23.434 132.138 22.8395C132.138 21.2257 130.949 20.5463 130.184 20.5463C126.617 20.5463 121.734 28.2752 121.734 33.2438C121.734 36.1739 123.22 37.8301 126.362 37.8301C129.76 37.8301 133.667 35.7917 136.894 33.4136C139.442 31.4602 140.971 29.5916 142.67 27.4683C142.839 27.2135 142.924 27.2135 143.009 27.2135C143.094 27.2135 143.179 27.2984 143.179 27.3834C143.179 27.4683 143.179 27.4683 143.094 27.6382C140.971 30.5259 138.678 32.7342 137.234 33.8383ZM147.623 20.5463C147.623 21.7778 147.029 23.2641 146.392 24.4532C147.666 23.3491 151.53 19.2723 153.951 19.2723C154.885 19.2723 155.522 20.0791 155.522 21.2682C155.522 22.8819 154.63 24.9203 154.63 24.9203C154.63 24.9203 160.406 18.975 164.483 18.975C165.842 18.975 166.988 19.8243 166.988 21.0983C166.988 24.6655 157.518 32.1396 157.518 43.2658C157.518 47.0878 159.557 51.4619 164.313 51.4619C169.027 51.4619 175.014 46.4084 177.562 42.6713C177.732 42.4165 177.817 42.4165 177.902 42.4165C177.987 42.4165 178.072 42.5014 178.072 42.5864C178.072 42.6713 178.072 42.6713 177.987 42.8412C174.335 47.7673 168.135 52.6934 162.784 52.6934C158.113 52.6934 154.63 49.0413 154.63 43.7754C154.63 33.6684 162.784 25.6423 162.784 22.2874C162.784 21.6929 162.444 21.1833 161.765 21.1833C159.387 21.1833 155.607 24.6655 153.696 26.6614C152.719 27.6806 151.658 28.9546 150.129 28.9546C150.044 28.9546 150.002 28.9122 150.002 28.8272C150.002 28.3601 150.596 28.3601 150.766 27.8505C150.766 27.8505 152.507 24.0285 152.507 22.6696C152.507 22.16 152.252 21.4805 151.53 21.4805C149.917 21.4805 147.496 23.9011 145.797 26.1943C143.674 28.9971 141.551 33.3287 139.427 37.6178C139.088 38.2973 137.899 37.8301 136.922 38.1699C136.115 38.4671 135.733 38.6795 135.521 38.6795C135.393 38.6795 135.308 38.5521 135.308 38.4671C135.308 38.3822 135.478 38.2548 135.69 37.9575C136.879 36.2164 140.107 30.5684 141.806 27.4683C143.547 24.3683 144.354 21.9901 144.354 21.0134C144.354 19.9093 144.014 19.6545 143.504 19.6545C142.655 19.6545 141.381 20.4189 140.362 21.0983C140.107 21.2682 140.022 21.3531 139.937 21.3531C139.852 21.3531 139.767 21.2682 139.767 21.1833C139.767 21.0983 139.767 21.0134 140.022 20.8435C140.362 20.5887 143.249 18.4654 145.118 18.4654C146.817 18.4654 147.623 19.3572 147.623 20.5463ZM183.253 18.8476C186.48 18.8476 188.519 21.0559 188.519 24.4532C188.519 32.2246 180.323 38.6795 173.91 38.6795C170.725 38.6795 168.475 36.3863 168.475 33.2013C168.475 25.897 176.84 18.8476 183.253 18.8476ZM182.021 19.7819C177.393 19.7819 172.084 27.0012 172.084 32.7342C172.084 35.4945 173.401 37.5753 175.227 37.5753C179.898 37.5753 185.079 30.2286 185.079 24.4957C185.079 21.7778 183.932 19.7819 182.021 19.7819ZM129.222 61.5463C129.222 62.3956 128.712 64.1367 127.863 65.6655C130.326 63.2874 135.125 59.8051 138.012 59.8051C139.796 59.8051 141.282 61.249 141.282 62.9477C141.282 66.5149 134.955 73.4794 134.955 76.5369C134.955 77.3863 135.464 78.1507 136.314 78.1507C138.862 78.1507 142.514 75.8575 144.382 74.4136C146.93 72.4602 148.459 70.5916 150.158 68.4683C150.328 68.2135 150.413 68.2135 150.498 68.2135C150.583 68.2135 150.667 68.2984 150.667 68.3834C150.667 68.4683 150.667 68.4683 150.583 68.6382C148.459 71.5259 146.166 73.7342 144.722 74.8383C140.391 78.3205 136.017 79.8493 133.978 79.8493C132.534 79.8493 131.43 78.9575 131.43 77.4287C131.43 73.267 137.715 66.6423 137.715 63.3299C137.715 62.0983 136.823 61.4189 136.017 61.4189C133.723 61.4189 130.751 63.6271 127.141 67.534L120.856 78.6603C120.559 79.1699 119.794 78.9575 118.69 79.1699C117.713 79.3822 117.331 79.637 116.992 79.637C116.907 79.637 116.822 79.5945 116.822 79.4671C116.822 79.3397 117.034 79.2973 117.331 78.8726C117.841 78.1507 118.648 76.7917 119.497 75.3479C120.686 73.3095 121.535 71.9506 123.404 68.4683C124.083 67.1943 125.952 63.1175 125.952 62.0134C125.952 60.9093 125.612 60.6545 125.103 60.6545C124.253 60.6545 122.979 61.4189 121.96 62.0983C121.705 62.2682 121.62 62.3531 121.535 62.3531C121.451 62.3531 121.366 62.2682 121.366 62.1833C121.366 62.0983 121.366 62.0134 121.62 61.8435C121.96 61.5887 124.848 59.4654 126.716 59.4654C128.415 59.4654 129.222 60.3572 129.222 61.5463ZM169.475 74.8383C165.144 78.3205 160.685 80.3589 158.137 80.3589C156.735 80.3589 155.419 79.5096 155.419 77.9808C155.419 72.7999 162.935 68.256 162.935 64.9436C162.935 62.8203 161.449 62.4805 160.685 62.4805C158.052 62.4805 153.083 67.1943 149.558 71.5259C149.558 71.5259 147.223 75.6451 145.779 78.3205C138.305 92.3345 135.077 99.5113 126.796 114.332C124.333 118.749 119.11 119.258 118.77 119.258C118.558 119.258 118.388 119.258 118.388 119.088C118.388 118.664 119.067 118.961 120.596 117.772C122.04 116.668 127.731 108.429 144.293 77.9808C148.454 70.3368 149.898 67.1094 149.898 65.3258C149.898 63.5847 149.516 62.9052 149.049 62.5655C148.836 62.3956 148.709 62.3531 148.709 62.2682C148.709 62.0983 149.134 61.9285 149.473 61.6737C150.493 60.9093 150.408 60.5695 151.172 60.5695C151.936 60.5695 152.616 61.5038 152.616 63.5422C152.616 64.9011 151.936 67.0245 151.257 68.2984C157.415 62.1833 161.449 59.8901 164.252 59.8901C165.101 59.8901 166.672 60.3997 166.672 62.8627C166.672 67.2792 158.391 73.8191 158.391 76.7917C158.391 78.2356 159.156 78.6603 160.26 78.6603C162.808 78.6603 167.267 75.8575 169.135 74.4136C171.683 72.4602 173.212 70.5916 174.911 68.4683C175.123 68.2135 175.166 68.2135 175.251 68.2135C175.336 68.2135 175.42 68.2984 175.42 68.3834C175.42 68.4683 175.463 68.4683 175.336 68.6382C173.212 71.5259 170.919 73.7342 169.475 74.8383ZM184.489 59.8476C187.716 59.8476 189.755 62.0559 189.755 65.4532C189.755 73.2246 181.559 79.6795 175.146 79.6795C171.961 79.6795 169.71 77.3863 169.71 74.2013C169.71 66.897 178.076 59.8476 184.489 59.8476ZM183.257 60.7819C178.628 60.7819 173.32 68.0012 173.32 73.7342C173.32 76.4945 174.636 78.5753 176.463 78.5753C181.134 78.5753 186.315 71.2286 186.315 65.4957C186.315 62.7778 185.168 60.7819 183.257 60.7819ZM211.139 64.9011C211.139 62.2257 208.761 61.5887 207.572 61.5887C205.746 61.5887 202.519 63.1175 199.249 66.4724C197.508 69.9122 195.427 73.3944 195.427 76.1123C195.427 77.9383 196.488 78.6178 197.89 78.6178C205.406 78.6178 211.139 70.082 211.139 64.9011ZM195.384 68.4683C202.306 55.6434 212.201 40.9076 212.201 34.7924C212.201 32.8814 211.437 31.6923 209.95 31.6923C208.931 31.6923 207.317 32.2019 205.704 33.5184C205.279 33.8581 205.024 34.1129 204.897 34.1129C204.769 34.1129 204.684 34.028 204.684 33.9006C204.684 33.7732 204.982 33.5184 205.491 33.0937C207.954 31.0978 210.375 30.1211 211.479 30.1211C213.602 30.1211 215.301 31.5649 215.301 33.9855C215.301 38.1897 208.974 48.5091 205.704 54.4119L200.056 64.6039C202.731 62.6079 206.765 59.8476 210.205 59.8476C212.371 59.8476 214.367 61.5463 214.367 64.1792C214.367 70.7615 205.831 79.6795 196.106 79.6795C193.813 79.6795 192.029 78.7877 192.029 76.2397C192.029 74.0739 194.365 70.3368 195.384 68.4683ZM222.079 68.2984C229.511 66.5149 230.488 63.9244 230.488 62.1833C230.488 61.6312 230.148 60.9942 229.383 60.9942C226.835 60.9942 224.033 64.4765 222.079 68.2984ZM222.631 79.6795C219.659 79.6795 216.898 78.0657 216.898 74.626C216.898 66.8121 226.963 59.8476 231.337 59.8476C232.441 59.8476 233.545 60.5695 233.545 61.9709C233.545 63.1175 230.912 67.619 221.697 69.1902C221.102 70.3793 220.338 71.9506 220.338 74.5835C220.338 77.3013 222.164 78.5753 224.457 78.5753C227.303 78.5753 231.762 76.6219 234.649 74.4136C237.197 72.4602 238.726 70.5916 240.425 68.4683C240.595 68.2135 240.68 68.2135 240.764 68.2135C240.849 68.2135 240.934 68.2984 240.934 68.3834C240.934 68.4683 240.934 68.4683 240.849 68.6382C238.726 71.5259 236.433 73.7342 234.989 74.8383C231.762 77.4712 227.303 79.6795 222.631 79.6795ZM217.974 115.351C213.473 115.351 208.716 111.742 208.716 106.094C208.716 93.4386 226.892 87.0686 236.872 83.9261C237.594 83.7138 238.74 83.3316 239.038 83.3316C239.292 83.3316 239.42 83.459 239.42 83.6288C239.42 84.096 238.57 84.2658 237.806 84.5206C228.676 87.4508 211.817 91.9098 211.817 104.862C211.817 109.916 215.596 113.653 220.48 113.653C226.298 113.653 230.842 107.962 234.961 100.828C240.057 91.9523 243.879 85.0302 251.947 71.5259H251.905C248.338 75.3054 242.86 79 238.486 79C236.022 79 234.876 77.1315 234.876 74.5835C234.876 68.4258 242.902 59.2955 248.932 59.2955C252.245 59.2955 254.453 61.9285 255.812 64.9011L256.067 64.3915C256.661 63.2025 256.873 63.5422 257.468 63.3723C257.553 63.3723 257.893 63.2025 258.063 63.2025C258.147 63.2025 258.317 63.3723 258.317 63.4573C258.317 63.6271 258.232 63.797 258.063 63.9669C257.723 64.3915 257.213 65.4957 256.619 66.5149C256.704 66.6847 256.873 67.1943 256.873 67.3642C256.873 67.534 256.789 67.7039 256.619 67.7039C256.534 67.7039 256.364 67.2792 256.279 67.1094C256.279 67.1943 238.316 100.531 238.316 100.531C234.961 106.731 226.467 115.351 217.974 115.351ZM255.472 65.4107C254.198 63.1175 252.075 60.8243 249.017 60.8243C244.813 60.8243 238.401 67.9587 238.401 74.6684C238.401 75.9424 239.42 77.4712 240.779 77.4712C245.62 77.4712 252.499 70.0396 252.584 69.9546C253.604 68.9354 254.623 67.0245 255.472 65.4107ZM263.884 68.2984C271.315 66.5149 272.292 63.9244 272.292 62.1833C272.292 61.6312 271.952 60.9942 271.188 60.9942C268.64 60.9942 265.837 64.4765 263.884 68.2984ZM264.436 79.6795C261.463 79.6795 258.703 78.0657 258.703 74.626C258.703 66.8121 268.767 59.8476 273.141 59.8476C274.246 59.8476 275.35 60.5695 275.35 61.9709C275.35 63.1175 272.717 67.619 263.502 69.1902C262.907 70.3793 262.143 71.9506 262.143 74.5835C262.143 77.3013 263.969 78.5753 266.262 78.5753C269.107 78.5753 273.566 76.6219 276.454 74.4136C279.002 72.4602 280.531 70.5916 282.229 68.4683C282.399 68.2135 282.484 68.2135 282.569 68.2135C282.654 68.2135 282.739 68.2984 282.739 68.3834C282.739 68.4683 282.739 68.4683 282.654 68.6382C280.531 71.5259 278.237 73.7342 276.794 74.8383C273.566 77.4712 269.107 79.6795 264.436 79.6795ZM287.212 61.5463C287.212 63.3723 283.772 69.2752 283.772 69.2752C284.834 69.3601 285.598 69.4026 286.405 69.4026C288.656 69.4026 291.119 68.9354 293.582 67.8313C294.729 65.9628 297.107 62.3956 297.744 61.5463C298.466 60.5695 299.57 60.3572 300.547 60.1873C301.269 60.0599 302.033 59.8051 302.458 59.8051C302.628 59.8051 302.67 59.8901 302.67 59.975C302.67 60.2298 301.523 60.5271 299.103 63.7545C295.833 68.1286 292.945 73.3944 292.945 76.1123C292.945 77.5137 293.54 78.4479 295.238 78.4479C297.107 78.4479 300.122 76.6219 303.01 74.4136C305.558 72.4602 307.086 70.5916 308.785 68.4683C308.955 68.2135 309.04 68.2135 309.125 68.2135C309.21 68.2135 309.295 68.2984 309.295 68.3834C309.295 68.4683 309.295 68.4683 309.21 68.6382C307.086 71.5259 304.793 73.7342 303.349 74.8383C300.122 77.4712 296.767 79.9767 293.03 79.9767C290.652 79.9767 289.59 78.7877 289.59 76.8767C289.59 74.8383 290.907 72.2903 292.903 69.1478C290.312 70.167 287.977 70.5492 283.008 70.804C282.244 72.4177 279.228 77.5561 278.379 78.9575C278.082 79.4247 277.063 79.4671 275.959 79.637C275.237 79.7644 274.769 80.2315 274.515 80.2315C274.345 80.2315 274.26 80.1891 274.26 80.0192C274.26 79.8493 274.939 79.2123 276.128 77.2589C276.935 75.9849 278.464 73.4369 279.696 71.1437C279.526 69.9546 279.186 69.445 279.186 69.0628C279.186 68.8505 279.441 68.5957 279.483 68.5957C279.781 68.5957 280.375 68.808 280.97 68.8505C282.881 65.4532 283.942 63.2874 283.942 62.0134C283.942 60.9093 283.603 60.6545 283.093 60.6545C282.244 60.6545 280.97 61.4189 279.95 62.0983C279.696 62.2682 279.611 62.3531 279.526 62.3531C279.441 62.3531 279.356 62.2682 279.356 62.1833C279.356 62.0983 279.356 62.0134 279.611 61.8435C279.95 61.5887 282.838 59.4654 284.707 59.4654C286.405 59.4654 287.212 60.3572 287.212 61.5463ZM330.083 74.8383C326.856 77.5561 322.397 79.4671 319.849 79.4671C318.15 79.4671 317.174 78.4055 317.174 77.089C317.174 76.2397 317.343 75.3479 317.768 74.2438C316.154 75.7725 312.375 79.7219 307.916 79.7219C306.09 79.7219 303.754 78.7877 303.754 75.9424C303.754 71.8656 310.464 64.8587 310.464 62.0134C310.464 61.249 310.379 60.6545 309.615 60.6545C308.426 60.6545 307.491 61.4189 306.472 62.0983C306.217 62.2682 306.132 62.3531 306.047 62.3531C305.962 62.3531 305.878 62.2682 305.878 62.1833C305.878 62.0983 305.878 62.0134 306.132 61.8435C307.491 60.9093 309.53 59.4654 311.228 59.4654C312.927 59.4654 313.691 60.2298 313.691 61.8435C313.691 64.4765 307.152 72.078 307.152 75.3479C307.152 77.0465 307.958 77.8959 309.869 77.8959C312.375 77.8959 315.815 75.3054 318.448 72.7574C320.019 69.445 322.822 64.3066 323.841 62.6079C324.605 61.3339 325.37 60.1024 325.964 60.1024C326.431 60.1024 327.96 60.5695 327.96 61.4613C327.96 62.7778 324.52 66.0477 322.822 69.1053C321.76 71.0163 320.231 73.3944 320.231 75.8999C320.231 77.0041 320.911 77.9383 322.27 77.9383C324.096 77.9383 327.366 76.3671 329.744 74.4136C332.292 72.4602 333.82 70.5916 335.519 68.4683C335.689 68.2135 335.774 68.2135 335.859 68.2135C335.944 68.2135 336.029 68.2984 336.029 68.3834C336.029 68.4683 336.029 68.4683 335.944 68.6382C333.82 71.5259 331.527 73.7342 330.083 74.8383ZM332.053 77.3863C333.497 77.3863 336.215 75.815 338.975 72.5451C339.91 71.441 340.292 70.5067 340.292 69.8272C340.292 69.4875 340.122 69.1478 339.825 68.9354C338.763 68.3834 337.404 67.534 337.404 65.8779C337.404 61.4189 342.84 59.4654 346.11 59.4654C347.936 59.4654 349.21 59.6353 350.569 59.6353C351.333 59.6353 351.885 59.5928 353.159 59.5928C353.626 59.5928 353.839 59.6353 353.839 59.8051C353.839 59.975 353.499 60.1024 353.202 60.3572C353.074 60.4846 352.82 60.7394 352.31 61.4189C351.078 63.1175 349.295 65.9203 347.724 69.1053C346.407 71.7807 345.558 74.4136 345.558 75.7301C345.558 76.9191 346.067 77.4712 347.172 77.4712C349.592 77.4712 353.414 75.6027 354.858 74.4136C357.406 72.4602 358.935 70.5916 360.633 68.4683C360.803 68.2135 360.888 68.2135 360.973 68.2135C361.058 68.2135 361.143 68.2984 361.143 68.3834C361.143 68.4683 361.143 68.4683 361.058 68.6382C358.935 71.5259 356.642 73.7342 355.198 74.8383C353.457 76.3246 348.021 79.2123 344.666 79.2123C343.137 79.2123 342.033 78.5329 342.033 77.0041C342.033 74.4561 343.562 71.3136 345.43 68.0012C347.087 65.071 349.72 61.2065 349.72 60.6545C349.72 60.2298 348.955 60.1873 347.766 60.1873H346.535C343.095 60.1873 340.717 62.7778 340.717 65.1984C340.717 66.8546 341.184 67.7888 342.33 68.1286C342.84 68.2984 343.817 68.256 343.817 68.5532C343.817 68.808 343.477 68.893 342.67 69.53C341.991 70.082 340.377 71.9081 338.593 73.8616C334.347 78.363 331.714 79.1699 330.44 79.1699C328.614 79.1699 327.297 77.6411 327.297 76.1123C327.297 75.7725 327.552 75.5602 327.849 75.3479C329.421 74.2013 330.482 73.1396 330.567 73.1396C330.737 73.1396 330.822 73.2246 330.822 73.3944C330.822 73.5643 330.525 73.6917 330.185 74.2013C330.015 74.4561 329.888 74.7534 329.888 75.3054C329.888 76.3246 330.949 77.3863 332.053 77.3863Z" fill="black"/>
				
				<path d="M-172.09 33.96V36.56C-173.737 36.9067 -175.557 37.9033 -177.55 39.55C-179.543 41.11 -181.147 43.8833 -182.36 47.87L-206.93 126.65C-207.103 126.65 -207.277 126.65 -207.45 126.65C-207.623 126.65 -207.797 126.65 -207.97 126.65C-208.143 126.65 -208.317 126.65 -208.49 126.65C-208.663 126.65 -208.837 126.65 -209.01 126.65L-236.57 44.88C-237.697 41.5 -238.953 39.29 -240.34 38.25C-241.727 37.21 -243.027 36.6467 -244.24 36.56V33.96C-242.68 34.0467 -240.73 34.1333 -238.39 34.22C-236.05 34.3067 -233.797 34.35 -231.63 34.35C-228.25 34.35 -225.087 34.3067 -222.14 34.22C-219.193 34.1333 -216.81 34.0467 -214.99 33.96V36.56C-217.59 36.6467 -219.67 36.9067 -221.23 37.34C-222.703 37.7733 -223.57 38.7267 -223.83 40.2C-224.003 41.6733 -223.57 44.1 -222.53 47.48L-203.16 107.41L-204.98 108.97L-187.82 55.02C-186.26 50.2533 -185.567 46.57 -185.74 43.97C-185.827 41.2833 -186.78 39.42 -188.6 38.38C-190.42 37.2533 -193.15 36.6467 -196.79 36.56V33.96C-194.277 34.0467 -191.72 34.1333 -189.12 34.22C-186.52 34.3067 -184.093 34.35 -181.84 34.35C-179.587 34.35 -177.723 34.3067 -176.25 34.22C-174.777 34.1333 -173.39 34.0467 -172.09 33.96ZM-262.96 33.96V36.56C-265.213 36.7333 -266.86 37.1667 -267.9 37.86C-268.853 38.5533 -269.33 39.68 -269.33 41.24C-269.243 42.7133 -268.767 44.7933 -267.9 47.48L-247.75 108.97L-251 112.22L-232.8 54.11L-230.85 57.23L-252.3 126.65C-252.473 126.65 -252.647 126.65 -252.82 126.65C-252.993 126.65 -253.167 126.65 -253.34 126.65C-253.513 126.65 -253.687 126.65 -253.86 126.65C-254.033 126.65 -254.207 126.65 -254.38 126.65L-281.94 44.88C-283.067 41.5 -284.497 39.29 -286.23 38.25C-287.963 37.21 -289.523 36.6467 -290.91 36.56V33.96C-289.177 34.0467 -287.053 34.1333 -284.54 34.22C-281.94 34.3067 -279.427 34.35 -277 34.35C-274.14 34.35 -271.497 34.3067 -269.07 34.22C-266.557 34.1333 -264.52 34.0467 -262.96 33.96ZM-101.984 33.96C-102.331 36.9933 -102.591 39.94 -102.764 42.8C-102.851 45.66 -102.894 47.8267 -102.894 49.3C-102.894 50.86 -102.851 52.3767 -102.764 53.85C-102.678 55.2367 -102.591 56.4067 -102.504 57.36H-105.494C-106.014 52.2467 -106.751 48.2167 -107.704 45.27C-108.658 42.2367 -110.304 40.1133 -112.644 38.9C-114.898 37.6 -118.321 36.95 -122.914 36.95H-133.704C-136.651 36.95 -138.904 37.21 -140.464 37.73C-141.938 38.1633 -142.934 39.16 -143.454 40.72C-143.974 42.1933 -144.234 44.5333 -144.234 47.74V112.22C-144.234 115.34 -143.974 117.68 -143.454 119.24C-142.934 120.8 -141.938 121.84 -140.464 122.36C-138.904 122.793 -136.651 123.01 -133.704 123.01H-124.214C-118.754 123.01 -114.638 122.273 -111.864 120.8C-109.004 119.327 -106.968 116.943 -105.754 113.65C-104.454 110.27 -103.501 105.72 -102.894 100H-99.9044C-100.164 102.34 -100.294 105.46 -100.294 109.36C-100.294 111.007 -100.251 113.39 -100.164 116.51C-99.9911 119.543 -99.7311 122.707 -99.3844 126C-103.804 125.827 -108.788 125.74 -114.334 125.74C-119.881 125.653 -124.821 125.61 -129.154 125.61C-131.061 125.61 -133.531 125.61 -136.564 125.61C-139.511 125.61 -142.718 125.653 -146.184 125.74C-149.651 125.74 -153.161 125.783 -156.714 125.87C-160.268 125.87 -163.648 125.913 -166.854 126V123.4C-163.908 123.227 -161.698 122.88 -160.224 122.36C-158.664 121.84 -157.624 120.8 -157.104 119.24C-156.584 117.68 -156.324 115.34 -156.324 112.22V47.74C-156.324 44.5333 -156.584 42.1933 -157.104 40.72C-157.624 39.16 -158.664 38.12 -160.224 37.6C-161.698 36.9933 -163.908 36.6467 -166.854 36.56V33.96C-163.648 34.0467 -160.268 34.1333 -156.714 34.22C-153.161 34.22 -149.651 34.2633 -146.184 34.35C-142.718 34.35 -139.511 34.35 -136.564 34.35C-133.531 34.35 -131.061 34.35 -129.154 34.35C-125.168 34.35 -120.661 34.35 -115.634 34.35C-110.521 34.2633 -105.971 34.1333 -101.984 33.96ZM-124.344 78.42C-124.344 78.42 -124.344 78.8533 -124.344 79.72C-124.344 80.5867 -124.344 81.02 -124.344 81.02H-148.134C-148.134 81.02 -148.134 80.5867 -148.134 79.72C-148.134 78.8533 -148.134 78.42 -148.134 78.42H-124.344ZM-120.574 61.26C-120.921 66.2 -121.094 69.97 -121.094 72.57C-121.008 75.17 -120.964 77.5533 -120.964 79.72C-120.964 81.8867 -120.921 84.27 -120.834 86.87C-120.748 89.47 -120.531 93.24 -120.184 98.18H-123.174C-123.521 95.4067 -123.954 92.72 -124.474 90.12C-124.908 87.4333 -125.948 85.2667 -127.594 83.62C-129.154 81.8867 -131.841 81.02 -135.654 81.02V78.42C-132.794 78.42 -130.628 77.8567 -129.154 76.73C-127.594 75.5167 -126.468 74 -125.774 72.18C-125.081 70.36 -124.604 68.4967 -124.344 66.59C-124.084 64.5967 -123.824 62.82 -123.564 61.26H-120.574ZM-52.1457 33.96C-36.6324 33.96 -25.1057 37.86 -17.5657 45.66C-10.0257 53.3733 -6.2557 64.4667 -6.2557 78.94C-6.2557 88.3867 -8.11903 96.6633 -11.8457 103.77C-15.4857 110.79 -20.8157 116.25 -27.8357 120.15C-34.8557 124.05 -43.349 126 -53.3157 126C-54.6157 126 -56.349 125.957 -58.5157 125.87C-60.6824 125.783 -62.9357 125.74 -65.2757 125.74C-67.529 125.653 -69.609 125.61 -71.5157 125.61C-74.549 125.61 -77.539 125.653 -80.4857 125.74C-83.4324 125.74 -85.8157 125.827 -87.6357 126V123.4C-84.689 123.227 -82.479 122.88 -81.0057 122.36C-79.4457 121.84 -78.4057 120.8 -77.8857 119.24C-77.3657 117.68 -77.1057 115.34 -77.1057 112.22V47.74C-77.1057 44.5333 -77.3657 42.1933 -77.8857 40.72C-78.4057 39.16 -79.4457 38.12 -81.0057 37.6C-82.479 36.9933 -84.689 36.6467 -87.6357 36.56V33.96C-85.8157 34.0467 -83.4324 34.1767 -80.4857 34.35C-77.539 34.4367 -74.6357 34.4367 -71.7757 34.35C-68.7424 34.2633 -65.319 34.1767 -61.5057 34.09C-57.6924 34.0033 -54.5724 33.96 -52.1457 33.96ZM-55.3957 36.3C-59.3824 36.3 -61.9824 37.0367 -63.1957 38.51C-64.409 39.9833 -65.0157 42.9733 -65.0157 47.48V112.48C-65.0157 116.987 -64.409 119.977 -63.1957 121.45C-61.8957 122.923 -59.2524 123.66 -55.2657 123.66C-45.819 123.66 -38.4957 121.97 -33.2957 118.59C-28.0957 115.123 -24.4557 110.097 -22.3757 103.51C-20.2957 96.9233 -19.2557 88.9067 -19.2557 79.46C-19.2557 69.7533 -20.4257 61.7367 -22.7657 55.41C-25.019 48.9967 -28.789 44.23 -34.0757 41.11C-39.2757 37.9033 -46.3824 36.3 -55.3957 36.3ZM40.657 33.96C56.1704 33.96 67.697 37.86 75.237 45.66C82.777 53.3733 86.547 64.4667 86.547 78.94C86.547 88.3867 84.6837 96.6633 80.957 103.77C77.317 110.79 71.987 116.25 64.967 120.15C57.947 124.05 49.4537 126 39.487 126C38.187 126 36.4537 125.957 34.287 125.87C32.1204 125.783 29.867 125.74 27.527 125.74C25.2737 125.653 23.1937 125.61 21.287 125.61C18.2537 125.61 15.2637 125.653 12.317 125.74C9.37036 125.74 6.98703 125.827 5.16703 126V123.4C8.1137 123.227 10.3237 122.88 11.797 122.36C13.357 121.84 14.397 120.8 14.917 119.24C15.437 117.68 15.697 115.34 15.697 112.22V47.74C15.697 44.5333 15.437 42.1933 14.917 40.72C14.397 39.16 13.357 38.12 11.797 37.6C10.3237 36.9933 8.1137 36.6467 5.16703 36.56V33.96C6.98703 34.0467 9.37036 34.1767 12.317 34.35C15.2637 34.4367 18.167 34.4367 21.027 34.35C24.0604 34.2633 27.4837 34.1767 31.297 34.09C35.1104 34.0033 38.2304 33.96 40.657 33.96ZM37.407 36.3C33.4204 36.3 30.8204 37.0367 29.607 38.51C28.3937 39.9833 27.787 42.9733 27.787 47.48V112.48C27.787 116.987 28.3937 119.977 29.607 121.45C30.907 122.923 33.5504 123.66 37.537 123.66C46.9837 123.66 54.307 121.97 59.507 118.59C64.707 115.123 68.347 110.097 70.427 103.51C72.507 96.9233 73.547 88.9067 73.547 79.46C73.547 69.7533 72.377 61.7367 70.037 55.41C67.7837 48.9967 64.0137 44.23 58.727 41.11C53.527 37.9033 46.4204 36.3 37.407 36.3ZM131.12 33.96V36.56C128.173 36.6467 125.92 36.9933 124.36 37.6C122.886 38.12 121.89 39.16 121.37 40.72C120.85 42.1933 120.59 44.5333 120.59 47.74V112.22C120.59 115.34 120.85 117.68 121.37 119.24C121.89 120.8 122.886 121.84 124.36 122.36C125.92 122.88 128.173 123.227 131.12 123.4V126C129.126 125.827 126.613 125.74 123.58 125.74C120.633 125.653 117.643 125.61 114.61 125.61C111.23 125.61 108.066 125.653 105.12 125.74C102.173 125.74 99.7898 125.827 97.9698 126V123.4C100.916 123.227 103.126 122.88 104.6 122.36C106.16 121.84 107.2 120.8 107.72 119.24C108.24 117.68 108.5 115.34 108.5 112.22V47.74C108.5 44.5333 108.24 42.1933 107.72 40.72C107.2 39.16 106.16 38.12 104.6 37.6C103.126 36.9933 100.916 36.6467 97.9698 36.56V33.96C99.7898 34.0467 102.173 34.1333 105.12 34.22C108.066 34.3067 111.23 34.35 114.61 34.35C117.643 34.35 120.633 34.3067 123.58 34.22C126.613 34.1333 129.126 34.0467 131.12 33.96ZM223.663 33.96V36.56C220.716 36.6467 218.463 37.08 216.903 37.86C215.429 38.64 214.433 39.8967 213.913 41.63C213.393 43.3633 213.133 45.8333 213.133 49.04V126.65C212.613 126.65 212.093 126.65 211.573 126.65C211.139 126.65 210.663 126.65 210.143 126.65L155.543 42.28V110.92C155.543 114.04 155.803 116.51 156.323 118.33C156.929 120.063 158.056 121.32 159.703 122.1C161.436 122.793 163.993 123.227 167.373 123.4V126C165.813 125.827 163.776 125.74 161.263 125.74C158.749 125.653 156.366 125.61 154.113 125.61C151.946 125.61 149.736 125.653 147.483 125.74C145.316 125.74 143.496 125.827 142.023 126V123.4C144.969 123.227 147.179 122.793 148.653 122.1C150.213 121.32 151.253 120.063 151.773 118.33C152.293 116.51 152.553 114.04 152.553 110.92V47.74C152.553 44.5333 152.293 42.1933 151.773 40.72C151.253 39.16 150.213 38.12 148.653 37.6C147.179 36.9933 144.969 36.6467 142.023 36.56V33.96C143.496 34.0467 145.316 34.1333 147.483 34.22C149.736 34.3067 151.946 34.35 154.113 34.35C156.019 34.35 157.839 34.3067 159.573 34.22C161.306 34.1333 162.866 34.0467 164.253 33.96L210.143 104.68V49.04C210.143 45.8333 209.839 43.3633 209.233 41.63C208.713 39.8967 207.586 38.64 205.853 37.86C204.206 37.08 201.693 36.6467 198.313 36.56V33.96C199.873 34.0467 201.909 34.1333 204.423 34.22C207.023 34.3067 209.406 34.35 211.573 34.35C213.826 34.35 216.036 34.3067 218.203 34.22C220.456 34.1333 222.276 34.0467 223.663 33.96ZM276.341 32.14C281.974 32.14 286.524 33.0067 289.991 34.74C293.458 36.3867 296.708 38.3367 299.741 40.59C300.868 41.4567 301.734 41.89 302.341 41.89C303.988 41.89 305.071 39.2467 305.591 33.96H308.581C308.408 37.1667 308.278 41.0667 308.191 45.66C308.104 50.2533 308.061 56.32 308.061 63.86H305.071C304.464 60.22 303.728 56.71 302.861 53.33C301.994 49.95 300.564 47.0467 298.571 44.62C296.058 41.4133 292.764 38.9433 288.691 37.21C284.618 35.39 280.414 34.48 276.081 34.48C271.748 34.48 267.804 35.5633 264.251 37.73C260.784 39.81 257.794 42.8433 255.281 46.83C252.768 50.8167 250.818 55.6267 249.431 61.26C248.131 66.8067 247.481 73.09 247.481 80.11C247.481 95.71 249.994 107.15 255.021 114.43C260.048 121.623 267.848 125.22 278.421 125.22C281.541 125.22 284.228 124.787 286.481 123.92C288.821 122.967 290.641 122.057 291.941 121.19C293.588 120.063 294.628 119.023 295.061 118.07C295.494 117.03 295.711 115.687 295.711 114.04V101.56C295.711 98.0067 295.364 95.3633 294.671 93.63C293.978 91.8967 292.678 90.7267 290.771 90.12C288.951 89.5133 286.221 89.1667 282.581 89.08V86.48C284.141 86.5667 285.961 86.6533 288.041 86.74C290.121 86.74 292.288 86.7833 294.541 86.87C296.881 86.87 299.004 86.87 300.911 86.87C303.771 86.87 306.328 86.8267 308.581 86.74C310.921 86.6533 312.871 86.5667 314.431 86.48V89.08C312.524 89.1667 311.094 89.47 310.141 89.99C309.188 90.51 308.538 91.55 308.191 93.11C307.931 94.67 307.801 97.0533 307.801 100.26V126H305.201C305.114 124.527 304.768 122.923 304.161 121.19C303.641 119.457 302.818 118.59 301.691 118.59C301.171 118.59 300.651 118.72 300.131 118.98C299.611 119.24 298.701 119.847 297.401 120.8C294.541 122.967 291.508 124.7 288.301 126C285.094 127.213 281.368 127.82 277.121 127.82C268.194 127.82 260.524 126 254.111 122.36C247.784 118.633 242.931 113.303 239.551 106.37C236.171 99.4367 234.481 91.16 234.481 81.54C234.481 71.4 236.301 62.6467 239.941 55.28C243.581 47.9133 248.521 42.2367 254.761 38.25C261.088 34.1767 268.281 32.14 276.341 32.14Z" fill="black" fill-opacity="0.1"/>
				</svg>