<svg width="345" height="78" viewBox="0 0 345 78" fill="none" xmlns="http://www.w3.org/2000/svg">
<path d="M26.4023 43.3646V32.4542H20.3207L20.2118 35.5403C20.1755 36.4964 20.115 37.4162 20.0303 38.2997C19.9577 39.1711 19.8366 39.9577 19.6672 40.6597C19.5099 41.3495 19.292 41.9123 19.0137 42.348C18.7474 42.7837 18.3964 43.0378 17.9607 43.1105L16.4903 42.8382C16.9744 42.8624 17.3738 42.6869 17.6884 42.3117C18.0152 41.9365 18.2633 41.4101 18.4327 40.7323C18.6143 40.0546 18.7474 39.2618 18.8321 38.3542C18.9168 37.4465 18.9773 36.4662 19.0137 35.4132L19.1589 31.2923H27.7275V43.3646H26.4023ZM16.0183 46.8502L16.0364 42.8382H29.6337V46.8502H28.381V44H17.289L17.2709 46.8502H16.0183ZM30.141 43.9818L30.2317 42.8745C30.3165 42.8866 30.3951 42.9047 30.4677 42.9289C30.5525 42.941 30.6251 42.9471 30.6856 42.9471C31.0729 42.9471 31.3815 42.8018 31.6114 42.5114C31.8535 42.2209 32.035 41.8336 32.156 41.3495C32.2771 40.8654 32.3618 40.3208 32.4102 39.7157C32.4586 39.0985 32.501 38.4812 32.5373 37.864L32.7007 34.4692H39.6899V44H38.401V35.2135L38.7277 35.5948H33.5357L33.8443 35.1954L33.6991 37.9548C33.6628 38.7777 33.5962 39.5644 33.4994 40.3148C33.4147 41.0651 33.2755 41.7247 33.0819 42.2935C32.9003 42.8624 32.6462 43.3102 32.3194 43.6369C31.9927 43.9516 31.5751 44.1089 31.0668 44.1089C30.9216 44.1089 30.7703 44.0968 30.613 44.0726C30.4677 44.0484 30.3104 44.0182 30.141 43.9818ZM49.3266 44V40.5689L49.5626 40.8412H46.3312C45.1089 40.8412 44.1528 40.575 43.4629 40.0425C42.7731 39.5099 42.4281 38.7354 42.4281 37.7188C42.4281 36.6295 42.7973 35.8187 43.5355 35.2862C44.2738 34.7415 45.2601 34.4692 46.4946 34.4692H50.5066V44H49.3266ZM42.3555 44L44.9697 40.3329H46.3131L43.7534 44H42.3555ZM49.3266 40.1877V35.2135L49.5626 35.5948H46.5309C45.6474 35.5948 44.9576 35.7642 44.4614 36.1031C43.9773 36.4419 43.7352 36.9926 43.7352 37.7551C43.7352 39.1711 44.6369 39.8791 46.4401 39.8791H49.5626L49.3266 40.1877ZM58.5699 44V34.4692H59.877L64.1976 41.7852H63.653L68.0462 34.4692H69.2444V44H68.0644V35.9397L68.3004 36.0486L64.1976 42.8382H63.6167L59.4776 35.976L59.7499 35.9215V44H58.5699ZM72.894 47.6126C72.4462 47.6126 72.0165 47.54 71.6051 47.3948C71.2057 47.2495 70.8608 47.0317 70.5703 46.7412L71.1694 45.7791C71.4114 46.009 71.6716 46.1845 71.95 46.3055C72.2404 46.4387 72.5612 46.5052 72.9121 46.5052C73.3357 46.5052 73.6988 46.3842 74.0014 46.1422C74.316 45.9122 74.6125 45.5007 74.8909 44.9077L75.5081 43.5098L75.6534 43.3102L79.5746 34.4692H80.8454L76.0709 45.1437C75.8047 45.7609 75.5081 46.2511 75.1814 46.6142C74.8667 46.9772 74.5218 47.2314 74.1466 47.3766C73.7714 47.5339 73.3539 47.6126 72.894 47.6126ZM75.4355 44.2723L71.0423 34.4692H72.3857L76.2706 43.2194L75.4355 44.2723ZM93.4322 44L90.1645 39.28L91.2356 38.6446L94.9753 44H93.4322ZM88.0224 39.752V38.6446H91.0359V39.752H88.0224ZM91.3627 39.3708L90.1282 39.1892L93.3051 34.4692H94.703L91.3627 39.3708ZM82.1405 44H80.5975L84.3371 38.6446L85.3901 39.28L82.1405 44ZM88.4218 44H87.1328V34.4692H88.4218V44ZM87.5322 39.752H84.5368V38.6446H87.5322V39.752ZM84.2282 39.3708L80.8698 34.4692H82.2676L85.4264 39.1892L84.2282 39.3708ZM102.789 39.9698C102.232 40.2119 101.669 40.4055 101.101 40.5508C100.544 40.6839 99.9871 40.7505 99.4304 40.7505C98.3048 40.7505 97.4153 40.4963 96.7618 39.988C96.1082 39.4676 95.7814 38.6688 95.7814 37.5917V34.4692H97.0522V37.5191C97.0522 38.2452 97.2882 38.7898 97.7602 39.1529C98.2322 39.516 98.8676 39.6975 99.6664 39.6975C100.15 39.6975 100.659 39.637 101.191 39.516C101.724 39.3829 102.262 39.1953 102.807 38.9532L102.789 39.9698ZM102.68 44V34.4692H103.969V44H102.68ZM107.448 44V34.4692H108.737V42.0394L115.109 34.4692H116.252V44H114.963V36.4117L108.61 44H107.448ZM119.765 44V34.4692H121.054V38.6809H127.063V34.4692H128.351V44H127.063V39.7883H121.054V44H119.765Z" fill="black"/>
<rect x="0.4" y="0.4" width="344.2" height="77.2" rx="38.6" stroke="#717171" stroke-width="0.8"/>
<circle cx="230.297" cy="39.3003" r="27.2965" fill="#131949"/>
<circle cx="263.478" cy="39.1009" r="26.7549" fill="white" stroke="#C8C8C8" stroke-width="1.08338"/>
<circle cx="290.703" cy="39.1009" r="27.2965" fill="black"/>
</svg>
