<svg width="347" height="104" viewBox="0 0 347 104" fill="none" xmlns="http://www.w3.org/2000/svg">
				<path d="M127.98 2.88V5.68C126.207 6.05333 124.247 7.12666 122.1 8.9C119.953 10.58 118.227 13.5667 116.92 17.86L90.46 102.7C90.2733 102.7 90.0867 102.7 89.9 102.7C89.7133 102.7 89.5267 102.7 89.34 102.7C89.1533 102.7 88.9667 102.7 88.78 102.7C88.5933 102.7 88.4067 102.7 88.22 102.7L58.54 14.64C57.3267 11 55.9733 8.62 54.48 7.5C52.9867 6.38 51.5867 5.77333 50.28 5.68V2.88C51.96 2.97333 54.06 3.06666 56.58 3.16C59.1 3.25333 61.5267 3.29999 63.86 3.29999C67.5 3.29999 70.9067 3.25333 74.08 3.16C77.2533 3.06666 79.82 2.97333 81.78 2.88V5.68C78.98 5.77333 76.74 6.05333 75.06 6.51999C73.4733 6.98666 72.54 8.01333 72.26 9.6C72.0733 11.1867 72.54 13.8 73.66 17.44L94.52 81.98L92.56 83.66L111.04 25.56C112.72 20.4267 113.467 16.46 113.28 13.66C113.187 10.7667 112.16 8.75999 110.2 7.64C108.24 6.42666 105.3 5.77333 101.38 5.68V2.88C104.087 2.97333 106.84 3.06666 109.64 3.16C112.44 3.25333 115.053 3.29999 117.48 3.29999C119.907 3.29999 121.913 3.25333 123.5 3.16C125.087 3.06666 126.58 2.97333 127.98 2.88ZM30.12 2.88V5.68C27.6933 5.86666 25.92 6.33333 24.8 7.08C23.7733 7.82666 23.26 9.04 23.26 10.72C23.3533 12.3067 23.8667 14.5467 24.8 17.44L46.5 83.66L43 87.16L62.6 24.58L64.7 27.94L41.6 102.7C41.4133 102.7 41.2267 102.7 41.04 102.7C40.8533 102.7 40.6667 102.7 40.48 102.7C40.2933 102.7 40.1067 102.7 39.92 102.7C39.7333 102.7 39.5467 102.7 39.36 102.7L9.68 14.64C8.46667 11 6.92667 8.62 5.06 7.5C3.19333 6.38 1.51333 5.77333 0.02 5.68V2.88C1.88667 2.97333 4.17333 3.06666 6.88 3.16C9.68 3.25333 12.3867 3.29999 15 3.29999C18.08 3.29999 20.9267 3.25333 23.54 3.16C26.2467 3.06666 28.44 2.97333 30.12 2.88ZM203.478 2.88C203.105 6.14666 202.825 9.31999 202.638 12.4C202.545 15.48 202.498 17.8133 202.498 19.4C202.498 21.08 202.545 22.7133 202.638 24.3C202.732 25.7933 202.825 27.0533 202.918 28.08H199.698C199.138 22.5733 198.345 18.2333 197.318 15.06C196.292 11.7933 194.518 9.50666 191.998 8.2C189.572 6.79999 185.885 6.09999 180.938 6.09999H169.318C166.145 6.09999 163.718 6.37999 162.038 6.94C160.452 7.40666 159.378 8.48 158.818 10.16C158.258 11.7467 157.978 14.2667 157.978 17.72V87.16C157.978 90.52 158.258 93.04 158.818 94.72C159.378 96.4 160.452 97.52 162.038 98.08C163.718 98.5467 166.145 98.78 169.318 98.78H179.538C185.418 98.78 189.852 97.9867 192.838 96.4C195.918 94.8133 198.112 92.2467 199.418 88.7C200.818 85.06 201.845 80.16 202.498 74H205.718C205.438 76.52 205.298 79.88 205.298 84.08C205.298 85.8533 205.345 88.42 205.438 91.78C205.625 95.0467 205.905 98.4533 206.278 102C201.518 101.813 196.152 101.72 190.178 101.72C184.205 101.627 178.885 101.58 174.218 101.58C172.165 101.58 169.505 101.58 166.238 101.58C163.065 101.58 159.612 101.627 155.878 101.72C152.145 101.72 148.365 101.767 144.538 101.86C140.712 101.86 137.072 101.907 133.618 102V99.2C136.792 99.0133 139.172 98.64 140.758 98.08C142.438 97.52 143.558 96.4 144.118 94.72C144.678 93.04 144.958 90.52 144.958 87.16V17.72C144.958 14.2667 144.678 11.7467 144.118 10.16C143.558 8.48 142.438 7.36 140.758 6.8C139.172 6.14666 136.792 5.77333 133.618 5.68V2.88C137.072 2.97333 140.712 3.06666 144.538 3.16C148.365 3.16 152.145 3.20666 155.878 3.29999C159.612 3.29999 163.065 3.29999 166.238 3.29999C169.505 3.29999 172.165 3.29999 174.218 3.29999C178.512 3.29999 183.365 3.29999 188.778 3.29999C194.285 3.20666 199.185 3.06666 203.478 2.88ZM179.398 50.76C179.398 50.76 179.398 51.2267 179.398 52.16C179.398 53.0933 179.398 53.56 179.398 53.56H153.778C153.778 53.56 153.778 53.0933 153.778 52.16C153.778 51.2267 153.778 50.76 153.778 50.76H179.398ZM183.458 32.28C183.085 37.6 182.898 41.66 182.898 44.46C182.992 47.26 183.038 49.8267 183.038 52.16C183.038 54.4933 183.085 57.06 183.178 59.86C183.272 62.66 183.505 66.72 183.878 72.04H180.658C180.285 69.0533 179.818 66.16 179.258 63.36C178.792 60.4667 177.672 58.1333 175.898 56.36C174.218 54.4933 171.325 53.56 167.218 53.56V50.76C170.298 50.76 172.632 50.1533 174.218 48.94C175.898 47.6333 177.112 46 177.858 44.04C178.605 42.08 179.118 40.0733 179.398 38.02C179.678 35.8733 179.958 33.96 180.238 32.28H183.458ZM257.151 2.88C273.857 2.88 286.271 7.08 294.391 15.48C302.511 23.7867 306.571 35.7333 306.571 51.32C306.571 61.4933 304.564 70.4067 300.551 78.06C296.631 85.62 290.891 91.5 283.331 95.7C275.771 99.9 266.624 102 255.891 102C254.491 102 252.624 101.953 250.291 101.86C247.957 101.767 245.531 101.72 243.011 101.72C240.584 101.627 238.344 101.58 236.291 101.58C233.024 101.58 229.804 101.627 226.631 101.72C223.457 101.72 220.891 101.813 218.931 102V99.2C222.104 99.0133 224.484 98.64 226.071 98.08C227.751 97.52 228.871 96.4 229.431 94.72C229.991 93.04 230.271 90.52 230.271 87.16V17.72C230.271 14.2667 229.991 11.7467 229.431 10.16C228.871 8.48 227.751 7.36 226.071 6.8C224.484 6.14666 222.104 5.77333 218.931 5.68V2.88C220.891 2.97333 223.457 3.11333 226.631 3.29999C229.804 3.39333 232.931 3.39333 236.011 3.29999C239.277 3.20666 242.964 3.11333 247.071 3.02C251.177 2.92667 254.537 2.88 257.151 2.88ZM253.651 5.39999C249.357 5.39999 246.557 6.19333 245.251 7.77999C243.944 9.36666 243.291 12.5867 243.291 17.44V87.44C243.291 92.2933 243.944 95.5133 245.251 97.1C246.651 98.6867 249.497 99.48 253.791 99.48C263.964 99.48 271.851 97.66 277.451 94.02C283.051 90.2867 286.971 84.8733 289.211 77.78C291.451 70.6867 292.571 62.0533 292.571 51.88C292.571 41.4267 291.311 32.7933 288.791 25.98C286.364 19.0733 282.304 13.94 276.611 10.58C271.011 7.12666 263.357 5.39999 253.651 5.39999ZM357.092 2.88C373.799 2.88 386.212 7.08 394.332 15.48C402.452 23.7867 406.512 35.7333 406.512 51.32C406.512 61.4933 404.506 70.4067 400.492 78.06C396.572 85.62 390.832 91.5 383.272 95.7C375.712 99.9 366.566 102 355.832 102C354.432 102 352.566 101.953 350.232 101.86C347.899 101.767 345.472 101.72 342.952 101.72C340.526 101.627 338.286 101.58 336.232 101.58C332.966 101.58 329.746 101.627 326.572 101.72C323.399 101.72 320.832 101.813 318.872 102V99.2C322.046 99.0133 324.426 98.64 326.012 98.08C327.692 97.52 328.812 96.4 329.372 94.72C329.932 93.04 330.212 90.52 330.212 87.16V17.72C330.212 14.2667 329.932 11.7467 329.372 10.16C328.812 8.48 327.692 7.36 326.012 6.8C324.426 6.14666 322.046 5.77333 318.872 5.68V2.88C320.832 2.97333 323.399 3.11333 326.572 3.29999C329.746 3.39333 332.872 3.39333 335.952 3.29999C339.219 3.20666 342.906 3.11333 347.012 3.02C351.119 2.92667 354.479 2.88 357.092 2.88ZM353.592 5.39999C349.299 5.39999 346.499 6.19333 345.192 7.77999C343.886 9.36666 343.232 12.5867 343.232 17.44V87.44C343.232 92.2933 343.886 95.5133 345.192 97.1C346.592 98.6867 349.439 99.48 353.732 99.48C363.906 99.48 371.792 97.66 377.392 94.02C382.992 90.2867 386.912 84.8733 389.152 77.78C391.392 70.6867 392.512 62.0533 392.512 51.88C392.512 41.4267 391.252 32.7933 388.732 25.98C386.306 19.0733 382.246 13.94 376.552 10.58C370.952 7.12666 363.299 5.39999 353.592 5.39999ZM454.514 2.88V5.68C451.34 5.77333 448.914 6.14666 447.234 6.8C445.647 7.36 444.574 8.48 444.014 10.16C443.454 11.7467 443.174 14.2667 443.174 17.72V87.16C443.174 90.52 443.454 93.04 444.014 94.72C444.574 96.4 445.647 97.52 447.234 98.08C448.914 98.64 451.34 99.0133 454.514 99.2V102C452.367 101.813 449.66 101.72 446.394 101.72C443.22 101.627 440 101.58 436.734 101.58C433.094 101.58 429.687 101.627 426.514 101.72C423.34 101.72 420.774 101.813 418.814 102V99.2C421.987 99.0133 424.367 98.64 425.954 98.08C427.634 97.52 428.754 96.4 429.314 94.72C429.874 93.04 430.154 90.52 430.154 87.16V17.72C430.154 14.2667 429.874 11.7467 429.314 10.16C428.754 8.48 427.634 7.36 425.954 6.8C424.367 6.14666 421.987 5.77333 418.814 5.68V2.88C420.774 2.97333 423.34 3.06666 426.514 3.16C429.687 3.25333 433.094 3.29999 436.734 3.29999C440 3.29999 443.22 3.25333 446.394 3.16C449.66 3.06666 452.367 2.97333 454.514 2.88ZM554.175 2.88V5.68C551.002 5.77333 548.575 6.24 546.895 7.08C545.308 7.92 544.235 9.27333 543.675 11.14C543.115 13.0067 542.835 15.6667 542.835 19.12V102.7C542.275 102.7 541.715 102.7 541.155 102.7C540.688 102.7 540.175 102.7 539.615 102.7L480.815 11.84V85.76C480.815 89.12 481.095 91.78 481.655 93.74C482.308 95.6067 483.522 96.96 485.295 97.8C487.162 98.5467 489.915 99.0133 493.555 99.2V102C491.875 101.813 489.682 101.72 486.975 101.72C484.268 101.627 481.702 101.58 479.275 101.58C476.942 101.58 474.562 101.627 472.135 101.72C469.802 101.72 467.842 101.813 466.255 102V99.2C469.428 99.0133 471.808 98.5467 473.395 97.8C475.075 96.96 476.195 95.6067 476.755 93.74C477.315 91.78 477.595 89.12 477.595 85.76V17.72C477.595 14.2667 477.315 11.7467 476.755 10.16C476.195 8.48 475.075 7.36 473.395 6.8C471.808 6.14666 469.428 5.77333 466.255 5.68V2.88C467.842 2.97333 469.802 3.06666 472.135 3.16C474.562 3.25333 476.942 3.29999 479.275 3.29999C481.328 3.29999 483.288 3.25333 485.155 3.16C487.022 3.06666 488.702 2.97333 490.195 2.88L539.615 79.04V19.12C539.615 15.6667 539.288 13.0067 538.635 11.14C538.075 9.27333 536.862 7.92 534.995 7.08C533.222 6.24 530.515 5.77333 526.875 5.68V2.88C528.555 2.97333 530.748 3.06666 533.455 3.16C536.255 3.25333 538.822 3.29999 541.155 3.29999C543.582 3.29999 545.962 3.25333 548.295 3.16C550.722 3.06666 552.682 2.97333 554.175 2.88ZM610.906 0.919991C616.972 0.919991 621.872 1.85333 625.606 3.72C629.339 5.49333 632.839 7.59333 636.106 10.02C637.319 10.9533 638.252 11.42 638.906 11.42C640.679 11.42 641.846 8.57333 642.406 2.88H645.626C645.439 6.33333 645.299 10.5333 645.206 15.48C645.112 20.4267 645.066 26.96 645.066 35.08H641.846C641.192 31.16 640.399 27.38 639.466 23.74C638.532 20.1 636.992 16.9733 634.846 14.36C632.139 10.9067 628.592 8.24666 624.206 6.38C619.819 4.41999 615.292 3.43999 610.626 3.43999C605.959 3.43999 601.712 4.60666 597.886 6.94C594.152 9.18 590.932 12.4467 588.226 16.74C585.519 21.0333 583.419 26.2133 581.926 32.28C580.526 38.2533 579.826 45.02 579.826 52.58C579.826 69.38 582.532 81.7 587.946 89.54C593.359 97.2867 601.759 101.16 613.146 101.16C616.506 101.16 619.399 100.693 621.826 99.76C624.346 98.7333 626.306 97.7533 627.706 96.82C629.479 95.6067 630.599 94.4867 631.066 93.46C631.532 92.34 631.766 90.8933 631.766 89.12V75.68C631.766 71.8533 631.392 69.0067 630.646 67.14C629.899 65.2733 628.499 64.0133 626.446 63.36C624.486 62.7067 621.546 62.3333 617.626 62.24V59.44C619.306 59.5333 621.266 59.6267 623.506 59.72C625.746 59.72 628.079 59.7667 630.506 59.86C633.026 59.86 635.312 59.86 637.366 59.86C640.446 59.86 643.199 59.8133 645.626 59.72C648.146 59.6267 650.246 59.5333 651.926 59.44V62.24C649.872 62.3333 648.332 62.66 647.306 63.22C646.279 63.78 645.579 64.9 645.206 66.58C644.926 68.26 644.786 70.8267 644.786 74.28V102H641.986C641.892 100.413 641.519 98.6867 640.866 96.82C640.306 94.9533 639.419 94.02 638.206 94.02C637.646 94.02 637.086 94.16 636.526 94.44C635.966 94.72 634.986 95.3733 633.586 96.4C630.506 98.7333 627.239 100.6 623.786 102C620.332 103.307 616.319 103.96 611.746 103.96C602.132 103.96 593.872 102 586.966 98.08C580.152 94.0667 574.926 88.3267 571.286 80.86C567.646 73.3933 565.826 64.48 565.826 54.12C565.826 43.2 567.786 33.7733 571.706 25.84C575.626 17.9067 580.946 11.7933 587.666 7.5C594.479 3.11333 602.226 0.919991 610.906 0.919991Z" fill="black" fill-opacity="0.1"/>
				</svg>