<svg width="297" height="49" viewBox="0 0 297 49" fill="none" xmlns="http://www.w3.org/2000/svg">
<path d="M24.3966 3.07882C32.923 3.07882 40.6068 4.21899 49.4307 4.21899C54.0905 4.21899 56.817 2.9301 57.1144 1.34379C57.164 1.04635 57.3623 0.451481 57.6101 0.451481C57.9076 0.451481 58.0067 0.748918 58.0067 0.897634C58.0067 2.97968 52.7024 6.64804 46.952 6.64804H45.2666C40.1111 15.1745 33.9145 28.3112 31.7829 33.7146C30.5931 36.7385 29.9983 39.6633 29.9983 41.7453C29.9983 43.3316 31.2872 45.7111 34.2615 45.7111C36.7401 45.7111 41.2512 44.3231 44.8204 41.6462C47.7948 39.3658 49.5794 37.1847 51.5623 34.706C51.7606 34.4086 51.8597 34.4086 51.9589 34.4086C52.058 34.4086 52.1571 34.5077 52.1571 34.6069C52.1571 34.706 52.1571 34.706 52.058 34.9043C49.5794 38.2753 46.9025 40.853 45.217 42.1419C41.9452 44.6205 36.2444 47.7932 31.5846 47.7932C28.2137 47.7932 25.388 46.3556 25.388 42.9351C25.388 40.506 26.4291 37.0855 27.6188 34.2103C31.0889 25.783 36.7401 15.6206 41.2512 6.49932C36.7897 6.30103 31.6837 5.95402 27.0239 5.70616C23.9009 12.795 20.0838 20.677 17.5556 25.4856C13.7385 32.6736 10.8633 38.2753 8.03768 43.9761C6.60008 46.8513 6.10436 46.7521 4.07189 47C1.8907 47.2479 1.29583 47.8427 0.651391 47.8427C0.403528 47.8427 0.304383 47.694 0.304383 47.5949C0.304383 47.2974 0.750535 47.1487 1.98985 45.4137C4.31975 42.1419 6.15393 39.1676 8.58298 34.706C13.2428 26.1796 19.6872 14.9266 23.0581 5.50787C23.0581 5.50787 22.7607 5.4583 22.5128 5.4583C17.8035 5.4583 15.2753 6.15231 13.1932 8.23435C12.5983 8.82922 12.3009 9.2258 12.1026 9.2258C11.9043 9.2258 11.8052 9.12666 11.8052 8.92837C11.8052 8.73008 12.2018 8.23435 12.8958 7.54034C15.6223 4.81386 19.3898 3.07882 24.3966 3.07882ZM62.7618 24.6428C66.5293 24.6428 68.9088 27.2206 68.9088 31.1864C68.9088 40.2581 59.3413 47.7932 51.8558 47.7932C48.1379 47.7932 45.5106 45.1162 45.5106 41.3983C45.5106 32.8719 55.2763 24.6428 62.7618 24.6428ZM61.3242 25.7334C55.9208 25.7334 49.7242 34.1607 49.7242 40.853C49.7242 44.0752 51.261 46.5043 53.3926 46.5043C58.8456 46.5043 64.8934 37.9282 64.8934 31.236C64.8934 28.0633 63.5549 25.7334 61.3242 25.7334ZM82.619 26.8736C81.6276 26.8736 80.19 26.9727 79.0002 27.7659C78.7028 27.9642 78.6037 28.0633 78.5045 28.0633C78.4054 28.0633 78.3062 27.9642 78.3062 27.865C78.3062 27.7659 78.3062 27.6668 78.6037 27.4685C79.0002 27.171 82.3712 24.6924 84.5523 24.6924C87.031 24.6924 88.2703 26.7249 88.2703 28.7078C88.2703 31.6325 87.6754 34.1607 84.8498 38.5727C87.8737 35.9453 92.7318 30.6907 95.607 27.171C95.8549 26.8736 96.4497 25.8326 96.648 25.5847C97.1437 24.9898 99.2258 24.0975 100.217 24.0975C100.416 24.0975 100.515 24.1967 100.515 24.2958C100.515 24.4941 99.9694 25.2873 99.3745 26.3779C95.2104 33.5163 93.9215 37.9778 91.3438 43.5299C93.872 41.2496 102.597 30.9881 108.347 26.8736C111.024 24.9403 112.957 23.8001 114.197 23.8001C115.436 23.8001 116.328 24.9403 116.328 25.8821C116.328 26.5762 116.328 26.477 114.94 27.518C114.494 27.865 113.899 28.2616 113.651 28.2616C113.552 28.2616 113.503 28.2616 113.503 28.1625C113.503 26.6753 112.61 26.0309 111.668 26.0309C110.677 26.0309 108.942 26.9232 107.207 29.1539C104.679 32.3761 102.25 37.73 102.25 41.1505C102.25 45.1658 103.985 46.2564 106.612 46.2564C109.686 46.2564 113.998 44.4222 117.617 41.6462C120.592 39.3658 122.376 37.1847 124.359 34.706C124.557 34.4086 124.656 34.4086 124.756 34.4086C124.855 34.4086 124.954 34.5077 124.954 34.6069C124.954 34.706 124.954 34.706 124.855 34.9043C122.376 38.2753 119.699 40.8034 118.014 42.1419C113.255 45.9094 108.397 48.2393 104.629 48.2393C101.754 48.2393 98.7301 47.0991 98.7301 42.4889C98.7301 39.6137 99.9198 36.4906 101.704 33.7642C98.7796 36.4906 94.219 41.2 91.6412 44.571L89.9062 47C89.5096 47.4957 88.419 47.694 87.4275 48.0906C86.6344 48.4376 86.0891 48.7846 85.8412 48.7846C85.6429 48.7846 85.5438 48.5863 85.5438 48.4872C85.5438 48.1897 86.2378 46.9009 94.9626 29.4514L83.3626 41.2992C80.6361 43.9761 75.3814 48.388 74.1917 48.388C73.8943 48.388 73.7456 48.1897 73.2498 47.7436C72.7541 47.2974 72.0105 46.9009 72.0105 46.306C72.0105 45.6615 75.4806 44.8684 77.2156 43.8769C79.3472 42.6376 85.6429 36.2428 85.6429 30.6907C85.6429 29.1539 84.3045 26.8736 82.619 26.8736ZM124.022 34.5077C132.697 32.4257 133.837 29.4018 133.837 27.3693C133.837 26.7249 133.44 25.9813 132.548 25.9813C129.574 25.9813 126.302 30.0462 124.022 34.5077ZM124.666 47.7932C121.196 47.7932 117.974 45.9094 117.974 41.894C117.974 32.7727 129.723 24.6428 134.828 24.6428C136.117 24.6428 137.406 25.4856 137.406 27.1215C137.406 28.4599 134.333 33.7146 123.576 35.5488C122.882 36.9368 121.989 38.771 121.989 41.8445C121.989 45.0171 124.121 46.5043 126.798 46.5043C130.119 46.5043 135.324 44.2239 138.695 41.6462C141.669 39.3658 143.454 37.1847 145.437 34.706C145.635 34.4086 145.734 34.4086 145.834 34.4086C145.933 34.4086 146.032 34.5077 146.032 34.6069C146.032 34.706 146.032 34.706 145.933 34.9043C143.454 38.2753 140.777 40.853 139.092 42.1419C135.324 45.2154 130.119 47.7932 124.666 47.7932ZM149.023 41.0017C144.066 46.2564 140.496 47.1983 139.207 47.1983C137.621 47.1983 135.936 46.7026 135.936 44.7197C135.936 42.5385 137.225 42.1915 138.414 41.2C139.951 39.9111 140.645 39.0684 140.943 39.0684C140.992 39.0684 141.091 39.118 141.091 39.2171C141.091 39.3163 140.943 39.5641 140.695 39.812C139.505 40.853 138.91 41.9436 138.91 43.1334C138.91 44.4222 139.753 45.3145 141.042 45.3145C142.727 45.3145 146.048 43.0838 149.469 39.465C152.939 35.7966 155.467 32.6736 157.103 30.2941C158.293 28.5591 158.689 26.9727 159.78 25.9813C160.127 25.6343 161.019 25.2873 162.06 24.8907C162.804 24.5933 163.448 24.1471 163.696 24.1471C163.895 24.1471 163.994 24.1967 163.994 24.4445C163.994 24.9403 162.011 27.0719 160.672 29.7984C158.392 34.359 156.112 38.9693 156.112 42.1915C156.112 43.9265 156.508 45.5624 158.987 45.5624C161.961 45.5624 165.382 43.7282 168.059 41.6462C171.033 39.3658 172.818 37.1847 174.801 34.706C174.999 34.4086 175.098 34.4086 175.197 34.4086C175.296 34.4086 175.395 34.5077 175.395 34.6069C175.395 34.706 175.395 34.706 175.296 34.9043C172.818 38.2753 170.141 40.853 168.455 42.1419C165.778 44.2239 161.119 47.2479 156.26 47.2479C153.484 47.2479 151.898 45.5128 151.898 43.1829C151.898 40.4564 153.336 37.6804 156.112 32.7231C154.674 34.4582 151.65 38.2257 149.023 41.0017ZM197.817 42.1419C194.645 44.6205 190.381 47.5949 186.316 47.5949C183.887 47.5949 182.45 46.4051 182.45 43.5299C179.079 45.612 175.658 47.2479 173.18 47.2479C170.106 47.2479 168.817 44.8684 168.817 41.7949C168.817 34.359 177.988 24.6428 185.672 24.6428C188.299 24.6428 191.175 26.1796 192.067 29.3522C192.563 29.3522 193.356 29.5505 193.356 30.4428C193.356 33.5163 190.877 35.6975 188.993 37.6804C188.398 38.2753 187.506 39.0684 186.713 39.8616C186.217 41.1505 186.118 42.3402 186.118 43.1334C186.118 44.1248 186.416 45.7111 188.894 45.7111C191.67 45.7111 194.645 43.7282 197.421 41.6462C200.395 39.3658 202.18 37.1847 204.162 34.706C204.361 34.4086 204.46 34.4086 204.559 34.4086C204.658 34.4086 204.757 34.5077 204.757 34.6069C204.757 34.706 204.757 34.706 204.658 34.9043C202.18 38.2753 199.503 40.853 197.817 42.1419ZM185.523 25.8326C178.98 25.8326 172.932 35.1522 172.932 41.6957C172.932 43.3812 173.378 45.5624 175.658 45.5624C178.335 45.5624 181.111 43.6786 182.549 42.5385C183.342 39.7624 184.928 36.3915 186.316 34.5077C187.506 32.8223 189.687 30.1454 191.274 29.5505C190.381 27.2702 188.101 25.8326 185.523 25.8326ZM187.06 38.771C190.927 34.9043 192.067 32.7231 192.067 31.93C192.067 31.6325 191.869 31.5334 191.67 31.5334C190.778 31.5334 188.398 35.9949 187.06 38.771ZM209.978 26.6257C209.978 28.7573 205.962 35.6479 205.962 35.6479C207.202 35.7471 208.094 35.7966 209.036 35.7966C211.663 35.7966 214.538 35.2513 217.413 33.9624C218.752 31.7813 221.528 27.6172 222.272 26.6257C223.114 25.4856 224.403 25.2377 225.543 25.0394C226.386 24.8907 227.278 24.5933 227.774 24.5933C227.972 24.5933 228.022 24.6924 228.022 24.7915C228.022 25.089 226.683 25.436 223.858 29.2035C220.041 34.3095 216.67 40.4564 216.67 43.6291C216.67 45.265 217.364 46.3556 219.347 46.3556C221.528 46.3556 225.048 44.2239 228.419 41.6462C231.393 39.3658 233.177 37.1847 235.16 34.706C235.359 34.4086 235.458 34.4086 235.557 34.4086C235.656 34.4086 235.755 34.5077 235.755 34.6069C235.755 34.706 235.755 34.706 235.656 34.9043C233.177 38.2753 230.501 40.853 228.815 42.1419C225.048 45.2154 221.131 48.1402 216.769 48.1402C213.993 48.1402 212.754 46.7521 212.754 44.5214C212.754 42.1419 214.29 39.1676 216.62 35.4992C213.596 36.6889 210.87 37.1351 205.07 37.4325C204.178 39.3163 200.658 45.3145 199.667 46.9504C199.32 47.4957 198.13 47.5453 196.841 47.7436C195.998 47.8923 195.453 48.4376 195.155 48.4376C194.957 48.4376 194.858 48.388 194.858 48.1897C194.858 47.9914 195.651 47.2479 197.039 44.9675C197.981 43.4804 199.766 40.506 201.203 37.8291C201.005 36.4411 200.608 35.8462 200.608 35.4C200.608 35.1522 200.906 34.8548 200.955 34.8548C201.302 34.8548 201.996 35.1026 202.69 35.1522C204.921 31.1864 206.161 28.6582 206.161 27.171C206.161 25.8821 205.764 25.5847 205.169 25.5847C204.178 25.5847 202.69 26.477 201.501 27.2702C201.203 27.4685 201.104 27.5676 201.005 27.5676C200.906 27.5676 200.807 27.4685 200.807 27.3693C200.807 27.2702 200.807 27.171 201.104 26.9727C201.501 26.6753 204.872 24.1967 207.053 24.1967C209.036 24.1967 209.978 25.2377 209.978 26.6257ZM260.023 42.1419C256.255 45.3145 251.05 47.5453 248.076 47.5453C246.093 47.5453 244.952 46.306 244.952 44.7692C244.952 43.7778 245.151 42.7368 245.646 41.4479C243.763 43.2325 239.351 47.8427 234.146 47.8427C232.014 47.8427 229.288 46.7521 229.288 43.4308C229.288 38.6718 237.12 30.4924 237.12 27.171C237.12 26.2787 237.021 25.5847 236.129 25.5847C234.741 25.5847 233.65 26.477 232.46 27.2702C232.163 27.4685 232.064 27.5676 231.965 27.5676C231.865 27.5676 231.766 27.4685 231.766 27.3693C231.766 27.2702 231.766 27.171 232.064 26.9727C233.65 25.8821 236.029 24.1967 238.012 24.1967C239.995 24.1967 240.888 25.089 240.888 26.9727C240.888 30.0462 233.253 38.9197 233.253 42.7368C233.253 44.7197 234.195 45.7111 236.426 45.7111C239.351 45.7111 243.366 42.6872 246.44 39.7129C248.274 35.8462 251.546 29.8479 252.735 27.865C253.628 26.3779 254.52 24.9403 255.214 24.9403C255.759 24.9403 257.544 25.4856 257.544 26.5266C257.544 28.0633 253.529 31.8804 251.546 35.4496C250.306 37.6804 248.522 40.4564 248.522 43.3812C248.522 44.6701 249.315 45.7607 250.901 45.7607C253.033 45.7607 256.85 43.9265 259.626 41.6462C262.6 39.3658 264.385 37.1847 266.368 34.706C266.566 34.4086 266.665 34.4086 266.764 34.4086C266.863 34.4086 266.963 34.5077 266.963 34.6069C266.963 34.706 266.963 34.706 266.863 34.9043C264.385 38.2753 261.708 40.853 260.023 42.1419ZM262.322 45.1162C264.008 45.1162 267.18 43.2821 270.402 39.465C271.493 38.1761 271.939 37.0855 271.939 36.2924C271.939 35.8958 271.741 35.4992 271.394 35.2513C270.155 34.6069 268.568 33.6154 268.568 31.6821C268.568 26.477 274.914 24.1967 278.731 24.1967C280.862 24.1967 282.349 24.395 283.936 24.395C284.828 24.395 285.473 24.3454 286.96 24.3454C287.505 24.3454 287.753 24.395 287.753 24.5933C287.753 24.7915 287.356 24.9403 287.009 25.2377C286.861 25.3864 286.563 25.6839 285.968 26.477C284.531 28.4599 282.449 31.7317 280.614 35.4496C279.078 38.5727 278.086 41.6462 278.086 43.1829C278.086 44.571 278.681 45.2154 279.97 45.2154C282.796 45.2154 287.257 43.0342 288.943 41.6462C291.917 39.3658 293.702 37.1847 295.684 34.706C295.883 34.4086 295.982 34.4086 296.081 34.4086C296.18 34.4086 296.279 34.5077 296.279 34.6069C296.279 34.706 296.279 34.706 296.18 34.9043C293.702 38.2753 291.025 40.853 289.339 42.1419C287.307 43.8769 280.961 47.2479 277.045 47.2479C275.261 47.2479 273.972 46.4547 273.972 44.6701C273.972 41.6957 275.756 38.0274 277.938 34.1607C279.871 30.7402 282.944 26.2291 282.944 25.5847C282.944 25.089 282.052 25.0394 280.664 25.0394H279.226C275.211 25.0394 272.435 28.0633 272.435 30.889C272.435 32.8223 272.98 33.9129 274.319 34.3095C274.914 34.5077 276.054 34.4582 276.054 34.8052C276.054 35.1026 275.657 35.2018 274.715 35.9453C273.922 36.5898 272.038 38.7214 269.956 41.0017C264.999 46.2564 261.926 47.1983 260.438 47.1983C258.307 47.1983 256.77 45.4137 256.77 43.6291C256.77 43.2325 257.068 42.9846 257.415 42.7368C259.249 41.3983 260.488 40.159 260.587 40.159C260.785 40.159 260.885 40.2581 260.885 40.4564C260.885 40.6547 260.538 40.8034 260.141 41.3983C259.943 41.6957 259.794 42.0428 259.794 42.6872C259.794 43.8769 261.033 45.1162 262.322 45.1162Z" fill="black"/>
</svg>
