<svg width="345" height="78" viewBox="0 0 345 78" fill="none" xmlns="http://www.w3.org/2000/svg">
<path d="M25.9711 43.3646V32.4542H19.8896L19.7807 35.5403C19.7444 36.4964 19.6838 37.4162 19.5991 38.2997C19.5265 39.1711 19.4055 39.9577 19.236 40.6597C19.0787 41.3495 18.8609 41.9123 18.5825 42.348C18.3163 42.7837 17.9653 43.0378 17.5296 43.1105L16.0591 42.8382C16.5432 42.8624 16.9426 42.6869 17.2573 42.3117C17.584 41.9365 17.8322 41.4101 18.0016 40.7323C18.1831 40.0546 18.3163 39.2618 18.401 38.3542C18.4857 37.4465 18.5462 36.4662 18.5825 35.4132L18.7277 31.2923H27.2964V43.3646H25.9711ZM15.5871 46.8502L15.6053 42.8382H29.2025V46.8502H27.9499V44H16.8579L16.8397 46.8502H15.5871ZM29.7098 43.9818L29.8006 42.8745C29.8853 42.8866 29.964 42.9047 30.0366 42.9289C30.1213 42.941 30.1939 42.9471 30.2544 42.9471C30.6417 42.9471 30.9503 42.8018 31.1803 42.5114C31.4223 42.2209 31.6039 41.8336 31.7249 41.3495C31.8459 40.8654 31.9306 40.3208 31.9791 39.7157C32.0275 39.0985 32.0698 38.4812 32.1061 37.864L32.2695 34.4692H39.2587V44H37.9698V35.2135L38.2966 35.5948H33.1046L33.4132 35.1954L33.268 37.9548C33.2317 38.7777 33.1651 39.5644 33.0683 40.3148C32.9836 41.0651 32.8444 41.7247 32.6507 42.2935C32.4692 42.8624 32.2151 43.3102 31.8883 43.6369C31.5615 43.9516 31.144 44.1089 30.6357 44.1089C30.4904 44.1089 30.3392 44.0968 30.1818 44.0726C30.0366 44.0484 29.8793 44.0182 29.7098 43.9818ZM48.8955 44V40.5689L49.1315 40.8412H45.9001C44.6777 40.8412 43.7216 40.575 43.0318 40.0425C42.3419 39.5099 41.997 38.7354 41.997 37.7188C41.997 36.6295 42.3661 35.8187 43.1044 35.2862C43.8426 34.7415 44.829 34.4692 46.0635 34.4692H50.0755V44H48.8955ZM41.9244 44L44.5385 40.3329H45.8819L43.3222 44H41.9244ZM48.8955 40.1877V35.2135L49.1315 35.5948H46.0998C45.2163 35.5948 44.5264 35.7642 44.0302 36.1031C43.5461 36.4419 43.3041 36.9926 43.3041 37.7551C43.3041 39.1711 44.2057 39.8791 46.009 39.8791H49.1315L48.8955 40.1877ZM69.2438 43.3828V35.5948H64.6509L64.542 37.7188C64.5177 38.3602 64.4754 38.9895 64.4149 39.6068C64.3665 40.224 64.2757 40.7928 64.1426 41.3132C64.0215 41.8215 63.8461 42.2391 63.6161 42.5658C63.3862 42.8805 63.0896 43.0621 62.7266 43.1105L61.4376 42.8745C61.8128 42.8866 62.1214 42.7534 62.3635 42.4751C62.6055 42.1846 62.7931 41.7913 62.9263 41.2951C63.0594 40.7989 63.1562 40.2361 63.2167 39.6068C63.2772 38.9653 63.3256 38.3118 63.362 37.6462L63.489 34.4692H70.5327V43.3828H69.2438ZM61.0383 46.3055V42.8745H72.0213V46.3055H70.805V44H62.2546V46.3055H61.0383ZM78.4363 44.0908C77.4439 44.0908 76.5725 43.885 75.8222 43.4735C75.0718 43.0499 74.4848 42.4751 74.0612 41.7489C73.6376 41.0107 73.4258 40.1695 73.4258 39.2255C73.4258 38.2815 73.6255 37.4465 74.0249 36.7203C74.4364 35.9942 74.9931 35.4253 75.6951 35.0138C76.4091 34.5903 77.2079 34.3785 78.0914 34.3785C78.987 34.3785 79.7797 34.5842 80.4695 34.9957C81.1715 35.3951 81.7222 35.9639 82.1215 36.7022C82.5209 37.4283 82.7206 38.2694 82.7206 39.2255C82.7206 39.2861 82.7146 39.3526 82.7025 39.4252C82.7025 39.4857 82.7025 39.5523 82.7025 39.6249H74.4062V38.6628H82.0126L81.5043 39.044C81.5043 38.3542 81.353 37.743 81.0505 37.2105C80.76 36.6658 80.3606 36.2423 79.8523 35.9397C79.344 35.6371 78.757 35.4858 78.0914 35.4858C77.4378 35.4858 76.8509 35.6371 76.3305 35.9397C75.8101 36.2423 75.4046 36.6658 75.1142 37.2105C74.8237 37.7551 74.6785 38.3784 74.6785 39.0803V39.28C74.6785 40.0062 74.8358 40.6476 75.1505 41.2043C75.4772 41.7489 75.925 42.1786 76.4938 42.4932C77.0748 42.7958 77.7344 42.9471 78.4726 42.9471C79.0535 42.9471 79.5921 42.8442 80.0883 42.6385C80.5966 42.4327 81.0323 42.1181 81.3954 41.6945L82.1215 42.5295C81.6979 43.0378 81.1654 43.4251 80.524 43.6914C79.8947 43.9576 79.1988 44.0908 78.4363 44.0908ZM85.3922 44V34.4692H89.6039C90.681 34.4692 91.5282 34.675 92.1454 35.0865C92.7748 35.4979 93.0894 36.1031 93.0894 36.9018C93.0894 37.6764 92.7929 38.2755 92.1999 38.6991C91.6069 39.1106 90.8263 39.3163 89.8581 39.3163L90.1122 38.9351C91.2499 38.9351 92.0849 39.1469 92.6174 39.5705C93.15 39.9941 93.4162 40.6052 93.4162 41.404C93.4162 42.227 93.1136 42.8684 92.5085 43.3283C91.9155 43.7761 90.9896 44 89.731 44H85.3922ZM86.6448 42.9834H89.6765C90.4874 42.9834 91.0986 42.8563 91.5101 42.6022C91.9336 42.3359 92.1454 41.9123 92.1454 41.3314C92.1454 40.7505 91.9579 40.3269 91.5827 40.0606C91.2075 39.7944 90.6145 39.6612 89.8036 39.6612H86.6448V42.9834ZM86.6448 38.6991H89.5131C90.2514 38.6991 90.8142 38.5599 91.2014 38.2815C91.6008 38.0032 91.8005 37.5977 91.8005 37.0652C91.8005 36.5327 91.6008 36.1333 91.2014 35.8671C90.8142 35.6008 90.2514 35.4677 89.5131 35.4677H86.6448V38.6991ZM96.4188 47.6126C95.971 47.6126 95.5414 47.54 95.1299 47.3948C94.7305 47.2495 94.3856 47.0317 94.0951 46.7412L94.6942 45.7791C94.9363 46.009 95.1965 46.1845 95.4748 46.3055C95.7653 46.4387 96.086 46.5052 96.437 46.5052C96.8606 46.5052 97.2236 46.3842 97.5262 46.1422C97.8409 45.9122 98.1374 45.5007 98.4158 44.9077L99.033 43.5098L99.1782 43.3102L103.099 34.4692H104.37L99.5958 45.1437C99.3295 45.7609 99.033 46.2511 98.7062 46.6142C98.3915 46.9772 98.0466 47.2314 97.6714 47.3766C97.2963 47.5339 96.8787 47.6126 96.4188 47.6126ZM98.9604 44.2723L94.5671 34.4692H95.9105L99.7954 43.2194L98.9604 44.2723ZM112.46 42.8745L112.169 43.2194V34.4692H113.458V43.2194L113.113 42.8745H118.432L118.088 43.2194V34.4692H119.376V44H106.197V34.4692H107.486V43.2194L107.159 42.8745H112.46ZM126.942 44.0908C125.949 44.0908 125.078 43.885 124.328 43.4735C123.577 43.0499 122.99 42.4751 122.567 41.7489C122.143 41.0107 121.931 40.1695 121.931 39.2255C121.931 38.2815 122.131 37.4465 122.53 36.7203C122.942 35.9942 123.499 35.4253 124.201 35.0138C124.915 34.5903 125.713 34.3785 126.597 34.3785C127.493 34.3785 128.285 34.5842 128.975 34.9957C129.677 35.3951 130.228 35.9639 130.627 36.7022C131.026 37.4283 131.226 38.2694 131.226 39.2255C131.226 39.2861 131.22 39.3526 131.208 39.4252C131.208 39.4857 131.208 39.5523 131.208 39.6249H122.912V38.6628H130.518L130.01 39.044C130.01 38.3542 129.859 37.743 129.556 37.2105C129.266 36.6658 128.866 36.2423 128.358 35.9397C127.85 35.6371 127.263 35.4858 126.597 35.4858C125.943 35.4858 125.356 35.6371 124.836 35.9397C124.316 36.2423 123.91 36.6658 123.62 37.2105C123.329 37.7551 123.184 38.3784 123.184 39.0803V39.28C123.184 40.0062 123.341 40.6476 123.656 41.2043C123.983 41.7489 124.431 42.1786 124.999 42.4932C125.58 42.7958 126.24 42.9471 126.978 42.9471C127.559 42.9471 128.098 42.8442 128.594 42.6385C129.102 42.4327 129.538 42.1181 129.901 41.6945L130.627 42.5295C130.203 43.0378 129.671 43.4251 129.03 43.6914C128.4 43.9576 127.704 44.0908 126.942 44.0908ZM140.887 44L136.966 39.28L138.037 38.6446L142.412 44H140.887ZM133.898 44V34.4692H135.187V44H133.898ZM134.787 39.752V38.6446H137.855V39.752H134.787ZM138.146 39.3708L136.948 39.1892L140.742 34.4692H142.14L138.146 39.3708Z" fill="black"/>
<rect x="0.4" y="0.4" width="344.2" height="77.2" rx="38.6" stroke="#717171" stroke-width="0.8"/>
<circle cx="179" cy="39" r="20" fill="#F0DBE2"/>
<circle cx="198" cy="39" r="20" fill="#DCC3BE"/>
<circle cx="218" cy="39" r="20" fill="#E1D2CB"/>
<circle cx="238" cy="39" r="20" fill="#F3DFD4"/>
<circle cx="258" cy="39" r="20" fill="#EEEBF2"/>
<circle cx="278" cy="39" r="20" fill="#EDE7E9"/>
<circle cx="298" cy="39" r="20" fill="#C1D1E1"/>
</svg>
