<svg width="253" height="57" viewBox="0 0 253 57" fill="none" xmlns="http://www.w3.org/2000/svg">
<path d="M22.0898 19.6914C24.6233 21.2296 26.3425 24.5774 27.4283 27.5181C29.3284 32.7208 30.188 38.9641 33.0834 43.3073C35.436 46.8814 38.3314 49.3244 42.4484 49.3244C45.7057 49.3244 48.1488 48.1481 50.8633 46.067C50.9537 45.9765 51.1347 45.8861 51.2252 45.8861C51.2252 45.8861 51.3157 45.8861 51.3157 45.9765C51.3157 47.6957 45.9772 50.3197 41.4531 50.3197C36.3408 50.3197 32.8572 49.0077 30.007 45.6146C26.3877 41.2714 26.5687 37.4259 23.8994 30.1421C22.497 26.2966 20.4611 22.7678 17.6109 21.7272C15.0774 26.6585 8.96982 37.7879 6.93396 41.0905C6.57203 41.6786 6.07438 42.2668 1.09783 42.2668C0.554939 42.2668 0.464456 42.2668 0.464456 41.9953C0.464456 41.7239 1.55025 41.7239 2.72652 40.2761C5.39576 37.0188 8.15548 32.8113 10.87 28.0158C12.9511 24.3964 14.9417 20.7319 16.887 17.1126C18.38 14.3076 20.5968 9.96447 20.5968 6.7071C20.5968 4.17359 19.6015 2.45442 17.4752 2.45442C16.7966 2.45442 14.3988 2.90683 11.6843 5.62131C11.1414 6.16421 10.87 6.52614 10.689 6.52614C10.508 6.52614 10.4175 6.43565 10.4175 6.25469C10.4175 6.07373 10.7795 5.62131 11.4128 4.98793C14.3988 1.91153 18.1086 0.916218 19.8277 0.916218C23.3565 0.916218 24.7138 3.40449 24.7138 5.71179C24.7138 8.51675 19.692 17.6103 18.0633 20.6867C23.628 17.2936 26.9759 15.2125 32.5405 11.5479C38.1052 7.88338 41.5888 5.48559 47.063 1.95677C47.5606 1.64008 48.4202 1.27815 48.7369 1.27815C49.0084 1.27815 49.3703 1.36863 50.2299 1.7758C50.818 2.04725 51.3157 2.04725 51.3157 2.27346C51.3157 2.45442 50.5918 2.5449 50.1394 2.72587C49.5513 2.95208 49.0084 3.22352 48.6012 3.44973C42.8555 6.52614 39.01 8.74296 33.4454 12.2265C28.7855 15.122 26.252 16.7959 22.0898 19.6461V19.6914ZM56.9415 20.5962C60.3798 20.5962 62.5514 22.9487 62.5514 26.568C62.5514 34.8472 53.8198 41.7239 46.9884 41.7239C43.5953 41.7239 41.1975 39.2808 41.1975 35.8877C41.1975 28.1062 50.1101 20.5962 56.9415 20.5962ZM55.6295 21.5915C50.6982 21.5915 45.043 29.2825 45.043 35.3901C45.043 38.3308 46.4455 40.5476 48.3909 40.5476C53.3674 40.5476 58.8869 32.7208 58.8869 26.6133C58.8869 23.7178 57.6653 21.5915 55.6295 21.5915ZM76.421 22.4058C76.421 24.3512 72.7565 30.6397 72.7565 30.6397C73.8875 30.7302 74.7019 30.7755 75.5615 30.7755C77.9592 30.7755 80.5832 30.2778 83.2072 29.1015C84.4288 27.1109 86.9623 23.3107 87.6409 22.4058C88.41 21.3653 89.5863 21.1391 90.6268 20.9581C91.3959 20.8224 92.2103 20.5509 92.6627 20.5509C92.8436 20.5509 92.8889 20.6414 92.8889 20.7319C92.8889 21.0033 91.6674 21.32 89.0886 24.7584C85.605 29.4182 82.5286 35.0282 82.5286 37.9236C82.5286 39.4166 83.162 40.4119 84.9716 40.4119C86.9623 40.4119 90.1744 38.4665 93.2508 36.1139C95.9653 34.0328 97.594 32.0422 99.4036 29.7802C99.5846 29.5087 99.6751 29.5087 99.7656 29.5087C99.856 29.5087 99.9465 29.5992 99.9465 29.6897C99.9465 29.7802 99.9465 29.7802 99.856 29.9611C97.594 33.0375 95.1509 35.3901 93.6127 36.5664C90.1744 39.3713 86.6003 42.0405 82.6191 42.0405C80.0856 42.0405 78.9546 40.7738 78.9546 38.7379C78.9546 36.5664 80.357 33.8519 82.4834 30.504C79.7237 31.5898 77.2354 31.997 71.9422 32.2684C71.1278 33.9876 67.9157 39.4618 67.0109 40.9548C66.6942 41.4524 65.6084 41.4977 64.4321 41.6786C63.663 41.8143 63.1653 42.312 62.8939 42.312C62.7129 42.312 62.6225 42.2668 62.6225 42.0858C62.6225 41.9048 63.3463 41.2262 64.6131 39.1451C65.4727 37.7879 67.1013 35.0734 68.4133 32.6304C68.2324 31.3636 67.8704 30.8207 67.8704 30.4135C67.8704 30.1873 68.1419 29.9159 68.1871 29.9159C68.5038 29.9159 69.1372 30.1421 69.7706 30.1873C71.8064 26.568 72.9375 24.2607 72.9375 22.9035C72.9375 21.7272 72.5755 21.4558 72.0326 21.4558C71.1278 21.4558 69.7706 22.2701 68.6848 22.994C68.4133 23.1749 68.3229 23.2654 68.2324 23.2654C68.1419 23.2654 68.0514 23.1749 68.0514 23.0844C68.0514 22.994 68.0514 22.9035 68.3229 22.7225C68.6848 22.4511 71.7612 20.189 73.7518 20.189C75.5615 20.189 76.421 21.1391 76.421 22.4058ZM104.676 22.4058C104.676 23.7178 104.042 25.3013 103.364 26.568C104.721 25.3918 108.838 21.0486 111.417 21.0486C112.412 21.0486 113.091 21.9082 113.091 23.1749C113.091 24.8941 112.14 27.0657 112.14 27.0657C112.14 27.0657 118.293 20.7319 122.636 20.7319C124.084 20.7319 125.306 21.6367 125.306 22.994C125.306 26.7942 115.217 34.7567 115.217 46.6099C115.217 50.6816 117.388 55.3415 122.455 55.3415C127.477 55.3415 133.856 49.9578 136.571 45.9765C136.752 45.7051 136.842 45.7051 136.933 45.7051C137.023 45.7051 137.114 45.7956 137.114 45.8861C137.114 45.9765 137.114 45.9765 137.023 46.1575C133.132 51.4055 126.527 56.6535 120.827 56.6535C115.85 56.6535 112.14 52.7627 112.14 47.1528C112.14 36.3854 120.827 27.8348 120.827 24.2607C120.827 23.6273 120.465 23.0844 119.741 23.0844C117.207 23.0844 113.181 26.7942 111.145 28.9206C110.105 30.0064 108.974 31.3636 107.345 31.3636C107.254 31.3636 107.209 31.3184 107.209 31.2279C107.209 30.7302 107.843 30.7302 108.023 30.1873C108.023 30.1873 109.878 26.1156 109.878 24.6679C109.878 24.125 109.607 23.4011 108.838 23.4011C107.119 23.4011 104.54 25.9799 102.73 28.4229C100.468 31.4088 98.2061 36.0235 95.9441 40.5928C95.5821 41.3167 94.3154 40.819 93.2748 41.181C92.4152 41.4977 92.0081 41.7239 91.7819 41.7239C91.6461 41.7239 91.5557 41.5881 91.5557 41.4977C91.5557 41.4072 91.7366 41.2714 91.9628 40.9548C93.2296 39.0999 96.6679 33.0828 98.4776 29.7802C100.332 26.4775 101.192 23.944 101.192 22.9035C101.192 21.7272 100.83 21.4558 100.287 21.4558C99.3824 21.4558 98.0252 22.2701 96.9394 22.994C96.6679 23.1749 96.5774 23.2654 96.487 23.2654C96.3965 23.2654 96.306 23.1749 96.306 23.0844C96.306 22.994 96.306 22.9035 96.5774 22.7225C96.9394 22.4511 100.016 20.189 102.006 20.189C103.816 20.189 104.676 21.1391 104.676 22.4058ZM153.401 36.5664C150.505 38.8284 146.614 41.5429 142.905 41.5429C140.688 41.5429 139.376 40.4571 139.376 37.8331C136.299 39.7332 133.178 41.2262 130.916 41.2262C128.111 41.2262 126.934 39.0546 126.934 36.2497C126.934 29.4635 135.304 20.5962 142.316 20.5962C144.714 20.5962 147.338 21.9987 148.153 24.8941C148.605 24.8941 149.329 25.0751 149.329 25.8894C149.329 28.6944 147.067 30.685 145.348 32.4946C144.805 33.0375 143.99 33.7614 143.266 34.4853C142.814 35.6615 142.724 36.7473 142.724 37.4712C142.724 38.376 142.995 39.8237 145.257 39.8237C147.791 39.8237 150.505 38.0141 153.039 36.1139C155.753 34.0328 157.382 32.0422 159.191 29.7802C159.372 29.5087 159.463 29.5087 159.553 29.5087C159.644 29.5087 159.734 29.5992 159.734 29.6897C159.734 29.7802 159.734 29.7802 159.644 29.9611C157.382 33.0375 154.939 35.3901 153.401 36.5664ZM142.181 21.682C136.209 21.682 130.689 30.1873 130.689 36.1592C130.689 37.6974 131.097 39.688 133.178 39.688C135.621 39.688 138.154 37.9688 139.466 36.9283C140.19 34.3948 141.638 31.3184 142.905 29.5992C143.99 28.061 145.981 25.618 147.429 25.0751C146.614 22.994 144.533 21.682 142.181 21.682ZM143.583 33.4899C147.112 29.9611 148.153 27.9705 148.153 27.2466C148.153 26.9752 147.972 26.8847 147.791 26.8847C146.976 26.8847 144.805 30.9564 143.583 33.4899ZM164.544 22.8582C164.544 25.0751 160.246 31.6351 159.522 32.9923H159.612L160.381 32.2232C165.268 27.1562 173.139 20.6414 176.668 20.6414C177.664 20.6414 178.659 20.8676 178.659 21.5915C178.659 22.0891 178.026 22.4511 177.211 23.0844C176.623 23.5369 176.397 23.9893 176.125 23.9893C175.944 23.9893 175.944 23.8988 175.944 23.7178C175.944 23.4464 175.356 23.2202 174.451 23.2202C172.189 23.2202 170.154 24.5774 165.81 28.242C166.76 29.4182 167.62 30.4588 168.344 33.5352C169.475 38.2403 169.746 39.9142 172.144 39.9142C173.863 39.9142 177.664 37.8331 179.745 36.1139C182.459 34.0328 184.088 32.0422 185.898 29.7802C186.079 29.5087 186.169 29.5087 186.259 29.5087C186.35 29.5087 186.44 29.5992 186.44 29.6897C186.44 29.7802 186.44 29.7802 186.35 29.9611C184.088 33.0375 181.645 35.3901 180.107 36.5664C177.935 38.376 173.049 41.7239 169.565 41.7239C166.353 41.7239 165.856 39.0546 165.041 34.9829C164.589 32.8566 163.548 31.2731 162.96 30.7302C162.282 31.3636 160.427 33.2185 158.165 36.0687C157.441 37.2902 156.717 38.5117 155.676 40.6381C155.495 41 153.867 41 153.052 41.0905C152.329 41.181 151.876 41.5881 151.605 41.5881C151.605 41.5881 151.424 41.5881 151.424 41.4072C151.424 40.9548 153.324 39.2808 158.3 29.7802C159.929 26.7038 161.196 24.3512 161.196 23.2654C161.196 22.0891 160.834 21.4558 160.11 21.4558C159.205 21.4558 157.848 22.2701 156.762 22.994C156.491 23.1749 156.4 23.2654 156.31 23.2654C156.219 23.2654 156.129 23.1749 156.129 23.0844C156.129 22.994 156.129 22.9035 156.4 22.7225C156.762 22.4511 159.839 20.189 161.829 20.189C163.639 20.189 164.544 21.3653 164.544 22.8582ZM191.207 22.4058C191.207 23.7178 190.573 25.3013 189.895 26.568C191.252 25.3918 195.369 21.0486 197.948 21.0486C198.943 21.0486 199.622 21.9082 199.622 23.1749C199.622 24.8941 198.671 27.0657 198.671 27.0657C198.671 27.0657 204.824 20.7319 209.167 20.7319C210.615 20.7319 211.837 21.6367 211.837 22.994C211.837 26.7942 201.748 34.7567 201.748 46.6099C201.748 50.6816 203.919 55.3415 208.987 55.3415C214.008 55.3415 220.387 49.9578 223.102 45.9765C223.283 45.7051 223.373 45.7051 223.464 45.7051C223.554 45.7051 223.645 45.7956 223.645 45.8861C223.645 45.9765 223.645 45.9765 223.554 46.1575C219.663 51.4055 213.058 56.6535 207.358 56.6535C202.381 56.6535 198.671 52.7627 198.671 47.1528C198.671 36.3854 207.358 27.8348 207.358 24.2607C207.358 23.6273 206.996 23.0844 206.272 23.0844C203.739 23.0844 199.712 26.7942 197.676 28.9206C196.636 30.0064 195.505 31.3636 193.876 31.3636C193.785 31.3636 193.74 31.3184 193.74 31.2279C193.74 30.7302 194.374 30.7302 194.555 30.1873C194.555 30.1873 196.409 26.1156 196.409 24.6679C196.409 24.125 196.138 23.4011 195.369 23.4011C193.65 23.4011 191.071 25.9799 189.261 28.4229C186.999 31.4088 184.737 36.0235 182.475 40.5928C182.113 41.3167 180.846 40.819 179.806 41.181C178.946 41.4977 178.539 41.7239 178.313 41.7239C178.177 41.7239 178.087 41.5881 178.087 41.4977C178.087 41.4072 178.268 41.2714 178.494 40.9548C179.761 39.0999 183.199 33.0828 185.009 29.7802C186.864 26.4775 187.723 23.944 187.723 22.9035C187.723 21.7272 187.361 21.4558 186.818 21.4558C185.913 21.4558 184.556 22.2701 183.47 22.994C183.199 23.1749 183.108 23.2654 183.018 23.2654C182.928 23.2654 182.837 23.1749 182.837 23.0844C182.837 22.994 182.837 22.9035 183.108 22.7225C183.47 22.4511 186.547 20.189 188.537 20.189C190.347 20.189 191.207 21.1391 191.207 22.4058ZM241.379 21.0938C241.877 21.0938 243.325 21.3653 243.325 22.3153C243.325 24.0345 239.796 26.93 238.303 30.1873C237.353 32.3137 235.86 35.933 235.86 37.6521C235.86 39.1451 237.036 39.7785 237.941 39.7785C240.022 39.7785 243.732 38.195 246.265 36.1139C248.98 34.0328 250.608 32.0422 252.418 29.7802C252.599 29.5087 252.69 29.5087 252.78 29.5087C252.871 29.5087 252.961 29.5992 252.961 29.6897C252.961 29.7802 252.961 29.7802 252.871 29.9611C250.608 33.0375 248.165 35.3901 246.627 36.5664C243.189 39.4618 238.348 41.5881 235.634 41.5881C233.869 41.5881 232.602 40.6381 232.602 39.0094C232.602 36.4759 234.684 32.6304 235.905 30.0968C235.181 30.4588 234.005 30.6397 233.326 30.6397C232.467 30.6397 231.381 30.3683 231.381 30.3683C230.386 36.1139 224.278 41.4072 218.804 41.4072C215.411 41.3619 214.054 39.688 214.054 36.3401C214.054 31.997 218.94 25.0298 220.568 22.7225C220.84 22.3153 221.156 22.1796 221.473 22.1344C224.007 21.682 224.866 21.0938 225.861 21.0938C226.133 21.0938 226.178 21.2748 226.178 21.4558C226.178 21.6367 224.776 21.9082 223.464 23.6726C221.79 25.9347 217.582 31.9065 217.582 36.2497C217.582 38.7379 218.532 40.1857 220.749 40.1857C225.092 40.1857 228.531 34.3043 228.531 31.3184C228.531 30.5493 228.531 29.8254 227.897 29.1015C227.354 28.7396 225.861 27.7443 225.861 27.4729C225.861 26.93 226.54 26.8395 227.128 26.4775C228.169 25.8442 228.576 25.437 228.847 25.437C229.074 25.437 229.164 26.1609 229.39 26.4775C229.978 27.3371 231.381 29.6897 234.05 29.6897C234.819 29.6897 235.815 29.5087 236.312 29.2373C237.398 26.9752 239.932 21.0938 241.379 21.0938Z" fill="black"/>
</svg>
