<svg width="371" height="80" viewBox="0 0 371 80" fill="none" xmlns="http://www.w3.org/2000/svg">
<path d="M50.7871 41.3619C45.6296 41.3619 44.0462 38.8284 44.0462 35.4806C44.0462 31.3184 46.5345 25.9799 47.6655 22.813C44.8605 26.4323 39.7935 33.0828 37.2147 35.3901C32.1477 39.9142 28.3475 41.3619 24.9544 41.3619C21.4708 41.3619 19.8873 38.376 19.8873 34.5757C19.8873 30.2778 22.5113 24.0345 23.3257 21.9987C13.2821 35.933 7.71743 41.3619 3.4195 41.3619C1.15744 41.3619 0.343097 39.5523 0.343097 37.8331C0.343097 37.4712 0.343097 37.0188 0.524062 36.8378C2.15275 35.571 4.05288 33.6709 4.14337 33.6709C4.32433 33.6709 4.41481 33.7614 4.41481 33.9424C4.41481 34.0328 3.78144 34.4853 3.78144 35.2996C3.78144 37.0188 4.23385 38.0141 6.26971 38.0141C10.4319 38.0141 17.3086 29.1468 24.3662 17.2936L31.1977 4.26407C31.4691 3.6307 31.831 3.26876 32.1477 2.99732C33.0525 2.09249 34.1383 1.73056 34.455 1.5496C35.5408 1.09718 36.129 0.825734 36.6719 0.825734C36.8981 0.825734 37.1243 1.0067 37.26 1.09718V1.18766V1.27815C37.26 1.5496 37.1243 2.00201 36.7171 2.63539L31.8763 10.4169C28.6189 17.2031 24.4115 25.9347 24.4115 33.0828C24.4115 36.1592 25.3615 39.0094 28.076 39.0094C29.9761 39.0094 34.0479 37.0188 37.2147 33.8066C40.4269 30.5493 43.3676 27.2919 49.1584 18.1984C51.8277 12.679 54.7231 8.06434 56.578 4.89745C56.8495 4.35455 58.6139 1.45911 60.7855 1.45911C61.4641 1.45911 62.5046 2.09249 62.5499 2.36394C62.5499 2.99732 58.7948 7.02379 55.9446 12.5885C52.9135 18.696 48.2536 26.749 48.2536 33.8971C48.2536 37.0188 49.3394 39.688 52.8682 39.688C54.7684 39.688 58.071 38.0141 60.6045 36.1139C63.319 34.0328 64.9477 32.0422 66.7573 29.7802C66.9383 29.5087 67.0288 29.5087 67.1192 29.5087C67.2097 29.5087 67.3002 29.5992 67.3002 29.6897C67.3002 29.7802 67.3002 29.7802 67.2097 29.9611C64.9477 33.0375 62.5046 35.3901 60.9664 36.5664C59.6092 37.6521 55.0398 41.3619 50.7871 41.3619ZM89.1754 21.0938C89.6731 21.0938 91.1208 21.3653 91.1208 22.3153C91.1208 24.0345 87.592 26.93 86.099 30.1873C85.1489 32.3137 83.656 35.933 83.656 37.6521C83.656 39.1451 84.8323 39.7785 85.7371 39.7785C87.8182 39.7785 91.528 38.195 94.0615 36.1139C96.776 34.0328 98.4046 32.0422 100.214 29.7802C100.395 29.5087 100.486 29.5087 100.576 29.5087C100.667 29.5087 100.757 29.5992 100.757 29.6897C100.757 29.7802 100.757 29.7802 100.667 29.9611C98.4046 33.0375 95.9616 35.3901 94.4234 36.5664C90.9851 39.4618 86.1443 41.5881 83.4298 41.5881C81.6654 41.5881 80.3986 40.6381 80.3986 39.0094C80.3986 36.4759 82.4797 32.6304 83.7012 30.0968C82.9774 30.4588 81.8011 30.6397 81.1225 30.6397C80.2629 30.6397 79.1771 30.3683 79.1771 30.3683C78.1818 36.1139 72.0742 41.4072 66.6 41.4072C63.2069 41.3619 61.8497 39.688 61.8497 36.3401C61.8497 31.997 66.7357 25.0298 68.3644 22.7225C68.6359 22.3153 68.9526 22.1796 69.2693 22.1344C71.8028 21.682 72.6623 21.0938 73.6577 21.0938C73.9291 21.0938 73.9743 21.2748 73.9743 21.4558C73.9743 21.6367 72.5719 21.9082 71.2599 23.6726C69.5859 25.9347 65.3785 31.9065 65.3785 36.2497C65.3785 38.7379 66.3286 40.1857 68.5454 40.1857C72.8886 40.1857 76.3269 34.3043 76.3269 31.3184C76.3269 30.5493 76.3269 29.8254 75.6935 29.1015C75.1506 28.7396 73.6577 27.7443 73.6577 27.4729C73.6577 26.93 74.3363 26.8395 74.9244 26.4775C75.965 25.8442 76.3721 25.437 76.6436 25.437C76.8698 25.437 76.9603 26.1609 77.1865 26.4775C77.7746 27.3371 79.1771 29.6897 81.8463 29.6897C82.6154 29.6897 83.6107 29.5087 84.1084 29.2373C85.1942 26.9752 87.7277 21.0938 89.1754 21.0938ZM127.707 19.4651C123.907 26.749 120.604 33.6257 117.799 39.7785C117.392 40.7286 116.894 40.8643 115.266 41.3167C112.732 42.0405 112.461 42.7192 111.872 42.7192C111.646 42.7192 111.556 42.5834 111.556 42.493C111.556 42.2215 112.144 41.8596 113.184 40.2309C117.528 33.5804 121.011 25.9347 124.54 19.4199C125.535 17.6555 127.752 12.8599 128.612 11.4122C132.774 4.35455 139.56 0.916218 144.265 0.916218C147.794 0.916218 150.689 3.44973 150.689 7.52145C150.689 13.8552 143.179 17.4745 138.565 19.2389L138.61 19.3294C138.61 19.3294 139.651 19.2842 140.058 19.2842C144.175 19.2842 147.794 22.9487 147.794 26.7038C147.794 34.6662 139.108 41.6786 128.928 41.6786C123.409 41.6786 119.925 39.9142 119.925 38.6475C119.925 38.4212 120.197 38.0593 120.604 37.5164C120.966 37.0188 121.464 35.9782 121.69 35.9782C121.735 35.9782 121.825 36.0235 121.825 36.1592C121.825 38.0141 125.219 40.5928 128.838 40.5928C136.574 40.5928 143.813 33.0375 143.813 25.618C143.813 21.682 140.646 20.1438 138.384 20.1438C135.669 20.1438 135.896 21.32 134.222 21.32C133.905 21.32 132.955 20.5962 132.955 20.2795C132.955 19.6461 134.448 19.7366 135.353 19.4651C140.103 18.0627 146.753 13.9005 146.753 8.47151C146.753 4.98793 144.401 2.81635 141.37 2.81635C138.61 2.81635 136.755 3.58545 134.041 7.88338C132.638 10.1002 130.105 14.8958 127.707 19.4651ZM176.821 36.5664C173.926 38.8284 170.035 41.5429 166.325 41.5429C164.108 41.5429 162.796 40.4571 162.796 37.8331C159.72 39.7332 156.598 41.2262 154.336 41.2262C151.531 41.2262 150.355 39.0546 150.355 36.2497C150.355 29.4635 158.725 20.5962 165.737 20.5962C168.135 20.5962 170.759 21.9987 171.573 24.8941C172.026 24.8941 172.75 25.0751 172.75 25.8894C172.75 28.6944 170.487 30.685 168.768 32.4946C168.225 33.0375 167.411 33.7614 166.687 34.4853C166.235 35.6615 166.144 36.7473 166.144 37.4712C166.144 38.376 166.416 39.8237 168.678 39.8237C171.211 39.8237 173.926 38.0141 176.459 36.1139C179.174 34.0328 180.802 32.0422 182.612 29.7802C182.793 29.5087 182.884 29.5087 182.974 29.5087C183.065 29.5087 183.155 29.5992 183.155 29.6897C183.155 29.7802 183.155 29.7802 183.065 29.9611C180.802 33.0375 178.359 35.3901 176.821 36.5664ZM165.601 21.682C159.63 21.682 154.11 30.1873 154.11 36.1592C154.11 37.6974 154.517 39.688 156.598 39.688C159.041 39.688 161.575 37.9688 162.887 36.9283C163.611 34.3948 165.058 31.3184 166.325 29.5992C167.411 28.061 169.402 25.618 170.849 25.0751C170.035 22.994 167.954 21.682 165.601 21.682ZM167.004 33.4899C170.533 29.9611 171.573 27.9705 171.573 27.2466C171.573 26.9752 171.392 26.8847 171.211 26.8847C170.397 26.8847 168.225 30.9564 167.004 33.4899ZM197.329 36.5664C193.348 39.4618 189.276 41.9953 184.119 41.9953C180.681 41.9953 177.106 40.6381 177.106 36.0687C177.106 28.242 187.648 20.5962 192.534 20.5962C193.981 20.5962 194.886 21.682 194.886 23.2202C194.886 24.306 194.796 24.5774 193.167 25.4822C192.624 25.7537 192.172 25.9347 191.9 25.9347C191.81 25.9347 191.719 25.9347 191.719 25.8442C191.719 25.7537 191.9 25.4822 191.9 24.8489C191.9 23.1297 190.634 22.4058 189.819 22.4058C186.019 22.4058 180.816 30.6397 180.816 35.933C180.816 39.0546 182.4 40.819 185.748 40.819C189.367 40.819 193.529 38.6475 196.967 36.1139C199.682 34.0328 201.311 32.0422 203.12 29.7802C203.301 29.5087 203.392 29.5087 203.482 29.5087C203.573 29.5087 203.663 29.5992 203.663 29.6897C203.663 29.7802 203.663 29.7802 203.573 29.9611C201.311 33.0375 198.868 35.3901 197.329 36.5664ZM225.134 22.632C224.229 22.632 222.917 22.7225 221.831 23.4464C221.56 23.6273 221.469 23.7178 221.379 23.7178C221.288 23.7178 221.198 23.6273 221.198 23.5369C221.198 23.4464 221.198 23.3559 221.469 23.1749C221.831 22.9035 224.907 20.6414 226.898 20.6414C229.16 20.6414 230.291 22.4963 230.291 24.306C230.291 26.9752 229.748 29.2825 227.169 33.309C229.929 30.9112 234.363 26.1156 236.987 22.9035C237.213 22.632 237.756 21.682 237.937 21.4558C238.389 20.9129 240.289 20.0985 241.194 20.0985C241.375 20.0985 241.466 20.189 241.466 20.2795C241.466 20.4605 240.968 21.1843 240.425 22.1796C236.625 28.6944 235.449 32.7661 233.096 37.8331C235.403 35.752 243.366 26.3871 248.614 22.632C251.057 20.8676 252.821 19.8271 253.952 19.8271C255.083 19.8271 255.898 20.8676 255.898 21.7272C255.898 22.3606 255.898 22.2701 254.631 23.2202C254.224 23.5369 253.681 23.8988 253.455 23.8988C253.364 23.8988 253.319 23.8988 253.319 23.8083C253.319 22.4511 252.505 21.8629 251.645 21.8629C250.74 21.8629 249.157 22.6773 247.573 24.7131C245.266 27.6538 243.049 32.5399 243.049 35.6615C243.049 39.3261 244.633 40.3214 247.03 40.3214C249.835 40.3214 253.771 38.6475 257.074 36.1139C259.788 34.0328 261.417 32.0422 263.227 29.7802C263.408 29.5087 263.498 29.5087 263.589 29.5087C263.679 29.5087 263.77 29.5992 263.77 29.6897C263.77 29.7802 263.77 29.7802 263.679 29.9611C261.417 33.0375 258.974 35.3448 257.436 36.5664C253.093 40.0047 248.659 42.131 245.221 42.131C242.597 42.131 239.837 41.0905 239.837 36.883C239.837 34.259 240.923 31.4088 242.552 28.9206C239.882 31.4088 235.72 35.7068 233.368 38.7832L231.784 41C231.422 41.4524 230.427 41.6334 229.522 41.9953C228.798 42.312 228.301 42.6287 228.074 42.6287C227.893 42.6287 227.803 42.4477 227.803 42.3572C227.803 42.0858 228.436 40.9095 236.399 24.9846L225.812 35.7973C223.324 38.2403 218.528 42.2668 217.443 42.2668C217.171 42.2668 217.035 42.0858 216.583 41.6786C216.131 41.2714 215.452 40.9095 215.452 40.3666C215.452 39.7785 218.619 39.0546 220.202 38.1498C222.148 37.0188 227.893 31.1826 227.893 26.1156C227.893 24.7131 226.672 22.632 225.134 22.632ZM239.348 79.7265C234.553 79.7265 229.486 75.881 229.486 69.8639C229.486 56.382 248.849 49.5958 259.481 46.248C260.25 46.0218 261.471 45.6146 261.788 45.6146C262.059 45.6146 262.195 45.7503 262.195 45.9313C262.195 46.429 261.29 46.6099 260.476 46.8814C250.749 50.003 232.788 54.7534 232.788 68.5519C232.788 73.9357 236.815 77.9169 242.017 77.9169C248.216 77.9169 253.056 71.8546 257.445 64.254C262.874 54.7986 266.945 47.4243 275.541 33.0375H275.496C271.696 37.064 265.86 41 261.2 41C258.576 41 257.354 39.0094 257.354 36.2949C257.354 29.7349 265.905 20.008 272.329 20.008C275.858 20.008 278.21 22.813 279.658 25.9799L279.93 25.437C280.563 24.1702 280.789 24.5322 281.423 24.3512C281.513 24.3512 281.875 24.1702 282.056 24.1702C282.146 24.1702 282.327 24.3512 282.327 24.4417C282.327 24.6227 282.237 24.8036 282.056 24.9846C281.694 25.437 281.151 26.6133 280.518 27.6991C280.608 27.88 280.789 28.4229 280.789 28.6039C280.789 28.7849 280.699 28.9658 280.518 28.9658C280.427 28.9658 280.246 28.5134 280.156 28.3324C280.156 28.4229 261.019 63.9373 261.019 63.9373C257.445 70.5426 248.396 79.7265 239.348 79.7265ZM279.296 26.5228C277.939 24.0798 275.677 21.6367 272.42 21.6367C267.941 21.6367 261.109 29.2373 261.109 36.3854C261.109 37.7426 262.195 39.3713 263.643 39.3713C268.8 39.3713 276.129 31.4541 276.22 31.3636C277.306 30.2778 278.391 28.242 279.296 26.5228ZM288.258 29.5992C296.175 27.6991 297.215 24.9393 297.215 23.0844C297.215 22.4963 296.853 21.8177 296.039 21.8177C293.325 21.8177 290.339 25.5275 288.258 29.5992ZM288.846 41.7239C285.679 41.7239 282.738 40.0047 282.738 36.3401C282.738 28.0158 293.46 20.5962 298.12 20.5962C299.296 20.5962 300.473 21.3653 300.473 22.8582C300.473 24.0798 297.668 28.8753 287.85 30.5493C287.217 31.816 286.403 33.4899 286.403 36.2949C286.403 39.1903 288.348 40.5476 290.791 40.5476C293.822 40.5476 298.573 38.4665 301.649 36.1139C304.363 34.0328 305.992 32.0422 307.802 29.7802C307.983 29.5087 308.073 29.5087 308.164 29.5087C308.254 29.5087 308.345 29.5992 308.345 29.6897C308.345 29.7802 308.345 29.7802 308.254 29.9611C305.992 33.0375 303.549 35.3901 302.011 36.5664C298.573 39.3713 293.822 41.7239 288.846 41.7239ZM330.935 36.6116C330.935 38.195 331.388 39.688 333.65 39.688C336.364 39.688 339.486 38.0141 341.929 36.1139C344.643 34.0328 346.272 32.0422 348.082 29.7802C348.263 29.5087 348.353 29.5087 348.444 29.5087C348.534 29.5087 348.625 29.5992 348.625 29.6897C348.625 29.7802 348.625 29.7802 348.534 29.9611C346.272 33.0375 343.829 35.3901 342.291 36.5664C339.848 38.4665 335.595 41.2262 331.162 41.2262C328.628 41.2262 327.135 39.6428 327.135 37.5164C327.135 35.3448 328.221 33.0375 329.804 30.0064C328.583 31.4541 327.09 33.0828 325.054 35.2996C321.48 39.1903 318.539 41 316.368 41C314.829 41 313.608 40.2309 313.608 38.1046C313.608 35.933 314.377 32.6756 316.73 28.1515C315.553 29.7349 313.472 32.9923 311.074 35.5258C306.55 40.3214 303.293 41.181 302.117 41.181C300.669 41.181 299.131 40.7286 299.131 38.9189C299.131 36.9283 300.307 36.6116 301.393 35.7068C302.795 34.5305 303.429 33.7614 303.7 33.7614C303.745 33.7614 303.836 33.8066 303.836 33.8971C303.836 33.9876 303.7 34.2138 303.474 34.44C302.388 35.3901 301.845 36.3854 301.845 37.4712C301.845 38.6475 302.614 39.4618 303.791 39.4618C305.329 39.4618 308.36 37.4259 311.482 34.1233C314.648 30.7755 316.187 27.9253 317.589 25.7537C318.63 24.125 318.946 22.6773 319.942 21.7725C320.258 21.4558 321.344 20.9581 322.294 20.6414C322.837 20.4605 323.018 20.189 323.244 20.189C323.38 20.189 323.425 20.2795 323.425 20.4605C323.425 20.9129 322.068 22.813 320.846 25.3013C318.811 29.4635 317.408 34.3495 317.408 37.2902C317.408 38.6927 318.313 38.9189 318.765 38.9189C320.123 38.9189 322.204 37.5617 324.647 34.9377C326.185 33.309 329.442 29.554 331.478 26.4323C332.519 24.8036 333.514 22.6773 334.464 21.7272C334.781 21.4105 335.414 21.0938 336.364 20.7319C337.043 20.4605 338.083 20.2342 338.31 20.2342C338.491 20.2342 338.581 20.4152 338.581 20.6414C338.581 21.0938 336.455 22.813 335.188 25.3013C333.062 29.4635 330.935 33.6709 330.935 36.6116ZM352.749 31.3636C352.613 31.9517 351.572 32.4494 350.984 32.4494C350.622 32.4494 350.351 32.1327 350.351 31.6803C350.351 31.4088 350.577 30.5945 351.03 29.4635C353.88 22.4511 357.499 15.4839 361.887 8.74296C362.883 7.25 363.742 5.98324 364.647 4.98793C365.1 4.53552 365.869 4.17359 366.864 4.17359C367.633 4.17359 370.529 4.89745 370.529 5.3951C370.529 5.53083 370.438 5.57607 370.348 5.57607C370.257 5.57607 370.121 5.44035 369.759 5.44035C368.131 5.44035 365.688 7.65717 363.471 10.4621C357.273 18.3341 354.242 24.8489 352.749 31.3636ZM346.686 39.3713C346.686 37.6521 348.541 35.9782 350.396 35.9782C351.391 35.9782 352.07 36.883 352.07 37.9688C352.07 39.869 349.627 41.2714 348.36 41.2714C347.274 41.2714 346.686 40.4571 346.686 39.3713Z" fill="black"/>
</svg>
