<svg width="170" height="58" viewBox="0 0 170 58" fill="none" xmlns="http://www.w3.org/2000/svg">
<path d="M29.3073 3.6773C39.4648 3.6773 48.6183 5.03557 59.1301 5.03557C64.6813 5.03557 67.9293 3.50014 68.2836 1.61038C68.3427 1.25605 68.5789 0.547386 68.8742 0.547386C69.2285 0.547386 69.3466 0.901719 69.3466 1.07888C69.3466 3.55919 63.0277 7.92926 56.1774 7.92926H54.1695C48.0278 18.0867 40.6459 33.7363 38.1065 40.1733C36.6892 43.7756 35.9806 47.2599 35.9806 49.7402C35.9806 51.6299 37.516 54.4646 41.0593 54.4646C44.012 54.4646 49.386 52.811 53.638 49.6221C57.1813 46.9055 59.3073 44.3071 61.6695 41.3544C61.9057 41 62.0238 41 62.1419 41C62.26 41 62.3781 41.1181 62.3781 41.2363C62.3781 41.3544 62.3781 41.3544 62.26 41.5906C59.3073 45.6063 56.1183 48.6772 54.1104 50.2126C50.2128 53.1654 43.4215 56.9449 37.8703 56.9449C33.8546 56.9449 30.4884 55.2323 30.4884 51.1575C30.4884 48.2638 31.7286 44.189 33.1459 40.7638C37.2798 30.7245 44.012 18.6182 49.386 7.75209C44.0711 7.51587 37.9884 7.10249 32.4373 6.80721C28.7168 15.2521 24.1696 24.6418 21.1578 30.3701C16.6105 38.9331 13.1853 45.6063 9.81921 52.3976C8.10661 55.8228 7.51606 55.7047 5.09481 56C2.49639 56.2953 1.78773 57.0039 1.02002 57.0039C0.724742 57.0039 0.606632 56.8268 0.606632 56.7087C0.606632 56.3543 1.13813 56.1772 2.6145 54.1102C5.39008 50.2126 7.57512 46.6693 10.4688 41.3544C16.02 31.1969 23.6971 17.7914 27.7129 6.571C27.7129 6.571 27.3585 6.51194 27.0633 6.51194C21.453 6.51194 18.4412 7.33871 15.9609 9.81902C15.2523 10.5277 14.8979 11.0001 14.6617 11.0001C14.4255 11.0001 14.3074 10.882 14.3074 10.6458C14.3074 10.4096 14.7798 9.81902 15.6066 8.99225C18.8546 5.74423 23.3428 3.6773 29.3073 3.6773ZM65.9168 48.8543C60.0113 55.1142 55.7594 56.2362 54.2239 56.2362C52.3342 56.2362 50.3263 55.6457 50.3263 53.2835C50.3263 50.6851 51.8617 50.2717 53.279 49.0906C55.1097 47.5551 55.9365 46.5512 56.2908 46.5512C56.3499 46.5512 56.468 46.6103 56.468 46.7284C56.468 46.8465 56.2908 47.1418 55.9956 47.437C54.5783 48.6772 53.8696 49.9764 53.8696 51.3937C53.8696 52.9291 54.8735 53.9921 56.409 53.9921C58.4168 53.9921 62.3735 51.3347 66.4483 47.0236C70.5821 42.6536 73.594 38.9331 75.5428 36.0985C76.9601 34.0316 77.4325 32.1418 78.7317 30.9607C79.1451 30.5473 80.2081 30.1339 81.4483 29.6615C82.3341 29.3072 83.1018 28.7757 83.3971 28.7757C83.6333 28.7757 83.7514 28.8347 83.7514 29.13C83.7514 29.7205 81.3892 32.2599 79.7947 35.5079C77.0782 40.941 74.3617 46.4331 74.3617 50.2717C74.3617 52.3386 74.8341 54.2874 77.7869 54.2874C81.3302 54.2874 85.4049 52.1024 88.5939 49.6221C92.1372 46.9055 94.2632 44.3071 96.6254 41.3544C96.8616 41 96.9797 41 97.0978 41C97.2159 41 97.334 41.1181 97.334 41.2363C97.334 41.3544 97.334 41.3544 97.2159 41.5906C94.2632 45.6063 91.0742 48.6772 89.0664 50.2126C85.8774 52.6929 80.3262 56.2953 74.5388 56.2953C71.2318 56.2953 69.342 54.2284 69.342 51.4528C69.342 48.2047 71.0546 44.8977 74.3617 38.9922C72.6491 41.0591 69.0467 45.5473 65.9168 48.8543ZM124.045 50.2126C120.265 53.1654 115.187 56.7087 110.344 56.7087C107.45 56.7087 105.738 55.2913 105.738 51.8662C101.722 54.3465 97.6473 56.2953 94.6946 56.2953C91.0332 56.2953 89.4977 53.4606 89.4977 49.7992C89.4977 40.941 100.423 29.3662 109.576 29.3662C112.706 29.3662 116.132 31.1969 117.195 34.9764C117.785 34.9764 118.73 35.2127 118.73 36.2756C118.73 39.937 115.777 42.5355 113.533 44.8977C112.824 45.6063 111.761 46.5512 110.817 47.4961C110.226 49.0315 110.108 50.4488 110.108 51.3937C110.108 52.5748 110.462 54.4646 113.415 54.4646C116.722 54.4646 120.265 52.1024 123.572 49.6221C127.116 46.9055 129.242 44.3071 131.604 41.3544C131.84 41 131.958 41 132.076 41C132.194 41 132.313 41.1181 132.313 41.2363C132.313 41.3544 132.313 41.3544 132.194 41.5906C129.242 45.6063 126.053 48.6772 124.045 50.2126ZM109.399 30.7835C101.604 30.7835 94.3993 41.8859 94.3993 49.6811C94.3993 51.689 94.9308 54.2874 97.6473 54.2874C100.836 54.2874 104.143 52.0433 105.856 50.6851C106.801 47.378 108.691 43.3622 110.344 41.1181C111.761 39.1103 114.36 35.9213 116.25 35.2127C115.187 32.4961 112.47 30.7835 109.399 30.7835ZM111.23 46.1969C115.836 41.5906 117.195 38.9922 117.195 38.0473C117.195 37.693 116.958 37.5749 116.722 37.5749C115.659 37.5749 112.824 42.8898 111.23 46.1969ZM138.531 31.7284C138.531 34.2678 133.748 42.4764 133.748 42.4764C135.224 42.5945 136.287 42.6536 137.409 42.6536C140.539 42.6536 143.964 42.004 147.39 40.4685C148.984 37.8701 152.291 32.9095 153.177 31.7284C154.181 30.3701 155.716 30.0749 157.075 29.8387C158.079 29.6615 159.142 29.3072 159.732 29.3072C159.968 29.3072 160.027 29.4253 160.027 29.5434C160.027 29.8977 158.433 30.3111 155.067 34.7993C150.519 40.8819 146.504 48.2047 146.504 51.9843C146.504 53.9331 147.331 55.2323 149.693 55.2323C152.291 55.2323 156.484 52.6929 160.5 49.6221C164.043 46.9055 166.169 44.3071 168.531 41.3544C168.767 41 168.886 41 169.004 41C169.122 41 169.24 41.1181 169.24 41.2363C169.24 41.3544 169.24 41.3544 169.122 41.5906C166.169 45.6063 162.98 48.6772 160.972 50.2126C156.484 53.874 151.819 57.3583 146.622 57.3583C143.315 57.3583 141.838 55.7047 141.838 53.0473C141.838 50.2126 143.669 46.6693 146.445 42.2992C142.842 43.7166 139.594 44.2481 132.685 44.6024C131.622 46.8465 127.429 53.9921 126.248 55.9409C125.835 56.5905 124.417 56.6496 122.882 56.8858C121.878 57.063 121.228 57.7126 120.874 57.7126C120.638 57.7126 120.52 57.6535 120.52 57.4173C120.52 57.1811 121.464 56.2953 123.118 53.5787C124.24 51.8071 126.366 48.2638 128.079 45.0748C127.842 43.4213 127.37 42.7126 127.37 42.1811C127.37 41.8859 127.724 41.5315 127.783 41.5315C128.197 41.5315 129.023 41.8268 129.85 41.8859C132.508 37.1615 133.984 34.1497 133.984 32.378C133.984 30.8426 133.512 30.4883 132.803 30.4883C131.622 30.4883 129.85 31.5512 128.433 32.4961C128.079 32.7323 127.961 32.8505 127.842 32.8505C127.724 32.8505 127.606 32.7323 127.606 32.6142C127.606 32.4961 127.606 32.378 127.961 32.1418C128.433 31.7875 132.449 28.8347 135.047 28.8347C137.409 28.8347 138.531 30.0749 138.531 31.7284Z" fill="black"/>
</svg>
